Perun-ThinItalic.ufo
<glyph name="exclam" format="2">
  <advance width="333.0"/>
  <unicode hex="0021"/>
  <outline>
    <contour>
      <point x="81" y="0" type="line"/>
      <point x="103" y="0" type="line"/>
      <point x="121" y="95" type="line"/>
      <point x="99" y="95" type="line"/>
    </contour>
    <contour>
      <point x="120" y="169" type="line"/>
      <point x="130" y="169" type="line"/>
      <point x="252" y="722" type="line"/>
      <point x="212" y="722" type="line"/>
    </contour>
  </outline>
</glyph>
<glyph name="quotedbl" format="2">
  <advance width="449.0"/>
  <unicode hex="0022"/>
  <outline>
    <contour>
      <point x="80" y="434" type="line"/>
      <point x="121" y="722" type="line"/>
      <point x="161" y="722" type="line"/>
      <point x="90" y="434" type="line"/>
    </contour>
    <contour>
      <point x="287" y="434" type="line"/>
      <point x="328" y="722" type="line"/>
      <point x="368" y="722" type="line"/>
      <point x="297" y="434" type="line"/>
    </contour>
  </outline>
</glyph>
<glyph name="numbersign" format="2">
  <advance width="745.0"/>
  <unicode hex="0023"/>
  <outline>
    <contour>
      <point x="70" y="0" type="line"/>
      <point x="430" y="722" type="line"/>
      <point x="451" y="722" type="line"/>
      <point x="91" y="0" type="line"/>
    </contour>
    <contour>
      <point x="253" y="0" type="line"/>
      <point x="614" y="722" type="line"/>
      <point x="634" y="722" type="line"/>
      <point x="274" y="0" type="line"/>
    </contour>
    <contour>
      <point x="155" y="493" type="line"/>
      <point x="165" y="513" type="line"/>
      <point x="726" y="513" type="line"/>
      <point x="716" y="493" type="line"/>
    </contour>
    <contour>
      <point x="40" y="268" type="line"/>
      <point x="50" y="288" type="line"/>
      <point x="611" y="288" type="line"/>
      <point x="601" y="268" type="line"/>
    </contour>
  </outline>
</glyph>
<glyph name="percent" format="2">
  <advance width="848.0"/>
  <unicode hex="0025"/>
  <outline>
    <contour>
      <point x="105" y="-14" type="line"/>
      <point x="677" y="736" type="line"/>
      <point x="701" y="736" type="line"/>
      <point x="128" y="-14" type="line"/>
    </contour>
    <contour>
      <point x="449" y="140" type="qcurve" smooth="yes"/>
      <point x="449" y="203"/>
      <point x="504" y="313"/>
      <point x="604" y="380"/>
      <point x="670" y="380" type="qcurve" smooth="yes"/>
      <point x="740" y="380"/>
      <point x="817" y="304"/>
      <point x="817" y="239" type="qcurve" smooth="yes"/>
      <point x="817" y="175"/>
      <point x="762" y="65"/>
      <point x="663" y="-4"/>
      <point x="596" y="-4" type="qcurve" smooth="yes"/>
      <point x="526" y="-4"/>
      <point x="449" y="73"/>
    </contour>
    <contour>
      <point x="469" y="145" type="qcurve" smooth="yes"/>
      <point x="469" y="85"/>
      <point x="538" y="16"/>
      <point x="601" y="16" type="qcurve" smooth="yes"/>
      <point x="647" y="16"/>
      <point x="719" y="52"/>
      <point x="770" y="114"/>
      <point x="797" y="192"/>
      <point x="797" y="234" type="qcurve" smooth="yes"/>
      <point x="797" y="294"/>
      <point x="729" y="360"/>
      <point x="666" y="360" type="qcurve" smooth="yes"/>
      <point x="622" y="360"/>
      <point x="549" y="325"/>
      <point x="497" y="265"/>
      <point x="469" y="187"/>
    </contour>
    <contour>
      <point x="35" y="486" type="qcurve" smooth="yes"/>
      <point x="35" y="549"/>
      <point x="90" y="659"/>
      <point x="190" y="726"/>
      <point x="257" y="726" type="qcurve" smooth="yes"/>
      <point x="327" y="726"/>
      <point x="404" y="650"/>
      <point x="404" y="585" type="qcurve" smooth="yes"/>
      <point x="404" y="521"/>
      <point x="348" y="411"/>
      <point x="249" y="342"/>
      <point x="182" y="342" type="qcurve" smooth="yes"/>
      <point x="113" y="342"/>
      <point x="35" y="419"/>
    </contour>
    <contour>
      <point x="55" y="491" type="qcurve" smooth="yes"/>
      <point x="55" y="431"/>
      <point x="125" y="362"/>
      <point x="188" y="362" type="qcurve" smooth="yes"/>
      <point x="233" y="362"/>
      <point x="305" y="398"/>
      <point x="356" y="460"/>
      <point x="383" y="538"/>
      <point x="383" y="580" type="qcurve" smooth="yes"/>
      <point x="383" y="640"/>
      <point x="315" y="706"/>
      <point x="253" y="706" type="qcurve" smooth="yes"/>
      <point x="208" y="706"/>
      <point x="135" y="671"/>
      <point x="83" y="611"/>
      <point x="55" y="533"/>
    </contour>
  </outline>
</glyph>
<glyph name="ampersand" format="2">
  <advance width="765.0"/>
  <unicode hex="0026"/>
  <outline>
    <contour>
      <point x="216" y="458" type="line" smooth="yes"/>
      <point x="198" y="483"/>
      <point x="181" y="528"/>
      <point x="181" y="557" type="qcurve" smooth="yes"/>
      <point x="181" y="599"/>
      <point x="213" y="666"/>
      <point x="270" y="712"/>
      <point x="346" y="736"/>
      <point x="389" y="736" type="qcurve" smooth="yes"/>
      <point x="434" y="736"/>
      <point x="495" y="711"/>
      <point x="526" y="662"/>
      <point x="526" y="628" type="qcurve" smooth="yes"/>
      <point x="526" y="598"/>
      <point x="503" y="544"/>
      <point x="463" y="500"/>
      <point x="436" y="484" type="qcurve" smooth="yes"/>
      <point x="275" y="391" type="line"/>
      <point x="267" y="406" type="line"/>
      <point x="425" y="494" type="line" smooth="yes"/>
      <point x="450" y="508"/>
      <point x="485" y="547"/>
      <point x="504" y="595"/>
      <point x="504" y="622" type="qcurve" smooth="yes"/>
      <point x="504" y="669"/>
      <point x="445" y="716"/>
      <point x="388" y="716" type="qcurve" smooth="yes"/>
      <point x="337" y="716"/>
      <point x="252" y="679"/>
      <point x="201" y="609"/>
      <point x="201" y="559" type="qcurve" smooth="yes"/>
      <point x="201" y="544"/>
      <point x="207" y="513"/>
      <point x="222" y="481"/>
      <point x="235" y="463" type="qcurve" smooth="yes"/>
      <point x="574" y="0" type="line"/>
      <point x="546" y="0" type="line"/>
    </contour>
    <contour>
      <point x="28" y="131" type="qcurve" smooth="yes"/>
      <point x="28" y="181"/>
      <point x="72" y="264"/>
      <point x="144" y="330"/>
      <point x="185" y="356" type="qcurve" smooth="yes"/>
      <point x="263" y="404" type="line"/>
      <point x="272" y="389" type="line"/>
      <point x="200" y="345" type="line" smooth="yes"/>
      <point x="161" y="321"/>
      <point x="91" y="258"/>
      <point x="47" y="180"/>
      <point x="47" y="133" type="qcurve" smooth="yes"/>
      <point x="47" y="70"/>
      <point x="136" y="10"/>
      <point x="225" y="10" type="qcurve" smooth="yes"/>
      <point x="258" y="10"/>
      <point x="345" y="36"/>
      <point x="433" y="84"/>
      <point x="470" y="116" type="qcurve"/>
      <point x="481" y="103" type="line"/>
      <point x="427" y="61"/>
      <point x="334" y="11"/>
      <point x="248" y="-10"/>
      <point x="205" y="-10" type="qcurve" smooth="yes"/>
      <point x="120" y="-10"/>
      <point x="28" y="62"/>
    </contour>
    <contour>
      <point x="475" y="120" type="line"/>
      <point x="503" y="146"/>
      <point x="562" y="221"/>
      <point x="610" y="306"/>
      <point x="639" y="387"/>
      <point x="639" y="420" type="qcurve"/>
      <point x="641" y="422" type="line"/>
      <point x="661" y="422" type="line"/>
      <point x="650" y="364"/>
      <point x="600" y="249"/>
      <point x="528" y="147"/>
      <point x="484" y="107" type="qcurve"/>
    </contour>
  </outline>
</glyph>
<glyph name="quotesingle" format="2">
  <advance width="242.0"/>
  <unicode hex="0027"/>
  <outline>
    <contour>
      <point x="80" y="434" type="line"/>
      <point x="121" y="722" type="line"/>
      <point x="161" y="722" type="line"/>
      <point x="90" y="434" type="line"/>
    </contour>
  </outline>
</glyph>
<glyph name="parenleft" format="2">
  <advance width="303.0"/>
  <unicode hex="0028"/>
  <outline>
    <contour>
      <point x="60" y="132" type="qcurve" smooth="yes"/>
      <point x="60" y="296"/>
      <point x="177" y="605"/>
      <point x="275" y="736" type="qcurve"/>
      <point x="285" y="736" type="line"/>
      <point x="191" y="598"/>
      <point x="82" y="293"/>
      <point x="82" y="126" type="qcurve" smooth="yes"/>
      <point x="82" y="61"/>
      <point x="98" y="-73"/>
      <point x="116" y="-133" type="qcurve"/>
      <point x="106" y="-133" type="line"/>
      <point x="60" y="-4"/>
    </contour>
  </outline>
</glyph>
<glyph name="parenright" format="2">
  <advance width="359.0"/>
  <unicode hex="0029"/>
  <outline>
    <contour>
      <point x="49" y="-130" type="line"/>
      <point x="113" y="-41"/>
      <point x="206" y="164"/>
      <point x="255" y="383"/>
      <point x="255" y="493" type="qcurve" smooth="yes"/>
      <point x="255" y="624"/>
      <point x="218" y="738" type="qcurve"/>
      <point x="228" y="738" type="line"/>
      <point x="273" y="610"/>
      <point x="273" y="473" type="qcurve" smooth="yes"/>
      <point x="273" y="308"/>
      <point x="156" y="1"/>
      <point x="59" y="-130" type="qcurve"/>
    </contour>
  </outline>
</glyph>
<glyph name="asterisk" format="2">
  <advance width="656.0"/>
  <unicode hex="002A"/>
  <outline>
    <contour>
      <point x="211" y="366" type="line"/>
      <point x="363" y="527" type="line"/>
      <point x="159" y="516" type="line"/>
      <point x="164" y="540" type="line"/>
      <point x="363" y="527" type="line"/>
      <point x="280" y="695" type="line"/>
      <point x="303" y="706" type="line"/>
      <point x="363" y="527" type="line"/>
      <point x="487" y="709" type="line"/>
      <point x="508" y="696" type="line"/>
      <point x="363" y="527" type="line"/>
      <point x="565" y="540" type="line"/>
      <point x="560" y="516" type="line"/>
      <point x="363" y="527" type="line"/>
      <point x="442" y="361" type="line"/>
      <point x="418" y="349" type="line"/>
      <point x="363" y="527" type="line"/>
      <point x="230" y="355" type="line"/>
    </contour>
  </outline>
</glyph>
<glyph name="plus" format="2">
  <advance width="724.0"/>
  <unicode hex="002B"/>
  <outline>
    <contour>
      <point x="60" y="290" type="line"/>
      <point x="64" y="310" type="line"/>
      <point x="354" y="310" type="line"/>
      <point x="410" y="600" type="line"/>
      <point x="430" y="600" type="line"/>
      <point x="374" y="310" type="line"/>
      <point x="664" y="310" type="line"/>
      <point x="660" y="290" type="line"/>
      <point x="370" y="290" type="line"/>
      <point x="314" y="0" type="line"/>
      <point x="294" y="0" type="line"/>
      <point x="350" y="290" type="line"/>
    </contour>
  </outline>
</glyph>
<glyph name="comma" format="2">
  <advance width="275.0"/>
  <unicode hex="002C"/>
  <outline>
    <contour>
      <point x="11" y="-127" type="line"/>
      <point x="140" y="123" type="line"/>
      <point x="170" y="123" type="line"/>
      <point x="21" y="-127" type="line"/>
    </contour>
  </outline>
</glyph>
<glyph name="hyphen" format="2">
  <advance width="405.0"/>
  <unicode hex="002D"/>
  <outline>
    <contour>
      <point x="81" y="234" type="line"/>
      <point x="85" y="254" type="line"/>
      <point x="325" y="254" type="line"/>
      <point x="321" y="234" type="line"/>
    </contour>
  </outline>
</glyph>
<glyph name="period" format="2">
  <advance width="206.0"/>
  <unicode hex="002E"/>
  <outline>
    <contour>
      <point x="80" y="0" type="line"/>
      <point x="104" y="123" type="line"/>
      <point x="126" y="123" type="line"/>
      <point x="102" y="0" type="line"/>
    </contour>
  </outline>
</glyph>
<glyph name="slash" format="2">
  <advance width="396.0"/>
  <unicode hex="002F"/>
  <outline>
    <contour>
      <point x="-36" y="-52" type="line"/>
      <point x="354" y="736" type="line"/>
      <point x="375" y="736" type="line"/>
      <point x="-14" y="-52" type="line"/>
    </contour>
  </outline>
</glyph>
<glyph name="zero" format="2">
  <advance width="558.0"/>
  <unicode hex="0030"/>
  <outline>
    <contour>
      <point x="36" y="218" type="qcurve" smooth="yes"/>
      <point x="36" y="276"/>
      <point x="56" y="414"/>
      <point x="100" y="550"/>
      <point x="172" y="663"/>
      <point x="277" y="732"/>
      <point x="348" y="732" type="qcurve" smooth="yes"/>
      <point x="416" y="732"/>
      <point x="494" y="674"/>
      <point x="527" y="576"/>
      <point x="527" y="516" type="qcurve" smooth="yes"/>
      <point x="527" y="460"/>
      <point x="505" y="320"/>
      <point x="459" y="180"/>
      <point x="385" y="62"/>
      <point x="281" y="-10"/>
      <point x="212" y="-10" type="qcurve" smooth="yes"/>
      <point x="144" y="-10"/>
      <point x="67" y="53"/>
      <point x="36" y="156"/>
    </contour>
    <contour>
      <point x="57" y="226" type="qcurve" smooth="yes"/>
      <point x="57" y="155"/>
      <point x="92" y="54"/>
      <point x="159" y="0"/>
      <point x="208" y="0" type="qcurve" smooth="yes"/>
      <point x="262" y="0"/>
      <point x="349" y="50"/>
      <point x="415" y="135"/>
      <point x="463" y="242"/>
      <point x="492" y="358"/>
      <point x="506" y="467"/>
      <point x="506" y="512" type="qcurve" smooth="yes"/>
      <point x="506" y="613"/>
      <point x="429" y="722"/>
      <point x="354" y="722" type="qcurve" smooth="yes"/>
      <point x="296" y="722"/>
      <point x="207" y="676"/>
      <point x="142" y="595"/>
      <point x="97" y="494"/>
      <point x="69" y="382"/>
      <point x="57" y="273"/>
    </contour>
  </outline>
</glyph>
<glyph name="one" format="2">
  <advance width="558.0"/>
  <unicode hex="0031"/>
  <outline>
    <contour>
      <point x="216" y="0" type="line"/>
      <point x="353" y="703" type="line"/>
      <point x="320" y="673"/>
      <point x="229" y="614"/>
      <point x="175" y="592" type="qcurve"/>
      <point x="177" y="602" type="line"/>
      <point x="206" y="618"/>
      <point x="278" y="664"/>
      <point x="338" y="709"/>
      <point x="349" y="722" type="qcurve"/>
      <point x="376" y="722" type="line"/>
      <point x="236" y="0" type="line"/>
    </contour>
  </outline>
</glyph>
<glyph name="two" format="2">
  <advance width="558.0"/>
  <unicode hex="0032"/>
  <outline>
    <contour>
      <point x="-11" y="0" type="line"/>
      <point x="-7" y="20" type="line"/>
      <point x="26" y="40"/>
      <point x="127" y="111"/>
      <point x="244" y="204"/>
      <point x="358" y="310"/>
      <point x="453" y="418"/>
      <point x="510" y="521"/>
      <point x="510" y="565" type="qcurve" smooth="yes"/>
      <point x="510" y="630"/>
      <point x="425" y="712"/>
      <point x="354" y="712" type="qcurve" smooth="yes"/>
      <point x="263" y="712"/>
      <point x="149" y="622"/>
      <point x="119" y="526" type="qcurve"/>
      <point x="99" y="526" type="line"/>
      <point x="118" y="596"/>
      <point x="188" y="687"/>
      <point x="289" y="732"/>
      <point x="355" y="732" type="qcurve" smooth="yes"/>
      <point x="435" y="732"/>
      <point x="531" y="645"/>
      <point x="531" y="573" type="qcurve" smooth="yes"/>
      <point x="531" y="523"/>
      <point x="476" y="416"/>
      <point x="384" y="307"/>
      <point x="271" y="204"/>
      <point x="153" y="112"/>
      <point x="47" y="38"/>
      <point x="9" y="14" type="qcurve"/>
      <point x="4" y="20" type="line"/>
      <point x="428" y="20" type="line"/>
      <point x="424" y="0" type="line"/>
    </contour>
  </outline>
</glyph>
<glyph name="three" format="2">
  <advance width="558.0"/>
  <unicode hex="0033"/>
  <outline>
    <contour>
      <point x="7" y="147" type="qcurve" smooth="yes"/>
      <point x="7" y="168"/>
      <point x="12" y="190" type="qcurve"/>
      <point x="32" y="190" type="line"/>
      <point x="28" y="170"/>
      <point x="28" y="152" type="qcurve" smooth="yes"/>
      <point x="28" y="85"/>
      <point x="126" y="10"/>
      <point x="209" y="10" type="qcurve" smooth="yes"/>
      <point x="256" y="10"/>
      <point x="347" y="41"/>
      <point x="421" y="99"/>
      <point x="464" y="182"/>
      <point x="464" y="234" type="qcurve" smooth="yes"/>
      <point x="464" y="269"/>
      <point x="430" y="329"/>
      <point x="371" y="366"/>
      <point x="334" y="366" type="qcurve" smooth="yes"/>
      <point x="210" y="366" type="line"/>
      <point x="214" y="386" type="line"/>
      <point x="326" y="386" type="line" smooth="yes"/>
      <point x="379" y="386"/>
      <point x="467" y="441"/>
      <point x="521" y="531"/>
      <point x="521" y="582" type="qcurve" smooth="yes"/>
      <point x="521" y="645"/>
      <point x="438" y="712"/>
      <point x="362" y="712" type="qcurve" smooth="yes"/>
      <point x="298" y="712"/>
      <point x="193" y="666"/>
      <point x="124" y="585"/>
      <point x="113" y="532" type="qcurve"/>
      <point x="93" y="532" type="line"/>
      <point x="105" y="591"/>
      <point x="182" y="681"/>
      <point x="297" y="732"/>
      <point x="365" y="732" type="qcurve" smooth="yes"/>
      <point x="447" y="732"/>
      <point x="541" y="657"/>
      <point x="541" y="590" type="qcurve" smooth="yes"/>
      <point x="541" y="539"/>
      <point x="499" y="453"/>
      <point x="424" y="391"/>
      <point x="375" y="377" type="qcurve"/>
      <point x="376" y="381" type="line"/>
      <point x="426" y="365"/>
      <point x="485" y="285"/>
      <point x="485" y="236" type="qcurve" smooth="yes"/>
      <point x="485" y="179"/>
      <point x="437" y="88"/>
      <point x="356" y="24"/>
      <point x="256" y="-10"/>
      <point x="204" y="-10" type="qcurve" smooth="yes"/>
      <point x="113" y="-10"/>
      <point x="7" y="73"/>
    </contour>
  </outline>
</glyph>
<glyph name="four" format="2">
  <advance width="558.0"/>
  <unicode hex="0034"/>
  <outline>
    <contour>
      <point x="14" y="176" type="line"/>
      <point x="19" y="203" type="line"/>
      <point x="480" y="722" type="line"/>
      <point x="510" y="722" type="line"/>
      <point x="370" y="0" type="line"/>
      <point x="350" y="0" type="line"/>
      <point x="489" y="714" type="line"/>
      <point x="495" y="712" type="line"/>
      <point x="29" y="186" type="line"/>
      <point x="26" y="196" type="line"/>
      <point x="403" y="196" type="line"/>
      <point x="399" y="176" type="line"/>
    </contour>
    <contour>
      <point x="389" y="176" type="line"/>
      <point x="393" y="196" type="line"/>
      <point x="497" y="196" type="line"/>
      <point x="493" y="176" type="line"/>
    </contour>
  </outline>
</glyph>
<glyph name="five" format="2">
  <advance width="558.0"/>
  <unicode hex="0035"/>
  <outline>
    <contour>
      <point x="13" y="139" type="qcurve" smooth="yes"/>
      <point x="13" y="157"/>
      <point x="17" y="176" type="qcurve"/>
      <point x="37" y="176" type="line"/>
      <point x="34" y="159"/>
      <point x="34" y="144" type="qcurve" smooth="yes"/>
      <point x="34" y="82"/>
      <point x="128" y="10"/>
      <point x="211" y="10" type="qcurve" smooth="yes"/>
      <point x="274" y="10"/>
      <point x="371" y="61"/>
      <point x="437" y="148"/>
      <point x="471" y="256"/>
      <point x="471" y="313" type="qcurve" smooth="yes"/>
      <point x="471" y="384"/>
      <point x="399" y="460"/>
      <point x="330" y="460" type="qcurve" smooth="yes"/>
      <point x="274" y="460"/>
      <point x="188" y="429"/>
      <point x="113" y="359"/>
      <point x="76" y="302" type="qcurve"/>
      <point x="66" y="302" type="line"/>
      <point x="147" y="722" type="line"/>
      <point x="531" y="722" type="line"/>
      <point x="527" y="702" type="line"/>
      <point x="151" y="702" type="line"/>
      <point x="166" y="714" type="line"/>
      <point x="92" y="336" type="line"/>
      <point x="87" y="341" type="line"/>
      <point x="129" y="410"/>
      <point x="256" y="480"/>
      <point x="337" y="480" type="qcurve" smooth="yes"/>
      <point x="408" y="480"/>
      <point x="491" y="395"/>
      <point x="491" y="316" type="qcurve" smooth="yes"/>
      <point x="491" y="255"/>
      <point x="453" y="139"/>
      <point x="381" y="45"/>
      <point x="277" y="-10"/>
      <point x="211" y="-10" type="qcurve" smooth="yes"/>
      <point x="118" y="-10"/>
      <point x="13" y="71"/>
    </contour>
  </outline>
</glyph>
<glyph name="six" format="2">
  <advance width="558.0"/>
  <unicode hex="0036"/>
  <outline>
    <contour>
      <point x="22" y="180" type="qcurve" smooth="yes"/>
      <point x="22" y="231"/>
      <point x="38" y="351"/>
      <point x="73" y="475"/>
      <point x="128" y="589"/>
      <point x="204" y="679"/>
      <point x="303" y="732"/>
      <point x="364" y="732" type="qcurve" smooth="yes"/>
      <point x="442" y="732"/>
      <point x="532" y="656"/>
      <point x="532" y="590" type="qcurve" smooth="yes"/>
      <point x="532" y="571"/>
      <point x="528" y="550" type="qcurve"/>
      <point x="508" y="550" type="line"/>
      <point x="512" y="570"/>
      <point x="512" y="589" type="qcurve" smooth="yes"/>
      <point x="512" y="647"/>
      <point x="434" y="712"/>
      <point x="363" y="712" type="qcurve" smooth="yes"/>
      <point x="303" y="712"/>
      <point x="204" y="654"/>
      <point x="125" y="542"/>
      <point x="64" y="377"/>
      <point x="44" y="269" type="qcurve"/>
      <point x="81" y="357"/>
      <point x="211" y="446"/>
      <point x="301" y="446" type="qcurve" smooth="yes"/>
      <point x="393" y="446"/>
      <point x="490" y="358"/>
      <point x="490" y="279" type="qcurve" smooth="yes"/>
      <point x="490" y="217"/>
      <point x="448" y="111"/>
      <point x="371" y="33"/>
      <point x="265" y="-10"/>
      <point x="202" y="-10" type="qcurve" smooth="yes"/>
      <point x="141" y="-10"/>
      <point x="61" y="31"/>
      <point x="22" y="115"/>
    </contour>
    <contour>
      <point x="43" y="161" type="qcurve" smooth="yes"/>
      <point x="43" y="91"/>
      <point x="128" y="10"/>
      <point x="211" y="10" type="qcurve" smooth="yes"/>
      <point x="288" y="10"/>
      <point x="405" y="82"/>
      <point x="470" y="204"/>
      <point x="470" y="278" type="qcurve" smooth="yes"/>
      <point x="470" y="349"/>
      <point x="384" y="426"/>
      <point x="303" y="426" type="qcurve" smooth="yes"/>
      <point x="226" y="426"/>
      <point x="109" y="356"/>
      <point x="43" y="236"/>
    </contour>
  </outline>
</glyph>
<glyph name="seven" format="2">
  <advance width="558.0"/>
  <unicode hex="0037"/>
  <outline>
    <contour>
      <point x="85" y="0" type="line"/>
      <point x="554" y="713" type="line"/>
      <point x="559" y="702" type="line"/>
      <point x="123" y="702" type="line"/>
      <point x="127" y="722" type="line"/>
      <point x="572" y="722" type="line"/>
      <point x="568" y="700" type="line"/>
      <point x="107" y="0" type="line"/>
    </contour>
  </outline>
</glyph>
<glyph name="eight" format="2">
  <advance width="558.0"/>
  <unicode hex="0038"/>
  <outline>
    <contour>
      <point x="21" y="148" type="qcurve" smooth="yes"/>
      <point x="21" y="83"/>
      <point x="116" y="10"/>
      <point x="208" y="10" type="qcurve" smooth="yes"/>
      <point x="275" y="10"/>
      <point x="392" y="60"/>
      <point x="465" y="159"/>
      <point x="465" y="231" type="qcurve" smooth="yes"/>
      <point x="465" y="295"/>
      <point x="362" y="373"/>
      <point x="272" y="373" type="qcurve" smooth="yes"/>
      <point x="204" y="373"/>
      <point x="90" y="320"/>
      <point x="21" y="220"/>
    </contour>
    <contour>
      <point x="115" y="517" type="qcurve" smooth="yes"/>
      <point x="115" y="460"/>
      <point x="198" y="393"/>
      <point x="276" y="393" type="qcurve" smooth="yes"/>
      <point x="318" y="393"/>
      <point x="402" y="418"/>
      <point x="472" y="466"/>
      <point x="515" y="538"/>
      <point x="515" y="585" type="qcurve" smooth="yes"/>
      <point x="515" y="643"/>
      <point x="423" y="712"/>
      <point x="344" y="712" type="qcurve" smooth="yes"/>
      <point x="286" y="712"/>
      <point x="181" y="667"/>
      <point x="115" y="579"/>
    </contour>
    <contour>
      <point x="1" y="145" type="qcurve" smooth="yes"/>
      <point x="1" y="206"/>
      <point x="53" y="302"/>
      <point x="143" y="368"/>
      <point x="199" y="383" type="qcurve"/>
      <point x="145" y="402"/>
      <point x="95" y="473"/>
      <point x="95" y="517" type="qcurve" smooth="yes"/>
      <point x="95" y="568"/>
      <point x="138" y="648"/>
      <point x="212" y="703"/>
      <point x="303" y="732"/>
      <point x="349" y="732" type="qcurve" smooth="yes"/>
      <point x="433" y="732"/>
      <point x="534" y="654"/>
      <point x="534" y="586" type="qcurve" smooth="yes"/>
      <point x="534" y="531"/>
      <point x="485" y="452"/>
      <point x="403" y="400"/>
      <point x="354" y="384" type="qcurve"/>
      <point x="416" y="366"/>
      <point x="484" y="288"/>
      <point x="484" y="230" type="qcurve" smooth="yes"/>
      <point x="484" y="171"/>
      <point x="437" y="82"/>
      <point x="358" y="21"/>
      <point x="257" y="-10"/>
      <point x="203" y="-10" type="qcurve" smooth="yes"/>
      <point x="108" y="-10"/>
      <point x="1" y="72"/>
    </contour>
  </outline>
</glyph>
<glyph name="nine" format="2">
  <advance width="558.0"/>
  <unicode hex="0039"/>
  <outline>
    <contour>
      <point x="24" y="124" type="qcurve" smooth="yes"/>
      <point x="24" y="147"/>
      <point x="29" y="172" type="qcurve"/>
      <point x="49" y="172" type="line"/>
      <point x="45" y="149"/>
      <point x="45" y="128" type="qcurve" smooth="yes"/>
      <point x="45" y="70"/>
      <point x="121" y="10"/>
      <point x="195" y="10" type="qcurve" smooth="yes"/>
      <point x="240" y="10"/>
      <point x="319" y="42"/>
      <point x="387" y="108"/>
      <point x="444" y="209"/>
      <point x="489" y="346"/>
      <point x="506" y="434" type="qcurve"/>
      <point x="487" y="387"/>
      <point x="408" y="317"/>
      <point x="305" y="278"/>
      <point x="247" y="278" type="qcurve" smooth="yes"/>
      <point x="190" y="278"/>
      <point x="110" y="317"/>
      <point x="69" y="392"/>
      <point x="69" y="444" type="qcurve" smooth="yes"/>
      <point x="69" y="506"/>
      <point x="108" y="611"/>
      <point x="181" y="689"/>
      <point x="284" y="732"/>
      <point x="349" y="732" type="qcurve" smooth="yes"/>
      <point x="412" y="732"/>
      <point x="497" y="692"/>
      <point x="540" y="612"/>
      <point x="540" y="551" type="qcurve" smooth="yes"/>
      <point x="540" y="501"/>
      <point x="522" y="379"/>
      <point x="484" y="253"/>
      <point x="425" y="136"/>
      <point x="346" y="44"/>
      <point x="245" y="-10"/>
      <point x="183" y="-10" type="qcurve" smooth="yes"/>
      <point x="105" y="-10"/>
      <point x="24" y="60"/>
    </contour>
    <contour>
      <point x="88" y="443" type="qcurve" smooth="yes"/>
      <point x="88" y="372"/>
      <point x="175" y="298"/>
      <point x="263" y="298" type="qcurve" smooth="yes"/>
      <point x="337" y="298"/>
      <point x="454" y="369"/>
      <point x="520" y="489"/>
      <point x="520" y="562" type="qcurve" smooth="yes"/>
      <point x="520" y="634"/>
      <point x="429" y="712"/>
      <point x="343" y="712" type="qcurve" smooth="yes"/>
      <point x="264" y="712"/>
      <point x="149" y="641"/>
      <point x="88" y="520"/>
    </contour>
  </outline>
</glyph>
<glyph name="colon" format="2">
  <advance width="280.0"/>
  <unicode hex="003A"/>
  <outline>
    <contour>
      <point x="80" y="0" type="line"/>
      <point x="104" y="123" type="line"/>
      <point x="126" y="123" type="line"/>
      <point x="102" y="0" type="line"/>
    </contour>
    <contour>
      <point x="154" y="377" type="line"/>
      <point x="178" y="500" type="line"/>
      <point x="200" y="500" type="line"/>
      <point x="176" y="377" type="line"/>
    </contour>
  </outline>
</glyph>
<glyph name="semicolon" format="2">
  <advance width="275.0"/>
  <unicode hex="003B"/>
  <outline>
    <contour>
      <point x="-75" y="-127" type="line"/>
      <point x="53" y="123" type="line"/>
      <point x="83" y="123" type="line"/>
      <point x="-65" y="-127" type="line"/>
    </contour>
    <contour>
      <point x="105" y="377" type="line"/>
      <point x="129" y="500" type="line"/>
      <point x="151" y="500" type="line"/>
      <point x="127" y="377" type="line"/>
    </contour>
  </outline>
</glyph>
<glyph name="less" format="2">
  <advance width="750.0"/>
  <unicode hex="003C"/>
  <outline>
    <contour>
      <point x="51" y="289" type="line"/>
      <point x="55" y="311" type="line"/>
      <point x="700" y="541" type="line"/>
      <point x="695" y="520" type="line"/>
      <point x="70" y="296" type="line"/>
      <point x="71" y="304" type="line"/>
      <point x="610" y="80" type="line"/>
      <point x="606" y="59" type="line"/>
    </contour>
  </outline>
</glyph>
<glyph name="equal" format="2">
  <advance width="700.0"/>
  <unicode hex="003D"/>
  <outline>
    <contour>
      <point x="50" y="199" type="line"/>
      <point x="54" y="219" type="line"/>
      <point x="654" y="219" type="line"/>
      <point x="650" y="199" type="line"/>
    </contour>
    <contour>
      <point x="85" y="381" type="line"/>
      <point x="89" y="401" type="line"/>
      <point x="689" y="401" type="line"/>
      <point x="685" y="381" type="line"/>
    </contour>
  </outline>
</glyph>
<glyph name="greater" format="2">
  <advance width="700.0"/>
  <unicode hex="003E"/>
  <outline>
    <contour>
      <point x="9" y="59" type="line"/>
      <point x="13" y="80" type="line"/>
      <point x="639" y="304" type="line"/>
      <point x="637" y="296" type="line"/>
      <point x="98" y="520" type="line"/>
      <point x="103" y="541" type="line"/>
      <point x="658" y="311" type="line"/>
      <point x="654" y="289" type="line"/>
    </contour>
  </outline>
</glyph>
<glyph name="question" format="2">
  <advance width="516.0"/>
  <unicode hex="003F"/>
  <outline>
    <contour>
      <point x="136" y="0" type="line"/>
      <point x="160" y="123" type="line"/>
      <point x="182" y="123" type="line"/>
      <point x="158" y="0" type="line"/>
    </contour>
    <contour>
      <point x="175" y="195" type="line"/>
      <point x="188" y="263" type="line" smooth="yes"/>
      <point x="198" y="312"/>
      <point x="242" y="375"/>
      <point x="300" y="417"/>
      <point x="359" y="452"/>
      <point x="410" y="492"/>
      <point x="441" y="553"/>
      <point x="441" y="600" type="qcurve" smooth="yes"/>
      <point x="441" y="657"/>
      <point x="371" y="717"/>
      <point x="304" y="717" type="qcurve" smooth="yes"/>
      <point x="256" y="717"/>
      <point x="179" y="681"/>
      <point x="118" y="623"/>
      <point x="94" y="589" type="qcurve"/>
      <point x="80" y="599" type="line"/>
      <point x="125" y="663"/>
      <point x="235" y="737"/>
      <point x="307" y="737" type="qcurve" smooth="yes"/>
      <point x="380" y="737"/>
      <point x="461" y="669"/>
      <point x="461" y="603" type="qcurve" smooth="yes"/>
      <point x="461" y="552"/>
      <point x="429" y="487"/>
      <point x="378" y="442"/>
      <point x="318" y="407"/>
      <point x="261" y="366"/>
      <point x="217" y="308"/>
      <point x="208" y="263" type="qcurve" smooth="yes"/>
      <point x="195" y="195" type="line"/>
    </contour>
  </outline>
</glyph>
<glyph name="at" format="2">
  <advance width="1000.0"/>
  <unicode hex="0040"/>
  <outline>
    <contour>
      <point x="73" y="165" type="qcurve" smooth="yes"/>
      <point x="73" y="249"/>
      <point x="117" y="403"/>
      <point x="201" y="532"/>
      <point x="320" y="628"/>
      <point x="470" y="681"/>
      <point x="558" y="681" type="qcurve" smooth="yes"/>
      <point x="670" y="681"/>
      <point x="823" y="614"/>
      <point x="903" y="486"/>
      <point x="903" y="394" type="qcurve" smooth="yes"/>
      <point x="903" y="357"/>
      <point x="888" y="259"/>
      <point x="857" y="159"/>
      <point x="807" y="74"/>
      <point x="739" y="21"/>
      <point x="694" y="21" type="qcurve" smooth="yes"/>
      <point x="651" y="21"/>
      <point x="604" y="63"/>
      <point x="591" y="131"/>
      <point x="598" y="170" type="qcurve"/>
      <point x="580" y="131"/>
      <point x="519" y="65"/>
      <point x="446" y="26"/>
      <point x="410" y="26" type="qcurve" smooth="yes"/>
      <point x="364" y="26"/>
      <point x="295" y="68"/>
      <point x="257" y="146"/>
      <point x="257" y="200" type="qcurve" smooth="yes"/>
      <point x="257" y="251"/>
      <point x="292" y="354"/>
      <point x="357" y="440"/>
      <point x="447" y="492"/>
      <point x="503" y="492" type="qcurve" smooth="yes"/>
      <point x="541" y="492"/>
      <point x="602" y="464"/>
      <point x="639" y="415"/>
      <point x="640" y="383" type="qcurve"/>
      <point x="660" y="485" type="line"/>
      <point x="680" y="485" type="line"/>
      <point x="618" y="167" type="line"/>
      <point x="616" y="153"/>
      <point x="616" y="139" type="qcurve" smooth="yes"/>
      <point x="616" y="89"/>
      <point x="657" y="41"/>
      <point x="700" y="41" type="qcurve" smooth="yes"/>
      <point x="737" y="41"/>
      <point x="796" y="91"/>
      <point x="839" y="171"/>
      <point x="868" y="264"/>
      <point x="882" y="352"/>
      <point x="882" y="384" type="qcurve" smooth="yes"/>
      <point x="882" y="513"/>
      <point x="714" y="661"/>
      <point x="562" y="661" type="qcurve" smooth="yes"/>
      <point x="457" y="661"/>
      <point x="284" y="585"/>
      <point x="160" y="451"/>
      <point x="94" y="273"/>
      <point x="94" y="172" type="qcurve" smooth="yes"/>
      <point x="94" y="77"/>
      <point x="172" y="-55"/>
      <point x="319" y="-123"/>
      <point x="421" y="-123" type="qcurve" smooth="yes"/>
      <point x="456" y="-123"/>
      <point x="513" y="-113"/>
      <point x="569" y="-90"/>
      <point x="601" y="-71" type="qcurve"/>
      <point x="598" y="-89" type="line"/>
      <point x="571" y="-106"/>
      <point x="512" y="-130"/>
      <point x="451" y="-143"/>
      <point x="422" y="-143" type="qcurve" smooth="yes"/>
      <point x="312" y="-143"/>
      <point x="156" y="-72"/>
      <point x="73" y="65"/>
    </contour>
    <contour>
      <point x="277" y="204" type="qcurve" smooth="yes"/>
      <point x="277" y="131"/>
      <point x="352" y="46"/>
      <point x="420" y="46" type="qcurve" smooth="yes"/>
      <point x="464" y="46"/>
      <point x="539" y="105"/>
      <point x="594" y="197"/>
      <point x="625" y="296"/>
      <point x="625" y="336" type="qcurve" smooth="yes"/>
      <point x="625" y="402"/>
      <point x="561" y="472"/>
      <point x="502" y="472" type="qcurve" smooth="yes"/>
      <point x="451" y="472"/>
      <point x="369" y="424"/>
      <point x="309" y="345"/>
      <point x="277" y="251"/>
    </contour>
  </outline>
</glyph>
<glyph name="A" format="2">
  <advance width="707.0"/>
  <unicode hex="0041"/>
  <outline>
    <contour>
      <point x="41" y="0" type="line"/>
      <point x="484" y="722" type="line"/>
      <point x="504" y="722" type="line"/>
      <point x="667" y="0" type="line"/>
      <point x="644" y="0" type="line"/>
      <point x="490" y="702" type="line"/>
      <point x="64" y="0" type="line"/>
    </contour>
    <contour>
      <point x="194" y="230" type="line"/>
      <point x="205" y="248" type="line"/>
      <point x="600" y="248" type="line"/>
      <point x="604" y="230" type="line"/>
    </contour>
  </outline>
</glyph>
<glyph name="B" format="2">
  <advance width="625.0"/>
  <unicode hex="0042"/>
  <outline>
    <contour>
      <point x="71" y="0" type="line"/>
      <point x="75" y="20" type="line"/>
      <point x="294" y="20" type="line" smooth="yes"/>
      <point x="359" y="20"/>
      <point x="461" y="80"/>
      <point x="518" y="183"/>
      <point x="518" y="248" type="qcurve" smooth="yes"/>
      <point x="518" y="280"/>
      <point x="491" y="336"/>
      <point x="432" y="370"/>
      <point x="382" y="370" type="qcurve" smooth="yes"/>
      <point x="143" y="370" type="line"/>
      <point x="147" y="390" type="line"/>
      <point x="385" y="390" type="line" smooth="yes"/>
      <point x="439" y="390"/>
      <point x="517" y="448"/>
      <point x="558" y="537"/>
      <point x="558" y="585" type="qcurve" smooth="yes"/>
      <point x="558" y="642"/>
      <point x="490" y="702"/>
      <point x="414" y="702" type="qcurve" smooth="yes"/>
      <point x="207" y="702" type="line"/>
      <point x="211" y="722" type="line"/>
      <point x="422" y="722" type="line" smooth="yes"/>
      <point x="501" y="722"/>
      <point x="580" y="655"/>
      <point x="580" y="585" type="qcurve" smooth="yes"/>
      <point x="580" y="544"/>
      <point x="551" y="460"/>
      <point x="487" y="394"/>
      <point x="434" y="378" type="qcurve"/>
      <point x="446" y="387" type="line"/>
      <point x="446" y="373" type="line"/>
      <point x="434" y="383" type="line"/>
      <point x="468" y="375"/>
      <point x="515" y="340"/>
      <point x="540" y="288"/>
      <point x="540" y="255" type="qcurve" smooth="yes"/>
      <point x="540" y="185"/>
      <point x="480" y="69"/>
      <point x="371" y="0"/>
      <point x="298" y="0" type="qcurve" smooth="yes"/>
    </contour>
    <contour>
      <point x="60" y="0" type="line"/>
      <point x="200" y="722" type="line"/>
      <point x="222" y="722" type="line"/>
      <point x="82" y="0" type="line"/>
    </contour>
  </outline>
</glyph>
<glyph name="C" format="2">
  <advance width="674.0"/>
  <unicode hex="0043"/>
  <outline>
    <contour>
      <point x="60" y="233" type="qcurve" smooth="yes"/>
      <point x="60" y="303"/>
      <point x="88" y="445"/>
      <point x="146" y="574"/>
      <point x="237" y="674"/>
      <point x="365" y="732"/>
      <point x="448" y="732" type="qcurve" smooth="yes"/>
      <point x="545" y="732"/>
      <point x="656" y="648"/>
      <point x="656" y="573" type="qcurve" smooth="yes"/>
      <point x="656" y="561"/>
      <point x="653" y="537"/>
      <point x="651" y="525" type="qcurve"/>
      <point x="631" y="525" type="line"/>
      <point x="633" y="536"/>
      <point x="635" y="555"/>
      <point x="635" y="562" type="qcurve" smooth="yes"/>
      <point x="635" y="629"/>
      <point x="539" y="712"/>
      <point x="445" y="712" type="qcurve" smooth="yes"/>
      <point x="369" y="712"/>
      <point x="251" y="656"/>
      <point x="164" y="561"/>
      <point x="109" y="439"/>
      <point x="82" y="307"/>
      <point x="82" y="242" type="qcurve" smooth="yes"/>
      <point x="82" y="173"/>
      <point x="127" y="69"/>
      <point x="228" y="10"/>
      <point x="310" y="10" type="qcurve" smooth="yes"/>
      <point x="417" y="10"/>
      <point x="554" y="110"/>
      <point x="571" y="197" type="qcurve"/>
      <point x="591" y="197" type="line"/>
      <point x="578" y="132"/>
      <point x="501" y="39"/>
      <point x="381" y="-10"/>
      <point x="302" y="-10" type="qcurve" smooth="yes"/>
      <point x="214" y="-10"/>
      <point x="108" y="50"/>
      <point x="60" y="160"/>
    </contour>
  </outline>
</glyph>
<glyph name="D" format="2">
  <advance width="708.0"/>
  <unicode hex="0044"/>
  <outline>
    <contour>
      <point x="60" y="0" type="line"/>
      <point x="200" y="722" type="line"/>
      <point x="222" y="722" type="line"/>
      <point x="82" y="0" type="line"/>
    </contour>
    <contour>
      <point x="70" y="0" type="line"/>
      <point x="74" y="20" type="line"/>
      <point x="294" y="20" type="line" smooth="yes"/>
      <point x="356" y="20"/>
      <point x="459" y="76"/>
      <point x="540" y="170"/>
      <point x="595" y="287"/>
      <point x="624" y="410"/>
      <point x="624" y="465" type="qcurve" smooth="yes"/>
      <point x="624" y="573"/>
      <point x="517" y="702"/>
      <point x="416" y="702" type="qcurve" smooth="yes"/>
      <point x="206" y="702" type="line"/>
      <point x="210" y="722" type="line"/>
      <point x="428" y="722" type="line" smooth="yes"/>
      <point x="496" y="722"/>
      <point x="594" y="664"/>
      <point x="647" y="550"/>
      <point x="647" y="467" type="qcurve" smooth="yes"/>
      <point x="647" y="405"/>
      <point x="617" y="275"/>
      <point x="557" y="153"/>
      <point x="467" y="57"/>
      <point x="350" y="0"/>
      <point x="278" y="0" type="qcurve" smooth="yes"/>
    </contour>
  </outline>
</glyph>
<glyph name="E" format="2">
  <advance width="549.0"/>
  <unicode hex="0045"/>
  <outline>
    <contour>
      <point x="61" y="0" type="line"/>
      <point x="64" y="18" type="line"/>
      <point x="422" y="18" type="line"/>
      <point x="419" y="0" type="line"/>
    </contour>
    <contour>
      <point x="60" y="0" type="line"/>
      <point x="200" y="722" type="line"/>
      <point x="222" y="722" type="line"/>
      <point x="82" y="0" type="line"/>
    </contour>
    <contour>
      <point x="130" y="358" type="line"/>
      <point x="134" y="378" type="line"/>
      <point x="472" y="378" type="line"/>
      <point x="468" y="358" type="line"/>
    </contour>
    <contour>
      <point x="198" y="704" type="line"/>
      <point x="201" y="722" type="line"/>
      <point x="549" y="722" type="line"/>
      <point x="546" y="704" type="line"/>
    </contour>
  </outline>
</glyph>
<glyph name="F" format="2">
  <advance width="549.0"/>
  <unicode hex="0046"/>
  <outline>
    <contour>
      <point x="60" y="0" type="line"/>
      <point x="200" y="722" type="line"/>
      <point x="222" y="722" type="line"/>
      <point x="82" y="0" type="line"/>
    </contour>
    <contour>
      <point x="129" y="358" type="line"/>
      <point x="133" y="378" type="line"/>
      <point x="471" y="378" type="line"/>
      <point x="467" y="358" type="line"/>
    </contour>
    <contour>
      <point x="198" y="704" type="line"/>
      <point x="201" y="722" type="line"/>
      <point x="549" y="722" type="line"/>
      <point x="546" y="704" type="line"/>
    </contour>
  </outline>
</glyph>
<glyph name="G" format="2">
  <advance width="743.0"/>
  <unicode hex="0047"/>
  <outline>
    <contour>
      <point x="60" y="233" type="qcurve" smooth="yes"/>
      <point x="60" y="303"/>
      <point x="88" y="445"/>
      <point x="147" y="574"/>
      <point x="240" y="674"/>
      <point x="369" y="732"/>
      <point x="453" y="732" type="qcurve" smooth="yes"/>
      <point x="523" y="732"/>
      <point x="626" y="690"/>
      <point x="683" y="615"/>
      <point x="683" y="563" type="qcurve" smooth="yes"/>
      <point x="683" y="545"/>
      <point x="679" y="525" type="qcurve"/>
      <point x="657" y="525" type="line"/>
      <point x="660" y="542"/>
      <point x="660" y="557" type="qcurve" smooth="yes"/>
      <point x="660" y="604"/>
      <point x="607" y="673"/>
      <point x="512" y="712"/>
      <point x="448" y="712" type="qcurve" smooth="yes"/>
      <point x="372" y="712"/>
      <point x="252" y="657"/>
      <point x="166" y="561"/>
      <point x="110" y="440"/>
      <point x="83" y="307"/>
      <point x="83" y="242" type="qcurve" smooth="yes"/>
      <point x="83" y="173"/>
      <point x="128" y="69"/>
      <point x="225" y="10"/>
      <point x="304" y="10" type="qcurve" smooth="yes"/>
      <point x="359" y="10"/>
      <point x="450" y="17"/>
      <point x="526" y="32"/>
      <point x="559" y="43" type="qcurve"/>
      <point x="610" y="306" type="line"/>
      <point x="367" y="306" type="line"/>
      <point x="371" y="326" type="line"/>
      <point x="636" y="326" type="line"/>
      <point x="579" y="31" type="line"/>
      <point x="547" y="18"/>
      <point x="462" y="-1"/>
      <point x="359" y="-10"/>
      <point x="300" y="-10" type="qcurve" smooth="yes"/>
      <point x="214" y="-10"/>
      <point x="108" y="50"/>
      <point x="60" y="159"/>
    </contour>
  </outline>
</glyph>
<glyph name="H" format="2">
  <advance width="742.0"/>
  <unicode hex="0048"/>
  <outline>
    <contour>
      <point x="143" y="361" type="line"/>
      <point x="147" y="379" type="line"/>
      <point x="604" y="379" type="line"/>
      <point x="600" y="361" type="line"/>
    </contour>
    <contour>
      <point x="60" y="0" type="line"/>
      <point x="200" y="722" type="line"/>
      <point x="222" y="722" type="line"/>
      <point x="82" y="0" type="line"/>
    </contour>
    <contour>
      <point x="520" y="0" type="line"/>
      <point x="660" y="722" type="line"/>
      <point x="682" y="722" type="line"/>
      <point x="542" y="0" type="line"/>
    </contour>
  </outline>
</glyph>
<glyph name="I" format="2">
  <advance width="282.0"/>
  <unicode hex="0049"/>
  <outline>
    <contour>
      <point x="60" y="0" type="line"/>
      <point x="200" y="722" type="line"/>
      <point x="222" y="722" type="line"/>
      <point x="82" y="0" type="line"/>
    </contour>
  </outline>
</glyph>
<glyph name="J" format="2">
  <advance width="491.0"/>
  <unicode hex="004A"/>
  <outline>
    <contour>
      <point x="41" y="123" type="qcurve" smooth="yes"/>
      <point x="41" y="147"/>
      <point x="46" y="174" type="qcurve"/>
      <point x="66" y="174" type="line"/>
      <point x="61" y="152"/>
      <point x="61" y="132" type="qcurve" smooth="yes"/>
      <point x="61" y="71"/>
      <point x="129" y="6"/>
      <point x="174" y="6" type="qcurve" smooth="yes"/>
      <point x="238" y="6"/>
      <point x="335" y="74"/>
      <point x="352" y="162" type="qcurve" smooth="yes"/>
      <point x="461" y="722" type="line"/>
      <point x="483" y="722" type="line"/>
      <point x="374" y="162" type="line" smooth="yes"/>
      <point x="362" y="99"/>
      <point x="302" y="21"/>
      <point x="219" y="-14"/>
      <point x="174" y="-14" type="qcurve" smooth="yes"/>
      <point x="118" y="-14"/>
      <point x="41" y="55"/>
    </contour>
  </outline>
</glyph>
<glyph name="K" format="2">
  <advance width="528.0"/>
  <unicode hex="004B"/>
  <outline>
    <contour>
      <point x="60" y="0" type="line"/>
      <point x="200" y="722" type="line"/>
      <point x="222" y="722" type="line"/>
      <point x="82" y="0" type="line"/>
    </contour>
    <contour>
      <point x="159" y="398" type="line"/>
      <point x="536" y="722" type="line"/>
      <point x="567" y="722" type="line"/>
      <point x="184" y="394" type="line"/>
      <point x="183" y="408" type="line"/>
      <point x="453" y="0" type="line"/>
      <point x="424" y="0" type="line"/>
    </contour>
  </outline>
</glyph>
<glyph name="L" format="2">
  <advance width="474.0"/>
  <unicode hex="004C"/>
  <outline>
    <contour>
      <point x="62" y="0" type="line"/>
      <point x="65" y="18" type="line"/>
      <point x="423" y="18" type="line"/>
      <point x="420" y="0" type="line"/>
    </contour>
    <contour>
      <point x="60" y="0" type="line"/>
      <point x="200" y="722" type="line"/>
      <point x="222" y="722" type="line"/>
      <point x="82" y="0" type="line"/>
    </contour>
  </outline>
</glyph>
<glyph name="M" format="2">
  <advance width="846.0"/>
  <unicode hex="004D"/>
  <outline>
    <contour>
      <point x="61" y="0" type="line"/>
      <point x="201" y="722" type="line"/>
      <point x="223" y="722" type="line"/>
      <point x="83" y="0" type="line"/>
    </contour>
    <contour>
      <point x="623" y="0" type="line"/>
      <point x="763" y="722" type="line"/>
      <point x="785" y="722" type="line"/>
      <point x="645" y="0" type="line"/>
    </contour>
    <contour>
      <point x="343" y="0" type="line"/>
      <point x="213" y="722" type="line"/>
      <point x="233" y="722" type="line"/>
      <point x="363" y="26" type="line"/>
      <point x="353" y="26" type="line"/>
      <point x="753" y="722" type="line"/>
      <point x="773" y="722" type="line"/>
      <point x="363" y="0" type="line"/>
    </contour>
  </outline>
</glyph>
<glyph name="N" format="2">
  <advance width="782.0"/>
  <unicode hex="004E"/>
  <outline>
    <contour>
      <point x="213" y="722" type="line"/>
      <point x="235" y="722" type="line"/>
      <point x="568" y="0" type="line"/>
      <point x="546" y="0" type="line"/>
    </contour>
    <contour>
      <point x="61" y="0" type="line"/>
      <point x="201" y="722" type="line"/>
      <point x="223" y="722" type="line"/>
      <point x="83" y="0" type="line"/>
    </contour>
    <contour>
      <point x="559" y="0" type="line"/>
      <point x="699" y="722" type="line"/>
      <point x="721" y="722" type="line"/>
      <point x="581" y="0" type="line"/>
    </contour>
  </outline>
</glyph>
<glyph name="O" format="2">
  <advance width="742.0"/>
  <unicode hex="004F"/>
  <outline>
    <contour>
      <point x="60" y="233" type="qcurve" smooth="yes"/>
      <point x="60" y="344"/>
      <point x="116" y="527"/>
      <point x="220" y="660"/>
      <point x="362" y="732"/>
      <point x="448" y="732" type="qcurve" smooth="yes"/>
      <point x="564" y="732"/>
      <point x="682" y="609"/>
      <point x="682" y="489" type="qcurve" smooth="yes"/>
      <point x="682" y="379"/>
      <point x="626" y="196"/>
      <point x="524" y="63"/>
      <point x="384" y="-10"/>
      <point x="299" y="-10" type="qcurve" smooth="yes"/>
      <point x="227" y="-10"/>
      <point x="120" y="51"/>
      <point x="60" y="160"/>
    </contour>
    <contour>
      <point x="82" y="242" type="qcurve" smooth="yes"/>
      <point x="82" y="172"/>
      <point x="137" y="68"/>
      <point x="237" y="10"/>
      <point x="303" y="10" type="qcurve" smooth="yes"/>
      <point x="380" y="10"/>
      <point x="511" y="80"/>
      <point x="607" y="206"/>
      <point x="660" y="378"/>
      <point x="660" y="479" type="qcurve" smooth="yes"/>
      <point x="660" y="593"/>
      <point x="549" y="712"/>
      <point x="443" y="712" type="qcurve" smooth="yes"/>
      <point x="365" y="712"/>
      <point x="233" y="642"/>
      <point x="135" y="515"/>
      <point x="82" y="344"/>
    </contour>
  </outline>
</glyph>
<glyph name="P" format="2">
  <advance width="711.0"/>
  <unicode hex="0050"/>
  <outline>
    <contour>
      <point x="131" y="306" type="line"/>
      <point x="135" y="326" type="line"/>
      <point x="361" y="326" type="line" smooth="yes"/>
      <point x="448" y="326"/>
      <point x="567" y="381"/>
      <point x="627" y="488"/>
      <point x="627" y="567" type="qcurve" smooth="yes"/>
      <point x="627" y="636"/>
      <point x="533" y="702"/>
      <point x="434" y="702" type="qcurve" smooth="yes"/>
      <point x="208" y="702" type="line"/>
      <point x="199" y="712" type="line"/>
      <point x="201" y="722" type="line"/>
      <point x="425" y="722" type="line" smooth="yes"/>
      <point x="504" y="722"/>
      <point x="603" y="691"/>
      <point x="650" y="627"/>
      <point x="650" y="576" type="qcurve" smooth="yes"/>
      <point x="650" y="486"/>
      <point x="582" y="366"/>
      <point x="446" y="306"/>
      <point x="344" y="306" type="qcurve" smooth="yes"/>
    </contour>
    <contour>
      <point x="61" y="0" type="line"/>
      <point x="201" y="722" type="line"/>
      <point x="213" y="722" type="line"/>
      <point x="221" y="712" type="line"/>
      <point x="83" y="0" type="line"/>
    </contour>
  </outline>
</glyph>
<glyph name="R" format="2">
  <advance width="712.0"/>
  <unicode hex="0052"/>
  <outline>
    <contour>
      <point x="142" y="361" type="line"/>
      <point x="146" y="381" type="line"/>
      <point x="432" y="381" type="line" smooth="yes"/>
      <point x="493" y="381"/>
      <point x="582" y="437"/>
      <point x="629" y="529"/>
      <point x="629" y="582" type="qcurve" smooth="yes"/>
      <point x="629" y="648"/>
      <point x="546" y="702"/>
      <point x="444" y="702" type="qcurve" smooth="yes"/>
      <point x="208" y="702" type="line"/>
      <point x="212" y="722" type="line"/>
      <point x="451" y="722" type="line" smooth="yes"/>
      <point x="505" y="722"/>
      <point x="581" y="707"/>
      <point x="629" y="674"/>
      <point x="652" y="624"/>
      <point x="652" y="589" type="qcurve" smooth="yes"/>
      <point x="652" y="538"/>
      <point x="609" y="444"/>
      <point x="530" y="377"/>
      <point x="475" y="367" type="qcurve"/>
      <point x="476" y="371" type="line"/>
      <point x="500" y="368"/>
      <point x="536" y="341"/>
      <point x="556" y="298"/>
      <point x="556" y="271" type="qcurve" smooth="yes"/>
      <point x="556" y="155" type="line" smooth="yes"/>
      <point x="556" y="112"/>
      <point x="558" y="27"/>
      <point x="560" y="0" type="qcurve"/>
      <point x="539" y="0" type="line"/>
      <point x="536" y="26"/>
      <point x="536" y="96"/>
      <point x="536" y="143" type="qcurve" smooth="yes"/>
      <point x="536" y="273" type="line" smooth="yes"/>
      <point x="536" y="299"/>
      <point x="513" y="339"/>
      <point x="471" y="361"/>
      <point x="443" y="361" type="qcurve" smooth="yes"/>
    </contour>
    <contour>
      <point x="60" y="0" type="line"/>
      <point x="200" y="722" type="line"/>
      <point x="222" y="722" type="line"/>
      <point x="82" y="0" type="line"/>
    </contour>
  </outline>
</glyph>
<glyph name="S" format="2">
  <advance width="706.0"/>
  <unicode hex="0053"/>
  <outline>
    <contour>
      <point x="61" y="173" type="qcurve" smooth="yes"/>
      <point x="61" y="195"/>
      <point x="65" y="219" type="qcurve"/>
      <point x="86" y="219" type="line"/>
      <point x="82" y="197"/>
      <point x="82" y="177" type="qcurve" smooth="yes"/>
      <point x="82" y="126"/>
      <point x="134" y="51"/>
      <point x="232" y="10"/>
      <point x="299" y="10" type="qcurve" smooth="yes"/>
      <point x="433" y="10"/>
      <point x="582" y="117"/>
      <point x="582" y="214" type="qcurve" smooth="yes"/>
      <point x="582" y="270"/>
      <point x="471" y="342"/>
      <point x="346" y="367" type="qcurve" smooth="yes"/>
      <point x="237" y="388"/>
      <point x="136" y="462"/>
      <point x="136" y="521" type="qcurve" smooth="yes"/>
      <point x="136" y="586"/>
      <point x="207" y="680"/>
      <point x="337" y="732"/>
      <point x="426" y="732" type="qcurve" smooth="yes"/>
      <point x="496" y="732"/>
      <point x="594" y="696"/>
      <point x="645" y="627"/>
      <point x="645" y="578" type="qcurve" smooth="yes"/>
      <point x="645" y="557"/>
      <point x="641" y="535" type="qcurve"/>
      <point x="621" y="535" type="line"/>
      <point x="625" y="557"/>
      <point x="625" y="577" type="qcurve" smooth="yes"/>
      <point x="625" y="645"/>
      <point x="518" y="712"/>
      <point x="410" y="712" type="qcurve" smooth="yes"/>
      <point x="336" y="712"/>
      <point x="222" y="664"/>
      <point x="157" y="577"/>
      <point x="157" y="521" type="qcurve" smooth="yes"/>
      <point x="157" y="487"/>
      <point x="204" y="436"/>
      <point x="305" y="396"/>
      <point x="388" y="379" type="qcurve" smooth="yes"/>
      <point x="460" y="364"/>
      <point x="556" y="318"/>
      <point x="605" y="257"/>
      <point x="605" y="218" type="qcurve" smooth="yes"/>
      <point x="605" y="145"/>
      <point x="530" y="43"/>
      <point x="388" y="-10"/>
      <point x="287" y="-10" type="qcurve" smooth="yes"/>
      <point x="217" y="-10"/>
      <point x="116" y="35"/>
      <point x="61" y="116"/>
    </contour>
  </outline>
</glyph>
<glyph name="U" format="2">
  <advance width="729.0"/>
  <unicode hex="0055"/>
  <outline>
    <contour>
      <point x="61" y="182" type="qcurve" smooth="yes"/>
      <point x="61" y="240"/>
      <point x="76" y="322" type="qcurve" smooth="yes"/>
      <point x="154" y="722" type="line"/>
      <point x="176" y="722" type="line"/>
      <point x="96" y="312" type="line" smooth="yes"/>
      <point x="90" y="277"/>
      <point x="83" y="216"/>
      <point x="83" y="190" type="qcurve" smooth="yes"/>
      <point x="83" y="91"/>
      <point x="180" y="8"/>
      <point x="277" y="8" type="qcurve" smooth="yes"/>
      <point x="356" y="8"/>
      <point x="469" y="65"/>
      <point x="544" y="198"/>
      <point x="566" y="312" type="qcurve" smooth="yes"/>
      <point x="646" y="722" type="line"/>
      <point x="668" y="722" type="line"/>
      <point x="590" y="322" type="line" smooth="yes"/>
      <point x="566" y="198"/>
      <point x="486" y="52"/>
      <point x="361" y="-12"/>
      <point x="271" y="-12" type="qcurve" smooth="yes"/>
      <point x="162" y="-12"/>
      <point x="61" y="79"/>
    </contour>
  </outline>
</glyph>
<glyph name="V" format="2">
  <advance width="553.0"/>
  <unicode hex="0056"/>
  <outline>
    <contour>
      <point x="177" y="0" type="line"/>
      <point x="60" y="722" type="line"/>
      <point x="80" y="722" type="line"/>
      <point x="193" y="19" type="line"/>
      <point x="186" y="19" type="line"/>
      <point x="572" y="722" type="line"/>
      <point x="592" y="722" type="line"/>
      <point x="195" y="0" type="line"/>
    </contour>
  </outline>
</glyph>
<glyph name="W" format="2">
  <advance width="820.0"/>
  <unicode hex="0057"/>
  <outline>
    <contour>
      <point x="111" y="0" type="line"/>
      <point x="60" y="722" type="line"/>
      <point x="79" y="722" type="line"/>
      <point x="130" y="19" type="line"/>
      <point x="124" y="19" type="line"/>
      <point x="448" y="722" type="line"/>
      <point x="472" y="722" type="line"/>
      <point x="521" y="19" type="line"/>
      <point x="515" y="19" type="line"/>
      <point x="840" y="722" type="line"/>
      <point x="860" y="722" type="line"/>
      <point x="526" y="0" type="line"/>
      <point x="502" y="0" type="line"/>
      <point x="453" y="703" type="line"/>
      <point x="459" y="703" type="line"/>
      <point x="135" y="0" type="line"/>
    </contour>
  </outline>
</glyph>
<glyph name="X" format="2">
  <advance width="644.0"/>
  <unicode hex="0058"/>
  <outline>
    <contour>
      <point x="121" y="722" type="line"/>
      <point x="142" y="722" type="line"/>
      <point x="493" y="0" type="line"/>
      <point x="473" y="0" type="line"/>
    </contour>
    <contour>
      <point x="-19" y="0" type="line"/>
      <point x="302" y="369" type="line"/>
      <point x="309" y="354" type="line"/>
      <point x="1" y="0" type="line"/>
    </contour>
    <contour>
      <point x="306" y="368" type="line"/>
      <point x="613" y="722" type="line"/>
      <point x="633" y="722" type="line"/>
      <point x="313" y="354" type="line"/>
    </contour>
  </outline>
</glyph>
<glyph name="Y" format="2">
  <advance width="577.0"/>
  <unicode hex="0059"/>
  <outline>
    <contour>
      <point x="247" y="256" type="line"/>
      <point x="60" y="722" type="line"/>
      <point x="80" y="722" type="line"/>
      <point x="254" y="288" type="line"/>
      <point x="596" y="722" type="line"/>
      <point x="616" y="722" type="line"/>
    </contour>
    <contour>
      <point x="187" y="0" type="line"/>
      <point x="241" y="280" type="line"/>
      <point x="263" y="280" type="line"/>
      <point x="209" y="0" type="line"/>
    </contour>
  </outline>
</glyph>
<glyph name="Z" format="2">
  <advance width="618.0"/>
  <unicode hex="005A"/>
  <outline>
    <contour>
      <point x="-49" y="0" type="line"/>
      <point x="-45" y="20" type="line"/>
      <point x="577" y="702" type="line"/>
      <point x="107" y="702" type="line"/>
      <point x="111" y="722" type="line"/>
      <point x="607" y="722" type="line"/>
      <point x="603" y="702" type="line"/>
      <point x="-18" y="20" type="line"/>
      <point x="481" y="20" type="line"/>
      <point x="477" y="0" type="line"/>
    </contour>
  </outline>
</glyph>
<glyph name="bracketleft" format="2">
  <advance width="396.0"/>
  <unicode hex="005B"/>
  <outline>
    <contour>
      <point x="-3" y="-198" type="line"/>
      <point x="176" y="722" type="line"/>
      <point x="362" y="722" type="line"/>
      <point x="358" y="702" type="line"/>
      <point x="194" y="702" type="line"/>
      <point x="23" y="-178" type="line"/>
      <point x="187" y="-178" type="line"/>
      <point x="183" y="-198" type="line"/>
    </contour>
  </outline>
</glyph>
<glyph name="backslash" format="2">
  <advance width="186.0"/>
  <unicode hex="005C"/>
  <outline>
    <contour>
      <point x="41" y="736" type="line"/>
      <point x="63" y="736" type="line"/>
      <point x="146" y="-52" type="line"/>
      <point x="123" y="-52" type="line"/>
    </contour>
  </outline>
</glyph>
<glyph name="bracketright" format="2">
  <advance width="396.0"/>
  <unicode hex="005D"/>
  <outline>
    <contour>
      <point x="-3" y="-198" type="line"/>
      <point x="1" y="-178" type="line"/>
      <point x="165" y="-178" type="line"/>
      <point x="336" y="702" type="line"/>
      <point x="172" y="702" type="line"/>
      <point x="176" y="722" type="line"/>
      <point x="362" y="722" type="line"/>
      <point x="183" y="-198" type="line"/>
    </contour>
  </outline>
</glyph>
<glyph name="asciicircum" format="2">
  <advance width="551.0"/>
  <unicode hex="005E"/>
  <outline>
    <contour>
      <point x="40" y="10" type="line"/>
      <point x="380" y="610" type="line"/>
      <point x="405" y="610" type="line"/>
      <point x="511" y="10" type="line"/>
      <point x="491" y="10" type="line"/>
      <point x="388" y="590" type="line"/>
      <point x="60" y="10" type="line"/>
    </contour>
  </outline>
</glyph>
<glyph name="underscore" format="2">
  <advance width="500.0"/>
  <unicode hex="005F"/>
  <outline>
    <contour>
      <point x="-13" y="-110" type="line"/>
      <point x="-9" y="-90" type="line"/>
      <point x="491" y="-90" type="line"/>
      <point x="487" y="-110" type="line"/>
    </contour>
  </outline>
</glyph>
<glyph name="grave" format="2">
  <advance width="180.0"/>
  <unicode hex="0060"/>
  <outline>
    <contour>
      <point x="20" y="750" type="line"/>
      <point x="50" y="750" type="line"/>
      <point x="160" y="580" type="line"/>
      <point x="150" y="580" type="line"/>
    </contour>
  </outline>
</glyph>
<glyph name="a" format="2">
  <advance width="504.0"/>
  <unicode hex="0061"/>
  <outline>
    <contour>
      <point x="20" y="100" type="qcurve" smooth="yes"/>
      <point x="20" y="162"/>
      <point x="70" y="242"/>
      <point x="154" y="289"/>
      <point x="256" y="308"/>
      <point x="308" y="308" type="qcurve" smooth="yes"/>
      <point x="338" y="308"/>
      <point x="414" y="303"/>
      <point x="438" y="301" type="qcurve"/>
      <point x="437" y="280" type="line"/>
      <point x="419" y="282"/>
      <point x="373" y="286"/>
      <point x="326" y="288"/>
      <point x="309" y="288" type="qcurve" smooth="yes"/>
      <point x="262" y="288"/>
      <point x="167" y="273"/>
      <point x="88" y="234"/>
      <point x="41" y="162"/>
      <point x="41" y="105" type="qcurve" smooth="yes"/>
      <point x="41" y="56"/>
      <point x="104" y="10"/>
      <point x="166" y="10" type="qcurve" smooth="yes"/>
      <point x="220" y="10"/>
      <point x="319" y="41"/>
      <point x="385" y="91"/>
      <point x="391" y="120" type="qcurve" smooth="yes"/>
      <point x="439" y="349" type="line" smooth="yes"/>
      <point x="444" y="375"/>
      <point x="444" y="395" type="qcurve" smooth="yes"/>
      <point x="444" y="446"/>
      <point x="376" y="492"/>
      <point x="303" y="492" type="qcurve" smooth="yes"/>
      <point x="218" y="492"/>
      <point x="129" y="430"/>
      <point x="116" y="365" type="qcurve"/>
      <point x="96" y="365" type="line"/>
      <point x="110" y="437"/>
      <point x="216" y="512"/>
      <point x="310" y="512" type="qcurve" smooth="yes"/>
      <point x="388" y="512"/>
      <point x="463" y="458"/>
      <point x="463" y="399" type="qcurve" smooth="yes"/>
      <point x="463" y="375"/>
      <point x="457" y="344" type="qcurve" smooth="yes"/>
      <point x="424" y="182" type="line" smooth="yes"/>
      <point x="413" y="132"/>
      <point x="402" y="50"/>
      <point x="402" y="24" type="qcurve" smooth="yes"/>
      <point x="402" y="16"/>
      <point x="403" y="5"/>
      <point x="404" y="0" type="qcurve"/>
      <point x="384" y="0" type="line"/>
      <point x="382" y="15"/>
      <point x="382" y="32" type="qcurve" smooth="yes"/>
      <point x="382" y="42"/>
      <point x="384" y="66"/>
      <point x="386" y="78" type="qcurve"/>
      <point x="394" y="80" type="line"/>
      <point x="369" y="53"/>
      <point x="300" y="12"/>
      <point x="216" y="-10"/>
      <point x="168" y="-10" type="qcurve" smooth="yes"/>
      <point x="90" y="-10"/>
      <point x="20" y="49"/>
    </contour>
  </outline>
</glyph>
<glyph name="b" format="2">
  <advance width="562.0"/>
  <unicode hex="0062"/>
  <outline>
    <contour>
      <point x="21" y="0" type="line"/>
      <point x="161" y="722" type="line"/>
      <point x="181" y="722" type="line"/>
      <point x="105" y="328" type="line"/>
      <point x="99" y="328" type="line"/>
      <point x="70" y="183" type="line"/>
      <point x="76" y="182" type="line"/>
      <point x="41" y="0" type="line"/>
    </contour>
    <contour>
      <point x="64" y="171" type="qcurve"/>
      <point x="96" y="338" type="line"/>
      <point x="117" y="391"/>
      <point x="191" y="469"/>
      <point x="283" y="512"/>
      <point x="330" y="512" type="qcurve" smooth="yes"/>
      <point x="413" y="512"/>
      <point x="511" y="419"/>
      <point x="511" y="323" type="qcurve" smooth="yes"/>
      <point x="511" y="266"/>
      <point x="475" y="148"/>
      <point x="404" y="50"/>
      <point x="302" y="-10"/>
      <point x="236" y="-10" type="qcurve" smooth="yes"/>
      <point x="154" y="-10"/>
      <point x="73" y="87"/>
    </contour>
    <contour>
      <point x="83" y="182" type="qcurve" smooth="yes"/>
      <point x="83" y="100"/>
      <point x="163" y="10"/>
      <point x="237" y="10" type="qcurve" smooth="yes"/>
      <point x="299" y="10"/>
      <point x="393" y="67"/>
      <point x="458" y="159"/>
      <point x="491" y="268"/>
      <point x="491" y="321" type="qcurve" smooth="yes"/>
      <point x="491" y="409"/>
      <point x="401" y="492"/>
      <point x="324" y="492" type="qcurve" smooth="yes"/>
      <point x="265" y="492"/>
      <point x="176" y="435"/>
      <point x="115" y="342"/>
      <point x="83" y="233"/>
    </contour>
  </outline>
</glyph>
<glyph name="c" format="2">
  <advance width="554.0"/>
  <unicode hex="0063"/>
  <outline>
    <contour>
      <point x="50" y="175" type="qcurve" smooth="yes"/>
      <point x="50" y="83"/>
      <point x="141" y="-10"/>
      <point x="228" y="-10" type="qcurve" smooth="yes"/>
      <point x="289" y="-10"/>
      <point x="389" y="34"/>
      <point x="459" y="115"/>
      <point x="472" y="169" type="qcurve"/>
      <point x="452" y="169" type="line"/>
      <point x="443" y="123"/>
      <point x="380" y="51"/>
      <point x="286" y="10"/>
      <point x="229" y="10" type="qcurve" smooth="yes"/>
      <point x="151" y="10"/>
      <point x="70" y="92"/>
      <point x="70" y="173" type="qcurve" smooth="yes"/>
      <point x="70" y="216"/>
      <point x="92" y="305"/>
      <point x="135" y="388"/>
      <point x="197" y="453"/>
      <point x="279" y="492"/>
      <point x="329" y="492" type="qcurve" smooth="yes"/>
      <point x="408" y="492"/>
      <point x="483" y="422"/>
      <point x="483" y="362" type="qcurve" smooth="yes"/>
      <point x="483" y="357"/>
      <point x="482" y="346"/>
      <point x="482" y="341" type="qcurve"/>
      <point x="502" y="341" type="line"/>
      <point x="502" y="348"/>
      <point x="503" y="362"/>
      <point x="503" y="369" type="qcurve" smooth="yes"/>
      <point x="503" y="437"/>
      <point x="419" y="512"/>
      <point x="343" y="512" type="qcurve" smooth="yes"/>
      <point x="272" y="512"/>
      <point x="164" y="452"/>
      <point x="89" y="354"/>
      <point x="50" y="234"/>
    </contour>
  </outline>
</glyph>
<glyph name="d" format="2">
  <advance width="582.0"/>
  <unicode hex="0064"/>
  <outline>
    <contour>
      <point x="50" y="170" type="qcurve" smooth="yes"/>
      <point x="50" y="233"/>
      <point x="85" y="355"/>
      <point x="156" y="453"/>
      <point x="261" y="512"/>
      <point x="331" y="512" type="qcurve" smooth="yes"/>
      <point x="389" y="512"/>
      <point x="465" y="459"/>
      <point x="503" y="373"/>
      <point x="503" y="325" type="qcurve"/>
      <point x="473" y="170" type="line"/>
      <point x="452" y="115"/>
      <point x="376" y="34"/>
      <point x="281" y="-10"/>
      <point x="234" y="-10" type="qcurve" smooth="yes"/>
      <point x="143" y="-10"/>
      <point x="50" y="84"/>
    </contour>
    <contour>
      <point x="71" y="174" type="qcurve" smooth="yes"/>
      <point x="71" y="91"/>
      <point x="159" y="10"/>
      <point x="240" y="10" type="qcurve" smooth="yes"/>
      <point x="296" y="10"/>
      <point x="386" y="65"/>
      <point x="450" y="154"/>
      <point x="485" y="260"/>
      <point x="485" y="311" type="qcurve" smooth="yes"/>
      <point x="485" y="365"/>
      <point x="447" y="446"/>
      <point x="377" y="492"/>
      <point x="329" y="492" type="qcurve" smooth="yes"/>
      <point x="263" y="492"/>
      <point x="165" y="438"/>
      <point x="102" y="346"/>
      <point x="71" y="233"/>
    </contour>
    <contour>
      <point x="431" y="0" type="line"/>
      <point x="571" y="722" type="line"/>
      <point x="591" y="722" type="line"/>
      <point x="451" y="0" type="line"/>
    </contour>
  </outline>
</glyph>
<glyph name="e" format="2">
  <advance width="576.0"/>
  <unicode hex="0065"/>
  <outline>
    <contour>
      <point x="51" y="189" type="qcurve" smooth="yes"/>
      <point x="51" y="248"/>
      <point x="89" y="364"/>
      <point x="164" y="457"/>
      <point x="272" y="512"/>
      <point x="341" y="512" type="qcurve" smooth="yes"/>
      <point x="429" y="512"/>
      <point x="525" y="420"/>
      <point x="525" y="340" type="qcurve" smooth="yes"/>
      <point x="525" y="313"/>
      <point x="519" y="282" type="qcurve" smooth="yes"/>
      <point x="512" y="246" type="line"/>
      <point x="64" y="246" type="line"/>
      <point x="68" y="266" type="line"/>
      <point x="496" y="266" type="line"/>
      <point x="503" y="304"/>
      <point x="503" y="336" type="qcurve" smooth="yes"/>
      <point x="503" y="386"/>
      <point x="466" y="456"/>
      <point x="394" y="492"/>
      <point x="342" y="492" type="qcurve" smooth="yes"/>
      <point x="276" y="492"/>
      <point x="168" y="436"/>
      <point x="96" y="335"/>
      <point x="83" y="266" type="qcurve" smooth="yes"/>
      <point x="79" y="246" type="line" smooth="yes"/>
      <point x="76" y="229"/>
      <point x="72" y="196"/>
      <point x="72" y="181" type="qcurve" smooth="yes"/>
      <point x="72" y="100"/>
      <point x="167" y="10"/>
      <point x="255" y="10" type="qcurve" smooth="yes"/>
      <point x="333" y="10"/>
      <point x="443" y="84"/>
      <point x="476" y="160" type="qcurve"/>
      <point x="496" y="160" type="line"/>
      <point x="464" y="78"/>
      <point x="334" y="-10"/>
      <point x="246" y="-10" type="qcurve" smooth="yes"/>
      <point x="151" y="-10"/>
      <point x="51" y="92"/>
    </contour>
  </outline>
</glyph>
<glyph name="g" format="2">
  <advance width="564.0"/>
  <unicode hex="0067"/>
  <outline>
    <contour>
      <point x="1" y="-69" type="qcurve" smooth="yes"/>
      <point x="1" y="-55"/>
      <point x="4" y="-39" type="qcurve"/>
      <point x="24" y="-39" type="line"/>
      <point x="21" y="-52"/>
      <point x="21" y="-64" type="qcurve" smooth="yes"/>
      <point x="21" y="-116"/>
      <point x="105" y="-178"/>
      <point x="179" y="-178" type="qcurve" smooth="yes"/>
      <point x="241" y="-178"/>
      <point x="336" y="-132"/>
      <point x="398" y="-43"/>
      <point x="410" y="21" type="qcurve" smooth="yes"/>
      <point x="440" y="175" type="line"/>
      <point x="411" y="122"/>
      <point x="338" y="51"/>
      <point x="249" y="14"/>
      <point x="198" y="14" type="qcurve" smooth="yes"/>
      <point x="116" y="14"/>
      <point x="28" y="108"/>
      <point x="28" y="197" type="qcurve" smooth="yes"/>
      <point x="28" y="254"/>
      <point x="65" y="366"/>
      <point x="135" y="457"/>
      <point x="236" y="512"/>
      <point x="301" y="512" type="qcurve" smooth="yes"/>
      <point x="373" y="512"/>
      <point x="462" y="437"/>
      <point x="477" y="364" type="qcurve"/>
      <point x="504" y="500" type="line"/>
      <point x="524" y="500" type="line"/>
      <point x="432" y="29" type="line" smooth="yes"/>
      <point x="418" y="-41"/>
      <point x="353" y="-143"/>
      <point x="248" y="-198"/>
      <point x="175" y="-198" type="qcurve" smooth="yes"/>
      <point x="134" y="-198"/>
      <point x="69" y="-180"/>
      <point x="24" y="-146"/>
      <point x="1" y="-99"/>
    </contour>
    <contour>
      <point x="48" y="204" type="qcurve" smooth="yes"/>
      <point x="48" y="119"/>
      <point x="135" y="34"/>
      <point x="219" y="34" type="qcurve" smooth="yes"/>
      <point x="267" y="34"/>
      <point x="354" y="85"/>
      <point x="423" y="169"/>
      <point x="462" y="268"/>
      <point x="462" y="316" type="qcurve" smooth="yes"/>
      <point x="462" y="363"/>
      <point x="423" y="443"/>
      <point x="352" y="492"/>
      <point x="303" y="492" type="qcurve" smooth="yes"/>
      <point x="241" y="492"/>
      <point x="147" y="443"/>
      <point x="82" y="359"/>
      <point x="48" y="257"/>
    </contour>
  </outline>
</glyph>
<glyph name="h" format="2">
  <advance width="512.0"/>
  <unicode hex="0068"/>
  <outline>
    <contour>
      <point x="103" y="376" type="line"/>
      <point x="108" y="402" type="line"/>
      <point x="121" y="420" type="line" smooth="yes"/>
      <point x="142" y="447"/>
      <point x="207" y="488"/>
      <point x="280" y="510"/>
      <point x="312" y="510" type="qcurve" smooth="yes"/>
      <point x="388" y="510"/>
      <point x="471" y="437"/>
      <point x="471" y="367" type="qcurve" smooth="yes"/>
      <point x="471" y="341"/>
      <point x="465" y="312" type="qcurve" smooth="yes"/>
      <point x="405" y="0" type="line"/>
      <point x="385" y="0" type="line"/>
      <point x="446" y="316" type="line" smooth="yes"/>
      <point x="451" y="342"/>
      <point x="451" y="364" type="qcurve" smooth="yes"/>
      <point x="451" y="427"/>
      <point x="375" y="490"/>
      <point x="305" y="490" type="qcurve" smooth="yes"/>
      <point x="268" y="490"/>
      <point x="187" y="460"/>
      <point x="124" y="409"/>
      <point x="113" y="376" type="qcurve"/>
    </contour>
    <contour>
      <point x="21" y="0" type="line"/>
      <point x="161" y="722" type="line"/>
      <point x="181" y="722" type="line"/>
      <point x="41" y="0" type="line"/>
    </contour>
  </outline>
</glyph>
<glyph name="k" format="2">
  <advance width="371.0"/>
  <unicode hex="006B"/>
  <outline>
    <contour>
      <point x="21" y="0" type="line"/>
      <point x="161" y="722" type="line"/>
      <point x="181" y="722" type="line"/>
      <point x="41" y="0" type="line"/>
    </contour>
    <contour>
      <point x="94" y="281" type="line"/>
      <point x="377" y="500" type="line"/>
      <point x="410" y="500" type="line"/>
      <point x="115" y="272" type="line"/>
      <point x="118" y="288" type="line"/>
      <point x="339" y="0" type="line"/>
      <point x="310" y="0" type="line"/>
    </contour>
  </outline>
</glyph>
<glyph name="l" format="2">
  <advance width="172.0"/>
  <unicode hex="006C"/>
  <outline>
    <contour>
      <point x="21" y="0" type="line"/>
      <point x="161" y="722" type="line"/>
      <point x="181" y="722" type="line"/>
      <point x="41" y="0" type="line"/>
    </contour>
  </outline>
</glyph>
<glyph name="m" format="2">
  <advance width="830.0"/>
  <unicode hex="006D"/>
  <outline>
    <contour>
      <point x="438" y="347" type="line"/>
      <point x="447" y="394" type="line"/>
      <point x="483" y="448"/>
      <point x="584" y="512"/>
      <point x="635" y="512" type="qcurve" smooth="yes"/>
      <point x="712" y="512"/>
      <point x="789" y="446"/>
      <point x="789" y="380" type="qcurve" smooth="yes"/>
      <point x="789" y="354"/>
      <point x="783" y="324" type="qcurve" smooth="yes"/>
      <point x="720" y="0" type="line"/>
      <point x="700" y="0" type="line"/>
      <point x="763" y="321" type="line" smooth="yes"/>
      <point x="769" y="353"/>
      <point x="769" y="378" type="qcurve" smooth="yes"/>
      <point x="769" y="435"/>
      <point x="702" y="492"/>
      <point x="627" y="492" type="qcurve" smooth="yes"/>
      <point x="594" y="492"/>
      <point x="521" y="454"/>
      <point x="467" y="397"/>
      <point x="462" y="368" type="qcurve" smooth="yes"/>
      <point x="458" y="347" type="line"/>
    </contour>
    <contour>
      <point x="108" y="350" type="line"/>
      <point x="115" y="383" type="line"/>
      <point x="141" y="415" type="line" smooth="yes"/>
      <point x="177" y="459"/>
      <point x="269" y="512"/>
      <point x="313" y="512" type="qcurve" smooth="yes"/>
      <point x="359" y="512"/>
      <point x="425" y="485"/>
      <point x="463" y="433"/>
      <point x="467" y="395" type="qcurve"/>
      <point x="390" y="0" type="line"/>
      <point x="370" y="0" type="line"/>
      <point x="442" y="368" type="line"/>
      <point x="444" y="382"/>
      <point x="444" y="394" type="qcurve" smooth="yes"/>
      <point x="444" y="436"/>
      <point x="380" y="492"/>
      <point x="305" y="492" type="qcurve" smooth="yes"/>
      <point x="278" y="492"/>
      <point x="220" y="466"/>
      <point x="168" y="424"/>
      <point x="133" y="374"/>
      <point x="128" y="350" type="qcurve"/>
    </contour>
    <contour>
      <point x="40" y="0" type="line"/>
      <point x="137" y="500" type="line"/>
      <point x="157" y="500" type="line"/>
      <point x="60" y="0" type="line"/>
    </contour>
  </outline>
</glyph>
<glyph name="n" format="2">
  <advance width="531.0"/>
  <unicode hex="006E"/>
  <outline>
    <contour>
      <point x="40" y="0" type="line"/>
      <point x="138" y="500" type="line"/>
      <point x="158" y="500" type="line"/>
      <point x="60" y="0" type="line"/>
    </contour>
    <contour>
      <point x="123" y="376" type="line"/>
      <point x="128" y="402" type="line"/>
      <point x="141" y="420" type="line" smooth="yes"/>
      <point x="162" y="447"/>
      <point x="227" y="488"/>
      <point x="300" y="510"/>
      <point x="332" y="510" type="qcurve" smooth="yes"/>
      <point x="407" y="510"/>
      <point x="491" y="437"/>
      <point x="491" y="367" type="qcurve" smooth="yes"/>
      <point x="491" y="341"/>
      <point x="485" y="312" type="qcurve" smooth="yes"/>
      <point x="424" y="0" type="line"/>
      <point x="404" y="0" type="line"/>
      <point x="466" y="316" type="line" smooth="yes"/>
      <point x="471" y="342"/>
      <point x="471" y="364" type="qcurve" smooth="yes"/>
      <point x="471" y="427"/>
      <point x="394" y="490"/>
      <point x="324" y="490" type="qcurve" smooth="yes"/>
      <point x="287" y="490"/>
      <point x="207" y="460"/>
      <point x="144" y="409"/>
      <point x="133" y="376" type="qcurve"/>
    </contour>
  </outline>
</glyph>
<glyph name="o" format="2">
  <advance width="576.0"/>
  <unicode hex="006F"/>
  <outline>
    <contour>
      <point x="51" y="187" type="qcurve" smooth="yes"/>
      <point x="51" y="246"/>
      <point x="89" y="361"/>
      <point x="163" y="455"/>
      <point x="271" y="510"/>
      <point x="340" y="510" type="qcurve" smooth="yes"/>
      <point x="430" y="510"/>
      <point x="526" y="409"/>
      <point x="526" y="314" type="qcurve" smooth="yes"/>
      <point x="526" y="255"/>
      <point x="488" y="140"/>
      <point x="414" y="46"/>
      <point x="307" y="-10"/>
      <point x="237" y="-10" type="qcurve" smooth="yes"/>
      <point x="147" y="-10"/>
      <point x="51" y="92"/>
    </contour>
    <contour>
      <point x="73" y="191" type="qcurve" smooth="yes"/>
      <point x="73" y="104"/>
      <point x="162" y="10"/>
      <point x="241" y="10" type="qcurve" smooth="yes"/>
      <point x="303" y="10"/>
      <point x="400" y="62"/>
      <point x="467" y="149"/>
      <point x="503" y="256"/>
      <point x="503" y="309" type="qcurve" smooth="yes"/>
      <point x="503" y="395"/>
      <point x="415" y="490"/>
      <point x="335" y="490" type="qcurve" smooth="yes"/>
      <point x="273" y="490"/>
      <point x="176" y="438"/>
      <point x="109" y="351"/>
      <point x="73" y="244"/>
    </contour>
  </outline>
</glyph>
<glyph name="p" format="2">
  <advance width="560.0"/>
  <unicode hex="0070"/>
  <outline>
    <contour>
      <point x="-20" y="-200" type="line"/>
      <point x="101" y="421" type="line" smooth="yes"/>
      <point x="105" y="440"/>
      <point x="111" y="480"/>
      <point x="113" y="500" type="qcurve"/>
      <point x="133" y="500" type="line"/>
      <point x="131" y="480"/>
      <point x="125" y="440"/>
      <point x="121" y="421" type="qcurve" smooth="yes"/>
      <point x="0" y="-200" type="line"/>
    </contour>
    <contour>
      <point x="62" y="171" type="qcurve"/>
      <point x="95" y="338" type="line"/>
      <point x="115" y="391"/>
      <point x="189" y="469"/>
      <point x="282" y="512"/>
      <point x="329" y="512" type="qcurve" smooth="yes"/>
      <point x="411" y="512"/>
      <point x="510" y="419"/>
      <point x="510" y="323" type="qcurve" smooth="yes"/>
      <point x="510" y="266"/>
      <point x="473" y="148"/>
      <point x="403" y="50"/>
      <point x="302" y="-10"/>
      <point x="237" y="-10" type="qcurve" smooth="yes"/>
      <point x="154" y="-10"/>
      <point x="62" y="91"/>
    </contour>
    <contour>
      <point x="82" y="182" type="qcurve" smooth="yes"/>
      <point x="82" y="100"/>
      <point x="161" y="10"/>
      <point x="236" y="10" type="qcurve" smooth="yes"/>
      <point x="297" y="10"/>
      <point x="392" y="67"/>
      <point x="456" y="159"/>
      <point x="490" y="268"/>
      <point x="490" y="321" type="qcurve" smooth="yes"/>
      <point x="490" y="409"/>
      <point x="399" y="492"/>
      <point x="322" y="492" type="qcurve" smooth="yes"/>
      <point x="264" y="492"/>
      <point x="174" y="435"/>
      <point x="113" y="342"/>
      <point x="82" y="233"/>
    </contour>
  </outline>
</glyph>
<glyph name="q" format="2">
  <advance width="589.0"/>
  <unicode hex="0071"/>
  <outline>
    <contour>
      <point x="50" y="170" type="qcurve" smooth="yes"/>
      <point x="50" y="233"/>
      <point x="86" y="355"/>
      <point x="156" y="453"/>
      <point x="262" y="512"/>
      <point x="332" y="512" type="qcurve" smooth="yes"/>
      <point x="389" y="512"/>
      <point x="466" y="459"/>
      <point x="503" y="373"/>
      <point x="503" y="325" type="qcurve"/>
      <point x="474" y="170" type="line"/>
      <point x="453" y="115"/>
      <point x="376" y="34"/>
      <point x="282" y="-10"/>
      <point x="234" y="-10" type="qcurve" smooth="yes"/>
      <point x="143" y="-10"/>
      <point x="50" y="84"/>
    </contour>
    <contour>
      <point x="71" y="174" type="qcurve" smooth="yes"/>
      <point x="71" y="91"/>
      <point x="159" y="10"/>
      <point x="241" y="10" type="qcurve" smooth="yes"/>
      <point x="296" y="10"/>
      <point x="386" y="65"/>
      <point x="451" y="154"/>
      <point x="485" y="260"/>
      <point x="485" y="311" type="qcurve" smooth="yes"/>
      <point x="485" y="365"/>
      <point x="447" y="446"/>
      <point x="378" y="492"/>
      <point x="330" y="492" type="qcurve" smooth="yes"/>
      <point x="263" y="492"/>
      <point x="166" y="438"/>
      <point x="102" y="346"/>
      <point x="71" y="233"/>
    </contour>
    <contour>
      <point x="392" y="-200" type="line"/>
      <point x="528" y="500" type="line"/>
      <point x="548" y="500" type="line"/>
      <point x="412" y="-200" type="line"/>
    </contour>
  </outline>
</glyph>
<glyph name="r" format="2">
  <advance width="312.0"/>
  <unicode hex="0072"/>
  <outline>
    <contour>
      <point x="40" y="0" type="line"/>
      <point x="138" y="500" type="line"/>
      <point x="158" y="500" type="line"/>
      <point x="60" y="0" type="line"/>
    </contour>
    <contour>
      <point x="118" y="350" type="line"/>
      <point x="130" y="411" type="line"/>
      <point x="156" y="442" type="line" smooth="yes"/>
      <point x="186" y="477"/>
      <point x="277" y="510"/>
      <point x="342" y="510" type="qcurve"/>
      <point x="338" y="490" type="line"/>
      <point x="247" y="490"/>
      <point x="142" y="420"/>
      <point x="128" y="350" type="qcurve"/>
    </contour>
  </outline>
</glyph>
<glyph name="s" format="2">
  <advance width="484.0"/>
  <unicode hex="0073"/>
  <outline>
    <contour>
      <point x="30" y="110" type="qcurve" smooth="yes"/>
      <point x="30" y="115"/>
      <point x="31" y="134"/>
      <point x="34" y="144" type="qcurve"/>
      <point x="54" y="144" type="line"/>
      <point x="50" y="127"/>
      <point x="50" y="111" type="qcurve" smooth="yes"/>
      <point x="50" y="62"/>
      <point x="118" y="10"/>
      <point x="185" y="10" type="qcurve" smooth="yes"/>
      <point x="215" y="10"/>
      <point x="282" y="23"/>
      <point x="339" y="51"/>
      <point x="374" y="97"/>
      <point x="374" y="130" type="qcurve" smooth="yes"/>
      <point x="374" y="155"/>
      <point x="347" y="199"/>
      <point x="287" y="234"/>
      <point x="236" y="247" type="qcurve" smooth="yes"/>
      <point x="210" y="253" type="line" smooth="yes"/>
      <point x="166" y="264"/>
      <point x="114" y="298"/>
      <point x="93" y="343"/>
      <point x="93" y="369" type="qcurve" smooth="yes"/>
      <point x="93" y="407"/>
      <point x="128" y="461"/>
      <point x="188" y="496"/>
      <point x="261" y="512"/>
      <point x="298" y="512" type="qcurve" smooth="yes"/>
      <point x="345" y="512"/>
      <point x="405" y="487"/>
      <point x="434" y="439"/>
      <point x="434" y="406" type="qcurve" smooth="yes"/>
      <point x="434" y="388"/>
      <point x="430" y="366" type="qcurve"/>
      <point x="410" y="366" type="line"/>
      <point x="414" y="386"/>
      <point x="414" y="403" type="qcurve" smooth="yes"/>
      <point x="414" y="446"/>
      <point x="358" y="492"/>
      <point x="293" y="492" type="qcurve" smooth="yes"/>
      <point x="251" y="492"/>
      <point x="168" y="470"/>
      <point x="113" y="418"/>
      <point x="113" y="374" type="qcurve" smooth="yes"/>
      <point x="113" y="336"/>
      <point x="165" y="284"/>
      <point x="228" y="269" type="qcurve" smooth="yes"/>
      <point x="257" y="262" type="line" smooth="yes"/>
      <point x="306" y="250"/>
      <point x="367" y="210"/>
      <point x="394" y="163"/>
      <point x="394" y="140" type="qcurve" smooth="yes"/>
      <point x="394" y="97"/>
      <point x="353" y="39"/>
      <point x="287" y="5"/>
      <point x="212" y="-10"/>
      <point x="178" y="-10" type="qcurve" smooth="yes"/>
      <point x="129" y="-10"/>
      <point x="63" y="17"/>
      <point x="30" y="70"/>
    </contour>
  </outline>
</glyph>
<glyph name="t" format="2">
  <advance width="295.0"/>
  <unicode hex="0074"/>
  <outline>
    <contour>
      <point x="68" y="44" type="qcurve" smooth="yes"/>
      <point x="68" y="57"/>
      <point x="72" y="74" type="qcurve" smooth="yes"/>
      <point x="179" y="628" type="line"/>
      <point x="201" y="636" type="line"/>
      <point x="91" y="71" type="line" smooth="yes"/>
      <point x="88" y="58"/>
      <point x="88" y="48" type="qcurve" smooth="yes"/>
      <point x="88" y="28"/>
      <point x="109" y="10"/>
      <point x="131" y="10" type="qcurve" smooth="yes"/>
      <point x="144" y="10"/>
      <point x="175" y="16"/>
      <point x="191" y="20" type="qcurve"/>
      <point x="187" y="0" type="line"/>
      <point x="174" y="-5"/>
      <point x="136" y="-10"/>
      <point x="123" y="-10" type="qcurve" smooth="yes"/>
      <point x="95" y="-10"/>
      <point x="68" y="17"/>
    </contour>
    <contour>
      <point x="156" y="480" type="line"/>
      <point x="159" y="500" type="line"/>
      <point x="284" y="500" type="line"/>
      <point x="281" y="480" type="line"/>
    </contour>
    <contour>
      <point x="60" y="480" type="line"/>
      <point x="64" y="500" type="line"/>
      <point x="169" y="500" type="line"/>
      <point x="165" y="480" type="line"/>
    </contour>
  </outline>
</glyph>
<glyph name="u" format="2">
  <advance width="524.0"/>
  <unicode hex="0075"/>
  <outline>
    <contour>
      <point x="41" y="120" type="qcurve" smooth="yes"/>
      <point x="41" y="145"/>
      <point x="46" y="174" type="qcurve" smooth="yes"/>
      <point x="110" y="500" type="line"/>
      <point x="130" y="500" type="line"/>
      <point x="66" y="172" type="line" smooth="yes"/>
      <point x="61" y="145"/>
      <point x="61" y="123" type="qcurve" smooth="yes"/>
      <point x="61" y="66"/>
      <point x="130" y="10"/>
      <point x="200" y="10" type="qcurve" smooth="yes"/>
      <point x="232" y="10"/>
      <point x="300" y="40"/>
      <point x="363" y="91"/>
      <point x="407" y="158"/>
      <point x="414" y="194" type="qcurve"/>
      <point x="424" y="194" type="line"/>
      <point x="414" y="144" type="line"/>
      <point x="399" y="119" type="line" smooth="yes"/>
      <point x="378" y="84"/>
      <point x="312" y="25"/>
      <point x="233" y="-10"/>
      <point x="191" y="-10" type="qcurve" smooth="yes"/>
      <point x="117" y="-10"/>
      <point x="41" y="56"/>
    </contour>
    <contour>
      <point x="376" y="0" type="line"/>
      <point x="474" y="500" type="line"/>
      <point x="494" y="500" type="line"/>
      <point x="396" y="0" type="line"/>
    </contour>
  </outline>
</glyph>
<glyph name="v" format="2">
  <advance width="454.0"/>
  <unicode hex="0076"/>
  <outline>
    <contour>
      <point x="154" y="0" type="line"/>
      <point x="40" y="500" type="line"/>
      <point x="60" y="500" type="line"/>
      <point x="172" y="9" type="line"/>
      <point x="164" y="9" type="line"/>
      <point x="463" y="500" type="line"/>
      <point x="484" y="500" type="line"/>
      <point x="178" y="0" type="line"/>
    </contour>
  </outline>
</glyph>
<glyph name="w" format="2">
  <advance width="667.0"/>
  <unicode hex="0077"/>
  <outline>
    <contour>
      <point x="95" y="0" type="line"/>
      <point x="41" y="500" type="line"/>
      <point x="61" y="500" type="line"/>
      <point x="114" y="8" type="line"/>
      <point x="107" y="8" type="line"/>
      <point x="352" y="500" type="line"/>
      <point x="377" y="500" type="line"/>
      <point x="440" y="8" type="line"/>
      <point x="432" y="8" type="line"/>
      <point x="677" y="500" type="line"/>
      <point x="697" y="500" type="line"/>
      <point x="448" y="0" type="line"/>
      <point x="420" y="0" type="line"/>
      <point x="358" y="495" type="line"/>
      <point x="369" y="495" type="line"/>
      <point x="123" y="0" type="line"/>
    </contour>
  </outline>
</glyph>
<glyph name="x" format="2">
  <advance width="474.0"/>
  <unicode hex="0078"/>
  <outline>
    <contour>
      <point x="67" y="500" type="line"/>
      <point x="90" y="500" type="line"/>
      <point x="377" y="0" type="line"/>
      <point x="355" y="0" type="line"/>
    </contour>
    <contour>
      <point x="-40" y="0" type="line"/>
      <point x="208" y="261" type="line"/>
      <point x="217" y="250" type="line"/>
      <point x="-17" y="0" type="line"/>
    </contour>
    <contour>
      <point x="213" y="266" type="line"/>
      <point x="431" y="500" type="line"/>
      <point x="454" y="500" type="line"/>
      <point x="222" y="254" type="line"/>
    </contour>
  </outline>
</glyph>
<glyph name="y" format="2">
  <advance width="455.0"/>
  <unicode hex="0079"/>
  <outline>
    <contour>
      <point x="52" y="-200" type="line"/>
      <point x="455" y="500" type="line"/>
      <point x="475" y="500" type="line"/>
      <point x="67" y="-200" type="line"/>
    </contour>
    <contour>
      <point x="47" y="500" type="line"/>
      <point x="67" y="500" type="line"/>
      <point x="179" y="7" type="line"/>
      <point x="167" y="-13" type="line"/>
    </contour>
  </outline>
</glyph>
<glyph name="z" format="2">
  <advance width="568.0"/>
  <unicode hex="007A"/>
  <outline>
    <contour>
      <point x="50" y="0" type="line"/>
      <point x="54" y="20" type="line"/>
      <point x="502" y="491" type="line"/>
      <point x="507" y="480" type="line"/>
      <point x="166" y="480" type="line"/>
      <point x="170" y="500" type="line"/>
      <point x="518" y="500" type="line"/>
      <point x="514" y="480" type="line"/>
      <point x="64" y="7" type="line"/>
      <point x="61" y="20" type="line"/>
      <point x="424" y="20" type="line"/>
      <point x="420" y="0" type="line"/>
    </contour>
  </outline>
</glyph>
<glyph name="braceleft" format="2">
  <advance width="487.0"/>
  <unicode hex="007B"/>
  <outline>
    <contour>
      <point x="96" y="-144" type="qcurve" smooth="yes"/>
      <point x="96" y="-178"/>
      <point x="121" y="-220"/>
      <point x="174" y="-240"/>
      <point x="215" y="-240" type="qcurve"/>
      <point x="219" y="-220" type="line"/>
      <point x="183" y="-220"/>
      <point x="137" y="-202"/>
      <point x="116" y="-166"/>
      <point x="116" y="-139" type="qcurve" smooth="yes"/>
      <point x="116" y="-132"/>
      <point x="118" y="-114"/>
      <point x="120" y="-104" type="qcurve" smooth="yes"/>
      <point x="155" y="47" type="line" smooth="yes"/>
      <point x="161" y="70"/>
      <point x="165" y="113"/>
      <point x="165" y="131" type="qcurve" smooth="yes"/>
      <point x="165" y="180"/>
      <point x="131" y="248"/>
      <point x="88" y="260" type="qcurve"/>
      <point x="134" y="278"/>
      <point x="193" y="332"/>
      <point x="226" y="404"/>
      <point x="234" y="450" type="qcurve" smooth="yes"/>
      <point x="262" y="624" type="line" smooth="yes"/>
      <point x="269" y="668"/>
      <point x="301" y="719"/>
      <point x="360" y="740"/>
      <point x="406" y="740" type="qcurve"/>
      <point x="410" y="760" type="line"/>
      <point x="371" y="760"/>
      <point x="313" y="745"/>
      <point x="272" y="713"/>
      <point x="247" y="662"/>
      <point x="242" y="624" type="qcurve" smooth="yes"/>
      <point x="214" y="450" type="line" smooth="yes"/>
      <point x="208" y="415"/>
      <point x="176" y="341"/>
      <point x="112" y="282"/>
      <point x="59" y="270" type="qcurve"/>
      <point x="55" y="250" type="line"/>
      <point x="107" y="239"/>
      <point x="146" y="169"/>
      <point x="146" y="125" type="qcurve" smooth="yes"/>
      <point x="146" y="112"/>
      <point x="143" y="84"/>
      <point x="140" y="70" type="qcurve" smooth="yes"/>
      <point x="101" y="-100" type="line" smooth="yes"/>
      <point x="98" y="-113"/>
      <point x="96" y="-135"/>
    </contour>
  </outline>
</glyph>
<glyph name="bar" format="2">
  <advance width="348.0"/>
  <unicode hex="007C"/>
  <outline>
    <contour>
      <point x="60" y="-258" type="line"/>
      <point x="265" y="796" type="line"/>
      <point x="287" y="796" type="line"/>
      <point x="82" y="-258" type="line"/>
    </contour>
  </outline>
</glyph>
<glyph name="asciitilde" format="2">
  <advance width="633.0"/>
  <unicode hex="007E"/>
  <outline>
    <contour>
      <point x="91" y="205" type="line"/>
      <point x="114" y="242"/>
      <point x="190" y="303"/>
      <point x="244" y="303" type="qcurve" smooth="yes"/>
      <point x="271" y="303"/>
      <point x="321" y="280"/>
      <point x="370" y="250"/>
      <point x="420" y="228"/>
      <point x="445" y="228" type="qcurve" smooth="yes"/>
      <point x="467" y="228"/>
      <point x="514" y="254"/>
      <point x="551" y="290"/>
      <point x="559" y="305" type="qcurve"/>
      <point x="579" y="305" type="line"/>
      <point x="565" y="280"/>
      <point x="518" y="235"/>
      <point x="466" y="208"/>
      <point x="445" y="208" type="qcurve" smooth="yes"/>
      <point x="417" y="208"/>
      <point x="367" y="231"/>
      <point x="319" y="261"/>
      <point x="269" y="283"/>
      <point x="242" y="283" type="qcurve" smooth="yes"/>
      <point x="210" y="283"/>
      <point x="159" y="258"/>
      <point x="123" y="221"/>
      <point x="111" y="205" type="qcurve"/>
    </contour>
  </outline>
</glyph>
<glyph name="cent" format="2">
  <advance width="558.0"/>
  <unicode hex="00A2"/>
  <outline>
    <contour>
      <point x="120" y="-80" type="line"/>
      <point x="95" y="-80" type="line"/>
      <point x="438" y="580" type="line"/>
      <point x="462" y="580" type="line"/>
    </contour>
    <contour>
      <point x="55" y="175" type="qcurve" smooth="yes"/>
      <point x="55" y="83"/>
      <point x="146" y="-10"/>
      <point x="233" y="-10" type="qcurve" smooth="yes"/>
      <point x="294" y="-10"/>
      <point x="394" y="34"/>
      <point x="464" y="115"/>
      <point x="477" y="169" type="qcurve"/>
      <point x="457" y="169" type="line"/>
      <point x="448" y="123"/>
      <point x="385" y="51"/>
      <point x="291" y="10"/>
      <point x="234" y="10" type="qcurve" smooth="yes"/>
      <point x="156" y="10"/>
      <point x="75" y="92"/>
      <point x="75" y="173" type="qcurve" smooth="yes"/>
      <point x="75" y="216"/>
      <point x="97" y="305"/>
      <point x="140" y="388"/>
      <point x="202" y="453"/>
      <point x="284" y="492"/>
      <point x="334" y="492" type="qcurve" smooth="yes"/>
      <point x="413" y="492"/>
      <point x="488" y="422"/>
      <point x="488" y="362" type="qcurve" smooth="yes"/>
      <point x="488" y="357"/>
      <point x="487" y="346"/>
      <point x="487" y="341" type="qcurve"/>
      <point x="507" y="341" type="line"/>
      <point x="507" y="348"/>
      <point x="508" y="362"/>
      <point x="508" y="369" type="qcurve" smooth="yes"/>
      <point x="508" y="437"/>
      <point x="424" y="512"/>
      <point x="348" y="512" type="qcurve" smooth="yes"/>
      <point x="277" y="512"/>
      <point x="169" y="452"/>
      <point x="94" y="354"/>
      <point x="55" y="234"/>
    </contour>
  </outline>
</glyph>
<glyph name="sterling" format="2">
  <advance width="558.0"/>
  <unicode hex="00A3"/>
  <outline>
    <contour>
      <point x="78" y="9" type="line"/>
      <point x="181" y="539" type="line" smooth="yes"/>
      <point x="193" y="601"/>
      <point x="253" y="689"/>
      <point x="344" y="736"/>
      <point x="401" y="736" type="qcurve" smooth="yes"/>
      <point x="448" y="736"/>
      <point x="516" y="705"/>
      <point x="553" y="649"/>
      <point x="553" y="611" type="qcurve" smooth="yes"/>
      <point x="553" y="596"/>
      <point x="550" y="579" type="qcurve"/>
      <point x="530" y="579" type="line"/>
      <point x="533" y="594"/>
      <point x="533" y="608" type="qcurve" smooth="yes"/>
      <point x="533" y="641"/>
      <point x="500" y="690"/>
      <point x="439" y="716"/>
      <point x="398" y="716" type="qcurve" smooth="yes"/>
      <point x="346" y="716"/>
      <point x="265" y="674"/>
      <point x="212" y="595"/>
      <point x="201" y="539" type="qcurve" smooth="yes"/>
      <point x="98" y="9" type="line"/>
    </contour>
    <contour>
      <point x="-28" y="0" type="line"/>
      <point x="-24" y="20" type="line"/>
      <point x="455" y="20" type="line"/>
      <point x="451" y="0" type="line"/>
    </contour>
    <contour>
      <point x="53" y="414" type="line"/>
      <point x="57" y="434" type="line"/>
      <point x="380" y="434" type="line"/>
      <point x="376" y="414" type="line"/>
    </contour>
  </outline>
</glyph>
<glyph name="currency" format="2">
  <advance width="619.0"/>
  <unicode hex="00A4"/>
  <outline>
    <contour>
      <point x="110" y="382" type="qcurve" smooth="yes"/>
      <point x="110" y="436"/>
      <point x="151" y="529"/>
      <point x="222" y="599"/>
      <point x="316" y="639"/>
      <point x="370" y="639" type="qcurve" smooth="yes"/>
      <point x="422" y="639"/>
      <point x="499" y="597"/>
      <point x="542" y="523"/>
      <point x="542" y="475" type="qcurve" smooth="yes"/>
      <point x="542" y="423"/>
      <point x="502" y="330"/>
      <point x="432" y="257"/>
      <point x="339" y="216"/>
      <point x="287" y="216" type="qcurve" smooth="yes"/>
      <point x="233" y="216"/>
      <point x="154" y="258"/>
      <point x="110" y="332"/>
    </contour>
    <contour>
      <point x="130" y="384" type="qcurve" smooth="yes"/>
      <point x="130" y="316"/>
      <point x="217" y="234"/>
      <point x="291" y="234" type="qcurve" smooth="yes"/>
      <point x="354" y="234"/>
      <point x="459" y="300"/>
      <point x="521" y="408"/>
      <point x="521" y="470" type="qcurve" smooth="yes"/>
      <point x="521" y="537"/>
      <point x="438" y="621"/>
      <point x="366" y="621" type="qcurve" smooth="yes"/>
      <point x="300" y="621"/>
      <point x="193" y="556"/>
      <point x="130" y="449"/>
    </contour>
    <contour>
      <point x="114" y="674" type="line"/>
      <point x="133" y="690" type="line"/>
      <point x="223" y="579" type="line"/>
      <point x="205" y="564" type="line"/>
    </contour>
    <contour>
      <point x="489" y="579" type="line"/>
      <point x="621" y="690" type="line"/>
      <point x="634" y="674" type="line"/>
      <point x="500" y="562" type="line"/>
    </contour>
    <contour>
      <point x="436" y="283" type="line"/>
      <point x="453" y="297" type="line"/>
      <point x="541" y="188" type="line"/>
      <point x="524" y="174" type="line"/>
    </contour>
    <contour>
      <point x="21" y="184" type="line"/>
      <point x="149" y="292" type="line"/>
      <point x="159" y="276" type="line"/>
      <point x="32" y="170" type="line"/>
    </contour>
  </outline>
</glyph>
<glyph name="yen" format="2">
  <advance width="558.0"/>
  <unicode hex="00A5"/>
  <outline>
    <contour>
      <point x="200" y="0" type="line"/>
      <point x="256" y="287" type="line"/>
      <point x="250" y="287" type="line"/>
      <point x="115" y="722" type="line"/>
      <point x="137" y="722" type="line"/>
      <point x="272" y="294" type="line"/>
      <point x="264" y="294" type="line"/>
      <point x="563" y="722" type="line"/>
      <point x="585" y="722" type="line"/>
      <point x="279" y="287" type="line"/>
      <point x="276" y="287" type="line"/>
      <point x="220" y="0" type="line"/>
    </contour>
    <contour>
      <point x="0" y="287" type="line"/>
      <point x="4" y="307" type="line"/>
      <point x="259" y="307" type="line"/>
      <point x="266" y="287" type="line"/>
    </contour>
    <contour>
      <point x="265" y="287" type="line"/>
      <point x="280" y="307" type="line"/>
      <point x="536" y="307" type="line"/>
      <point x="532" y="287" type="line"/>
    </contour>
    <contour>
      <point x="36" y="473" type="line"/>
      <point x="40" y="493" type="line"/>
      <point x="198" y="493" type="line"/>
      <point x="205" y="473" type="line"/>
    </contour>
    <contour>
      <point x="399" y="473" type="line"/>
      <point x="413" y="493" type="line"/>
      <point x="572" y="493" type="line"/>
      <point x="568" y="473" type="line"/>
    </contour>
  </outline>
</glyph>
<glyph name="brokenbar" format="2">
  <advance width="325.0"/>
  <unicode hex="00A6"/>
  <outline>
    <contour>
      <point x="165" y="336" type="line"/>
      <point x="243" y="736" type="line"/>
      <point x="265" y="736" type="line"/>
      <point x="187" y="336" type="line"/>
    </contour>
    <contour>
      <point x="61" y="-198" type="line"/>
      <point x="139" y="202" type="line"/>
      <point x="161" y="202" type="line"/>
      <point x="83" y="-198" type="line"/>
    </contour>
  </outline>
</glyph>
<glyph name="section" format="2">
  <advance width="467.0"/>
  <unicode hex="00A7"/>
  <outline>
    <contour>
      <point x="-22" y="-84" type="qcurve"/>
      <point x="-17" y="-59" type="line"/>
      <point x="7" y="-92"/>
      <point x="79" y="-131"/>
      <point x="115" y="-131" type="qcurve" smooth="yes"/>
      <point x="160" y="-131"/>
      <point x="240" y="-102"/>
      <point x="290" y="-42"/>
      <point x="290" y="5" type="qcurve" smooth="yes"/>
      <point x="290" y="31"/>
      <point x="274" y="64"/>
      <point x="261" y="76" type="qcurve" smooth="yes"/>
      <point x="68" y="257" type="line" smooth="yes"/>
      <point x="52" y="272"/>
      <point x="37" y="310"/>
      <point x="37" y="330" type="qcurve" smooth="yes"/>
      <point x="37" y="363"/>
      <point x="72" y="413"/>
      <point x="128" y="448"/>
      <point x="192" y="467"/>
      <point x="221" y="470" type="qcurve"/>
      <point x="236" y="455" type="line"/>
      <point x="211" y="452"/>
      <point x="149" y="437"/>
      <point x="93" y="408"/>
      <point x="57" y="364"/>
      <point x="57" y="333" type="qcurve" smooth="yes"/>
      <point x="57" y="315"/>
      <point x="72" y="282"/>
      <point x="88" y="268" type="qcurve" smooth="yes"/>
      <point x="280" y="89" type="line" smooth="yes"/>
      <point x="293" y="76"/>
      <point x="310" y="38"/>
      <point x="310" y="10" type="qcurve" smooth="yes"/>
      <point x="310" y="-29"/>
      <point x="278" y="-88"/>
      <point x="222" y="-129"/>
      <point x="152" y="-149"/>
      <point x="115" y="-149" type="qcurve" smooth="yes"/>
      <point x="89" y="-149"/>
      <point x="39" y="-133"/>
      <point x="-5" y="-104"/>
    </contour>
    <contour>
      <point x="207" y="146" type="line"/>
      <point x="232" y="151"/>
      <point x="295" y="168"/>
      <point x="353" y="198"/>
      <point x="391" y="243"/>
      <point x="391" y="275" type="qcurve" smooth="yes"/>
      <point x="391" y="289"/>
      <point x="380" y="310"/>
      <point x="369" y="320" type="qcurve" smooth="yes"/>
      <point x="179" y="490" type="line" smooth="yes"/>
      <point x="168" y="500"/>
      <point x="153" y="523"/>
      <point x="145" y="551"/>
      <point x="145" y="568" type="qcurve" smooth="yes"/>
      <point x="145" y="602"/>
      <point x="173" y="656"/>
      <point x="220" y="693"/>
      <point x="282" y="713"/>
      <point x="316" y="713" type="qcurve" smooth="yes"/>
      <point x="356" y="713"/>
      <point x="417" y="683"/>
      <point x="442" y="651" type="qcurve"/>
      <point x="437" y="626" type="line"/>
      <point x="412" y="662"/>
      <point x="352" y="695"/>
      <point x="314" y="695" type="qcurve" smooth="yes"/>
      <point x="277" y="695"/>
      <point x="209" y="666"/>
      <point x="166" y="612"/>
      <point x="166" y="573" type="qcurve" smooth="yes"/>
      <point x="166" y="552"/>
      <point x="180" y="519"/>
      <point x="193" y="508" type="qcurve" smooth="yes"/>
      <point x="384" y="337" type="line" smooth="yes"/>
      <point x="393" y="329"/>
      <point x="405" y="310"/>
      <point x="411" y="287"/>
      <point x="411" y="275" type="qcurve" smooth="yes"/>
      <point x="411" y="241"/>
      <point x="374" y="192"/>
      <point x="315" y="159"/>
      <point x="251" y="138"/>
      <point x="224" y="132" type="qcurve"/>
    </contour>
  </outline>
</glyph>
<glyph name="dieresis" format="2">
  <advance width="261.0"/>
  <unicode hex="00A8"/>
  <outline>
    <contour>
      <point x="40" y="620" type="line"/>
      <point x="58" y="712" type="line"/>
      <point x="80" y="712" type="line"/>
      <point x="62" y="620" type="line"/>
    </contour>
    <contour>
      <point x="180" y="620" type="line"/>
      <point x="198" y="712" type="line"/>
      <point x="220" y="712" type="line"/>
      <point x="202" y="620" type="line"/>
    </contour>
  </outline>
</glyph>
<glyph name="copyright" format="2">
  <advance width="867.0"/>
  <unicode hex="00A9"/>
  <outline>
    <contour>
      <point x="242" y="280" type="qcurve" smooth="yes"/>
      <point x="242" y="331"/>
      <point x="269" y="435"/>
      <point x="323" y="523"/>
      <point x="408" y="577"/>
      <point x="466" y="577" type="qcurve" smooth="yes"/>
      <point x="514" y="577"/>
      <point x="577" y="553"/>
      <point x="609" y="508"/>
      <point x="609" y="474" type="qcurve" smooth="yes"/>
      <point x="609" y="459"/>
      <point x="606" y="441" type="qcurve"/>
      <point x="586" y="441" type="line"/>
      <point x="589" y="456"/>
      <point x="589" y="470" type="qcurve" smooth="yes"/>
      <point x="589" y="513"/>
      <point x="526" y="559"/>
      <point x="462" y="559" type="qcurve" smooth="yes"/>
      <point x="416" y="559"/>
      <point x="339" y="513"/>
      <point x="285" y="431"/>
      <point x="274" y="375" type="qcurve" smooth="yes"/>
      <point x="270" y="353" type="line" smooth="yes"/>
      <point x="267" y="335"/>
      <point x="263" y="301"/>
      <point x="263" y="286" type="qcurve" smooth="yes"/>
      <point x="263" y="223"/>
      <point x="328" y="160"/>
      <point x="394" y="160" type="qcurve" smooth="yes"/>
      <point x="437" y="160"/>
      <point x="502" y="187"/>
      <point x="547" y="242"/>
      <point x="560" y="284" type="qcurve"/>
      <point x="580" y="284" type="line"/>
      <point x="566" y="236"/>
      <point x="515" y="173"/>
      <point x="439" y="142"/>
      <point x="389" y="142" type="qcurve" smooth="yes"/>
      <point x="315" y="142"/>
      <point x="242" y="210"/>
    </contour>
    <contour>
      <point x="52" y="287" type="qcurve" smooth="yes"/>
      <point x="52" y="357"/>
      <point x="99" y="489"/>
      <point x="184" y="601"/>
      <point x="297" y="685"/>
      <point x="431" y="732"/>
      <point x="504" y="732" type="qcurve" smooth="yes"/>
      <point x="597" y="732"/>
      <point x="736" y="655"/>
      <point x="813" y="519"/>
      <point x="813" y="429" type="qcurve" smooth="yes"/>
      <point x="813" y="359"/>
      <point x="765" y="228"/>
      <point x="680" y="117"/>
      <point x="566" y="34"/>
      <point x="432" y="-13"/>
      <point x="359" y="-13" type="qcurve" smooth="yes"/>
      <point x="266" y="-13"/>
      <point x="128" y="63"/>
      <point x="52" y="198"/>
    </contour>
    <contour>
      <point x="73" y="291" type="qcurve" smooth="yes"/>
      <point x="73" y="206"/>
      <point x="144" y="79"/>
      <point x="275" y="7"/>
      <point x="363" y="7" type="qcurve" smooth="yes"/>
      <point x="449" y="7"/>
      <point x="604" y="74"/>
      <point x="724" y="192"/>
      <point x="792" y="343"/>
      <point x="792" y="426" type="qcurve" smooth="yes"/>
      <point x="792" y="511"/>
      <point x="719" y="640"/>
      <point x="588" y="712"/>
      <point x="500" y="712" type="qcurve" smooth="yes"/>
      <point x="414" y="712"/>
      <point x="260" y="644"/>
      <point x="141" y="526"/>
      <point x="73" y="375"/>
    </contour>
  </outline>
</glyph>
<glyph name="ordfeminine" format="2">
  <advance width="388.0"/>
  <unicode hex="00AA"/>
  <outline>
    <contour>
      <point x="-1" y="252" type="line"/>
      <point x="3" y="272" type="line"/>
      <point x="352" y="272" type="line"/>
      <point x="348" y="252" type="line"/>
    </contour>
    <contour>
      <point x="339" y="422" type="qcurve" smooth="yes"/>
      <point x="339" y="465"/>
      <point x="374" y="522"/>
      <point x="433" y="555"/>
      <point x="505" y="568"/>
      <point x="542" y="568" type="qcurve" smooth="yes"/>
      <point x="563" y="568"/>
      <point x="616" y="565"/>
      <point x="633" y="563" type="qcurve"/>
      <point x="632" y="548" type="line"/>
      <point x="614" y="551"/>
      <point x="560" y="554"/>
      <point x="543" y="554" type="qcurve" smooth="yes"/>
      <point x="509" y="554"/>
      <point x="442" y="544"/>
      <point x="386" y="516"/>
      <point x="353" y="465"/>
      <point x="353" y="425" type="qcurve" smooth="yes"/>
      <point x="353" y="391"/>
      <point x="397" y="358"/>
      <point x="441" y="358" type="qcurve" smooth="yes"/>
      <point x="480" y="358"/>
      <point x="549" y="380"/>
      <point x="596" y="415"/>
      <point x="600" y="436" type="qcurve" smooth="yes"/>
      <point x="634" y="597" type="line" smooth="yes"/>
      <point x="637" y="615"/>
      <point x="637" y="630" type="qcurve" smooth="yes"/>
      <point x="637" y="666"/>
      <point x="589" y="698"/>
      <point x="538" y="698" type="qcurve" smooth="yes"/>
      <point x="478" y="698"/>
      <point x="415" y="654"/>
      <point x="406" y="608" type="qcurve"/>
      <point x="392" y="608" type="line"/>
      <point x="402" y="660"/>
      <point x="476" y="712"/>
      <point x="543" y="712" type="qcurve" smooth="yes"/>
      <point x="598" y="712"/>
      <point x="651" y="674"/>
      <point x="651" y="632" type="qcurve" smooth="yes"/>
      <point x="651" y="615"/>
      <point x="647" y="594" type="qcurve" smooth="yes"/>
      <point x="623" y="479" type="line" smooth="yes"/>
      <point x="616" y="445"/>
      <point x="608" y="386"/>
      <point x="608" y="368" type="qcurve" smooth="yes"/>
      <point x="608" y="363"/>
      <point x="609" y="354"/>
      <point x="609" y="351" type="qcurve"/>
      <point x="595" y="351" type="line"/>
      <point x="594" y="362"/>
      <point x="594" y="374" type="qcurve" smooth="yes"/>
      <point x="594" y="381"/>
      <point x="595" y="397"/>
      <point x="597" y="406" type="qcurve"/>
      <point x="602" y="407" type="line"/>
      <point x="576" y="379"/>
      <point x="494" y="344"/>
      <point x="443" y="344" type="qcurve" smooth="yes"/>
      <point x="388" y="344"/>
      <point x="339" y="385"/>
    </contour>
  </outline>
</glyph>
<glyph name="guillemotleft" format="2">
  <advance width="551.0"/>
  <unicode hex="00AB"/>
  <outline>
    <contour>
      <point x="81" y="252" type="line"/>
      <point x="255" y="447" type="line"/>
      <point x="275" y="447" type="line"/>
      <point x="109" y="242" type="line"/>
      <point x="113" y="262" type="line"/>
      <point x="200" y="57" type="line"/>
      <point x="180" y="57" type="line"/>
    </contour>
    <contour>
      <point x="275" y="252" type="line"/>
      <point x="450" y="447" type="line"/>
      <point x="470" y="447" type="line"/>
      <point x="304" y="242" type="line"/>
      <point x="308" y="262" type="line"/>
      <point x="394" y="57" type="line"/>
      <point x="374" y="57" type="line"/>
    </contour>
  </outline>
</glyph>
<glyph name="logicalnot" format="2">
  <advance width="619.0"/>
  <unicode hex="00AC"/>
  <outline>
    <contour>
      <point x="75" y="380" type="line"/>
      <point x="79" y="400" type="line"/>
      <point x="599" y="400" type="line"/>
      <point x="558" y="189" type="line"/>
      <point x="538" y="189" type="line"/>
      <point x="575" y="380" type="line"/>
    </contour>
  </outline>
</glyph>
<glyph name="uni00AD" format="2">
  <advance width="310.0"/>
  <unicode hex="00AD"/>
  <outline>
    <contour>
      <point x="66" y="289" type="line"/>
      <point x="70" y="309" type="line"/>
      <point x="300" y="309" type="line"/>
      <point x="296" y="289" type="line"/>
    </contour>
  </outline>
</glyph>
<glyph name="registered" format="2">
  <advance width="867.0"/>
  <unicode hex="00AE"/>
  <outline>
    <contour>
      <point x="52" y="287" type="qcurve" smooth="yes"/>
      <point x="52" y="375"/>
      <point x="125" y="535"/>
      <point x="251" y="660"/>
      <point x="413" y="732"/>
      <point x="504" y="732" type="qcurve" smooth="yes"/>
      <point x="597" y="732"/>
      <point x="736" y="655"/>
      <point x="813" y="519"/>
      <point x="813" y="429" type="qcurve" smooth="yes"/>
      <point x="813" y="359"/>
      <point x="765" y="228"/>
      <point x="680" y="117"/>
      <point x="566" y="34"/>
      <point x="432" y="-13"/>
      <point x="359" y="-13" type="qcurve" smooth="yes"/>
      <point x="266" y="-13"/>
      <point x="128" y="63"/>
      <point x="52" y="198"/>
    </contour>
    <contour>
      <point x="73" y="291" type="qcurve" smooth="yes"/>
      <point x="73" y="206"/>
      <point x="144" y="79"/>
      <point x="275" y="7"/>
      <point x="363" y="7" type="qcurve" smooth="yes"/>
      <point x="449" y="7"/>
      <point x="604" y="74"/>
      <point x="724" y="192"/>
      <point x="792" y="343"/>
      <point x="792" y="426" type="qcurve" smooth="yes"/>
      <point x="792" y="511"/>
      <point x="719" y="640"/>
      <point x="588" y="712"/>
      <point x="500" y="712" type="qcurve" smooth="yes"/>
      <point x="414" y="712"/>
      <point x="260" y="644"/>
      <point x="141" y="526"/>
      <point x="73" y="375"/>
    </contour>
    <contour>
      <point x="309" y="363" type="line"/>
      <point x="313" y="381" type="line"/>
      <point x="449" y="381" type="line" smooth="yes"/>
      <point x="486" y="381"/>
      <point x="554" y="414"/>
      <point x="598" y="473"/>
      <point x="598" y="512" type="qcurve" smooth="yes"/>
      <point x="598" y="547"/>
      <point x="557" y="582"/>
      <point x="517" y="582" type="qcurve" smooth="yes"/>
      <point x="342" y="582" type="line"/>
      <point x="346" y="600" type="line"/>
      <point x="524" y="600" type="line" smooth="yes"/>
      <point x="562" y="600"/>
      <point x="618" y="563"/>
      <point x="618" y="514" type="qcurve" smooth="yes"/>
      <point x="618" y="478"/>
      <point x="586" y="421"/>
      <point x="531" y="382"/>
      <point x="497" y="372" type="qcurve"/>
      <point x="533" y="363"/>
      <point x="553" y="309"/>
      <point x="553" y="275" type="qcurve" smooth="yes"/>
      <point x="553" y="251"/>
      <point x="549" y="203"/>
      <point x="549" y="185" type="qcurve" smooth="yes"/>
      <point x="549" y="167"/>
      <point x="551" y="141"/>
      <point x="552" y="130" type="qcurve"/>
      <point x="529" y="130" type="line"/>
      <point x="528" y="145"/>
      <point x="527" y="171"/>
      <point x="527" y="188" type="qcurve" smooth="yes"/>
      <point x="527" y="203"/>
      <point x="531" y="248"/>
      <point x="531" y="261" type="qcurve" smooth="yes"/>
      <point x="531" y="295"/>
      <point x="521" y="340"/>
      <point x="486" y="363"/>
      <point x="449" y="363" type="qcurve" smooth="yes"/>
    </contour>
    <contour>
      <point x="254" y="131" type="line"/>
      <point x="346" y="600" type="line"/>
      <point x="366" y="600" type="line"/>
      <point x="274" y="131" type="line"/>
    </contour>
  </outline>
</glyph>
<glyph name="macron" format="2">
  <advance width="416.0"/>
  <unicode hex="00AF"/>
  <outline>
    <contour>
      <point x="61" y="620" type="line"/>
      <point x="65" y="640" type="line"/>
      <point x="356" y="640" type="line"/>
      <point x="352" y="620" type="line"/>
    </contour>
  </outline>
</glyph>
<glyph name="degree" format="2">
  <advance width="320.0"/>
  <unicode hex="00B0"/>
  <outline>
    <contour>
      <point x="97" y="589" type="qcurve" smooth="yes"/>
      <point x="97" y="624"/>
      <point x="135" y="683.3814432989691"/>
      <point x="196" y="720"/>
      <point x="230" y="720" type="qcurve" smooth="yes"/>
      <point x="270" y="720"/>
      <point x="321" y="669"/>
      <point x="321" y="631" type="qcurve" smooth="yes"/>
      <point x="321" y="597"/>
      <point x="282" y="537"/>
      <point x="221.89705882352942" y="500"/>
      <point x="188.39705882352942" y="500" type="qcurve" smooth="yes"/>
      <point x="148" y="500"/>
      <point x="97" y="551"/>
    </contour>
    <contour>
      <point x="117" y="592.1518987341772" type="qcurve" smooth="yes"/>
      <point x="117" y="560.506329113924"/>
      <point x="158" y="520"/>
      <point x="189.91489361702128" y="520" type="qcurve" smooth="yes"/>
      <point x="218" y="520"/>
      <point x="269" y="550"/>
      <point x="300" y="599"/>
      <point x="300" y="627.695652173913" type="qcurve" smooth="yes"/>
      <point x="300" y="659"/>
      <point x="259.57894736842104" y="700"/>
      <point x="228" y="700" type="qcurve" smooth="yes"/>
      <point x="199.50819672131146" y="700"/>
      <point x="149" y="669"/>
      <point x="117" y="620"/>
    </contour>
  </outline>
</glyph>
<glyph name="plusminus" format="2">
  <advance width="1000.0"/>
  <unicode hex="00B1"/>
  <outline>
    <contour>
      <point x="215" y="378" type="line"/>
      <point x="219" y="398" type="line"/>
      <point x="509" y="398" type="line"/>
      <point x="548" y="600" type="line"/>
      <point x="568" y="600" type="line"/>
      <point x="529" y="398" type="line"/>
      <point x="819" y="398" type="line"/>
      <point x="815" y="378" type="line"/>
      <point x="525" y="378" type="line"/>
      <point x="486" y="178" type="line"/>
      <point x="466" y="178" type="line"/>
      <point x="505" y="378" type="line"/>
    </contour>
    <contour>
      <point x="146" y="22" type="line"/>
      <point x="150" y="42" type="line"/>
      <point x="750" y="42" type="line"/>
      <point x="746" y="22" type="line"/>
    </contour>
  </outline>
</glyph>
<glyph name="twosuperior" format="2">
  <advance width="353.0"/>
  <unicode hex="00B2"/>
  <outline>
    <contour>
      <point x="23" y="341" type="line"/>
      <point x="28" y="364" type="line"/>
      <point x="117" y="420" type="line" smooth="yes"/>
      <point x="136" y="431"/>
      <point x="192" y="468"/>
      <point x="253" y="513"/>
      <point x="306" y="566"/>
      <point x="340" y="621"/>
      <point x="340" y="649" type="qcurve" smooth="yes"/>
      <point x="340" y="681"/>
      <point x="292" y="714"/>
      <point x="249" y="714" type="qcurve" smooth="yes"/>
      <point x="195" y="714"/>
      <point x="121" y="661"/>
      <point x="105" y="613" type="qcurve"/>
      <point x="86" y="613" type="line"/>
      <point x="95" y="649"/>
      <point x="142" y="703"/>
      <point x="212" y="732"/>
      <point x="255" y="732" type="qcurve" smooth="yes"/>
      <point x="288" y="732"/>
      <point x="335" y="714"/>
      <point x="360" y="678"/>
      <point x="360" y="652" type="qcurve" smooth="yes"/>
      <point x="360" y="614"/>
      <point x="315" y="545"/>
      <point x="247" y="485"/>
      <point x="175" y="437"/>
      <point x="149" y="421" type="qcurve" smooth="yes"/>
      <point x="37" y="351" type="line"/>
      <point x="39" y="361" type="line"/>
      <point x="300" y="361" type="line"/>
      <point x="296" y="341" type="line"/>
    </contour>
  </outline>
</glyph>
<glyph name="threesuperior" format="2">
  <advance width="371.0"/>
  <unicode hex="00B3"/>
  <outline>
    <contour>
      <point x="56" y="428" type="qcurve" smooth="yes"/>
      <point x="56" y="440"/>
      <point x="58" y="452" type="qcurve"/>
      <point x="77" y="452" type="line"/>
      <point x="76" y="445"/>
      <point x="76" y="438" type="qcurve" smooth="yes"/>
      <point x="76" y="393"/>
      <point x="132" y="349"/>
      <point x="188" y="349" type="qcurve" smooth="yes"/>
      <point x="221" y="349"/>
      <point x="287" y="367"/>
      <point x="330" y="409"/>
      <point x="330" y="447" type="qcurve" smooth="yes"/>
      <point x="330" y="467"/>
      <point x="313" y="505"/>
      <point x="267" y="530"/>
      <point x="224" y="530" type="qcurve" smooth="yes"/>
      <point x="186" y="530" type="line"/>
      <point x="189" y="548" type="line"/>
      <point x="216" y="548" type="line" smooth="yes"/>
      <point x="248" y="548"/>
      <point x="310" y="569"/>
      <point x="350" y="613"/>
      <point x="350" y="648" type="qcurve" smooth="yes"/>
      <point x="350" y="714"/>
      <point x="266" y="714" type="qcurve" smooth="yes"/>
      <point x="208" y="714"/>
      <point x="133" y="661"/>
      <point x="125" y="622" type="qcurve"/>
      <point x="105" y="622" type="line"/>
      <point x="114" y="670"/>
      <point x="198" y="732"/>
      <point x="266" y="732" type="qcurve" smooth="yes"/>
      <point x="319" y="732"/>
      <point x="371" y="691"/>
      <point x="371" y="651" type="qcurve" smooth="yes"/>
      <point x="371" y="603"/>
      <point x="307" y="545"/>
      <point x="259" y="539" type="qcurve"/>
      <point x="260" y="543" type="line"/>
      <point x="350" y="536"/>
      <point x="350" y="452" type="qcurve" smooth="yes"/>
      <point x="350" y="419"/>
      <point x="321" y="372"/>
      <point x="273" y="344"/>
      <point x="214" y="331"/>
      <point x="183" y="331" type="qcurve" smooth="yes"/>
      <point x="120" y="331"/>
      <point x="56" y="381"/>
    </contour>
  </outline>
</glyph>
<glyph name="paragraph" format="2">
  <advance width="559.0"/>
  <unicode hex="00B6"/>
  <outline>
    <contour>
      <point x="148" y="-160" type="line"/>
      <point x="247" y="352" type="line"/>
      <point x="202" y="352"/>
      <point x="125" y="380"/>
      <point x="77" y="439"/>
      <point x="77" y="485" type="qcurve" smooth="yes"/>
      <point x="77" y="531"/>
      <point x="119" y="615"/>
      <point x="189" y="683"/>
      <point x="276" y="722"/>
      <point x="320" y="722" type="qcurve" smooth="yes"/>
      <point x="570" y="722" type="line"/>
      <point x="567" y="704" type="line"/>
      <point x="486" y="704" type="line"/>
      <point x="318" y="-160" type="line"/>
      <point x="298" y="-160" type="line"/>
      <point x="466" y="704" type="line"/>
      <point x="336" y="704" type="line"/>
      <point x="168" y="-160" type="line"/>
    </contour>
  </outline>
</glyph>
<glyph name="periodcentered" format="2">
  <advance width="206.0"/>
  <unicode hex="00B7"/>
  <outline>
    <contour>
      <point x="80" y="298" type="line"/>
      <point x="104" y="421" type="line"/>
      <point x="126" y="421" type="line"/>
      <point x="102" y="298" type="line"/>
    </contour>
  </outline>
</glyph>
<glyph name="cedilla" format="2">
  <advance width="268.0"/>
  <unicode hex="00B8"/>
  <outline>
    <contour>
      <point x="30" y="-213" type="qcurve"/>
      <point x="34" y="-195" type="line"/>
      <point x="54" y="-200"/>
      <point x="84" y="-200" type="qcurve" smooth="yes"/>
      <point x="135" y="-200"/>
      <point x="197" y="-158"/>
      <point x="197" y="-124" type="qcurve" smooth="yes"/>
      <point x="197" y="-98"/>
      <point x="160" y="-67"/>
      <point x="130" y="-67" type="qcurve" smooth="yes"/>
      <point x="119" y="-67"/>
      <point x="98" y="-70"/>
      <point x="87" y="-73" type="qcurve"/>
      <point x="83" y="-67" type="line"/>
      <point x="122" y="1" type="line"/>
      <point x="142" y="1" type="line"/>
      <point x="102" y="-66" type="line"/>
      <point x="95" y="-53" type="line"/>
      <point x="106" y="-50"/>
      <point x="124" y="-47"/>
      <point x="140" y="-47" type="qcurve" smooth="yes"/>
      <point x="175" y="-47"/>
      <point x="217" y="-87"/>
      <point x="217" y="-119" type="qcurve" smooth="yes"/>
      <point x="217" y="-149"/>
      <point x="184" y="-195"/>
      <point x="124" y="-220"/>
      <point x="84" y="-220" type="qcurve" smooth="yes"/>
      <point x="73" y="-220"/>
      <point x="40" y="-217"/>
    </contour>
  </outline>
</glyph>
<glyph name="onesuperior" format="2">
  <advance width="290.0"/>
  <unicode hex="00B9"/>
  <outline>
    <contour>
      <point x="150" y="343" type="line"/>
      <point x="219" y="698" type="line"/>
      <point x="190" y="679"/>
      <point x="135" y="655"/>
      <point x="112" y="650" type="qcurve"/>
      <point x="115" y="665" type="line"/>
      <point x="127" y="669"/>
      <point x="164" y="686"/>
      <point x="199" y="704"/>
      <point x="208" y="711" type="qcurve" smooth="yes"/>
      <point x="223" y="722" type="line"/>
      <point x="243" y="722" type="line"/>
      <point x="170" y="343" type="line"/>
    </contour>
  </outline>
</glyph>
<glyph name="ordmasculine" format="2">
  <advance width="418.0"/>
  <unicode hex="00BA"/>
  <outline>
    <contour>
      <point x="73" y="471" type="qcurve" smooth="yes"/>
      <point x="73" y="531"/>
      <point x="119" y="640"/>
      <point x="210" y="710"/>
      <point x="276" y="710" type="qcurve" smooth="yes"/>
      <point x="342" y="710"/>
      <point x="406" y="641"/>
      <point x="406" y="581" type="qcurve" smooth="yes"/>
      <point x="406" y="521"/>
      <point x="361" y="411"/>
      <point x="271" y="341"/>
      <point x="204" y="341" type="qcurve" smooth="yes"/>
      <point x="138" y="341"/>
      <point x="73" y="411"/>
    </contour>
    <contour>
      <point x="94" y="474" type="qcurve" smooth="yes"/>
      <point x="94" y="422"/>
      <point x="149" y="360"/>
      <point x="208" y="360" type="qcurve" smooth="yes"/>
      <point x="252" y="360"/>
      <point x="319" y="397"/>
      <point x="363" y="459"/>
      <point x="385" y="535"/>
      <point x="385" y="575" type="qcurve" smooth="yes"/>
      <point x="385" y="628"/>
      <point x="330" y="693"/>
      <point x="272" y="693" type="qcurve" smooth="yes"/>
      <point x="228" y="693"/>
      <point x="161" y="655"/>
      <point x="116" y="591"/>
      <point x="94" y="514"/>
    </contour>
    <contour>
      <point x="13" y="251" type="line"/>
      <point x="17" y="271" type="line"/>
      <point x="370" y="271" type="line"/>
      <point x="366" y="251" type="line"/>
    </contour>
  </outline>
</glyph>
<glyph name="guillemotright" format="2">
  <advance width="551.0"/>
  <unicode hex="00BB"/>
  <outline>
    <contour>
      <point x="81" y="57" type="line"/>
      <point x="247" y="262" type="line"/>
      <point x="243" y="242" type="line"/>
      <point x="156" y="447" type="line"/>
      <point x="176" y="447" type="line"/>
      <point x="276" y="252" type="line"/>
      <point x="101" y="57" type="line"/>
    </contour>
    <contour>
      <point x="275" y="57" type="line"/>
      <point x="442" y="262" type="line"/>
      <point x="438" y="242" type="line"/>
      <point x="351" y="447" type="line"/>
      <point x="371" y="447" type="line"/>
      <point x="470" y="252" type="line"/>
      <point x="295" y="57" type="line"/>
    </contour>
  </outline>
</glyph>
<glyph name="onequarter" format="2">
  <advance width="799.0"/>
  <unicode hex="00BC"/>
  <outline>
    <contour>
      <point x="51" y="-14" type="line"/>
      <point x="623" y="736" type="line"/>
      <point x="647" y="736" type="line"/>
      <point x="75" y="-14" type="line"/>
    </contour>
    <contour>
      <point x="389" y="113" type="line"/>
      <point x="393" y="133" type="line"/>
      <point x="628" y="390" type="line"/>
      <point x="645" y="390" type="line"/>
      <point x="569" y="0" type="line"/>
      <point x="549" y="0" type="line"/>
      <point x="622" y="373" type="line"/>
      <point x="626" y="362" type="line"/>
      <point x="406" y="122" type="line"/>
      <point x="409" y="131" type="line"/>
      <point x="678" y="131" type="line"/>
      <point x="674" y="113" type="line"/>
    </contour>
    <contour>
      <point x="150" y="343" type="line"/>
      <point x="219" y="698" type="line"/>
      <point x="190" y="679"/>
      <point x="135" y="655"/>
      <point x="112" y="650" type="qcurve"/>
      <point x="115" y="665" type="line"/>
      <point x="127" y="669"/>
      <point x="164" y="686"/>
      <point x="199" y="704"/>
      <point x="208" y="711" type="qcurve" smooth="yes"/>
      <point x="223" y="722" type="line"/>
      <point x="243" y="722" type="line"/>
      <point x="170" y="343" type="line"/>
    </contour>
  </outline>
</glyph>
<glyph name="onehalf" format="2">
  <advance width="799.0"/>
  <unicode hex="00BD"/>
  <outline>
    <contour>
      <point x="66" y="-14" type="line"/>
      <point x="638" y="736" type="line"/>
      <point x="662" y="736" type="line"/>
      <point x="90" y="-14" type="line"/>
    </contour>
    <contour>
      <point x="150" y="343" type="line"/>
      <point x="219" y="698" type="line"/>
      <point x="190" y="679"/>
      <point x="135" y="655"/>
      <point x="112" y="650" type="qcurve"/>
      <point x="115" y="665" type="line"/>
      <point x="127" y="669"/>
      <point x="164" y="686"/>
      <point x="199" y="704"/>
      <point x="208" y="711" type="qcurve" smooth="yes"/>
      <point x="223" y="722" type="line"/>
      <point x="243" y="722" type="line"/>
      <point x="170" y="343" type="line"/>
    </contour>
    <contour>
      <point x="382" y="0" type="line"/>
      <point x="386" y="23" type="line"/>
      <point x="476" y="79" type="line" smooth="yes"/>
      <point x="495" y="90"/>
      <point x="550" y="126"/>
      <point x="611" y="172"/>
      <point x="665" y="225"/>
      <point x="699" y="280"/>
      <point x="699" y="308" type="qcurve" smooth="yes"/>
      <point x="699" y="339"/>
      <point x="650" y="373"/>
      <point x="608" y="373" type="qcurve" smooth="yes"/>
      <point x="554" y="373"/>
      <point x="479" y="320"/>
      <point x="464" y="272" type="qcurve"/>
      <point x="445" y="272" type="line"/>
      <point x="454" y="308"/>
      <point x="501" y="361"/>
      <point x="570" y="391"/>
      <point x="614" y="391" type="qcurve" smooth="yes"/>
      <point x="647" y="391"/>
      <point x="694" y="373"/>
      <point x="719" y="337"/>
      <point x="719" y="310" type="qcurve" smooth="yes"/>
      <point x="719" y="273"/>
      <point x="674" y="204"/>
      <point x="606" y="144"/>
      <point x="534" y="96"/>
      <point x="507" y="79" type="qcurve" smooth="yes"/>
      <point x="396" y="10" type="line"/>
      <point x="397" y="20" type="line"/>
      <point x="659" y="20" type="line"/>
      <point x="655" y="0" type="line"/>
    </contour>
  </outline>
</glyph>
<glyph name="threequarters" format="2">
  <advance width="799.0"/>
  <unicode hex="00BE"/>
  <outline>
    <contour>
      <point x="56" y="429" type="qcurve" smooth="yes"/>
      <point x="56" y="440"/>
      <point x="57" y="452" type="qcurve"/>
      <point x="77" y="452" type="line"/>
      <point x="75" y="441"/>
      <point x="75" y="431" type="qcurve" smooth="yes"/>
      <point x="75" y="390"/>
      <point x="134" y="349"/>
      <point x="188" y="349" type="qcurve" smooth="yes"/>
      <point x="221" y="349"/>
      <point x="286" y="367"/>
      <point x="329" y="409"/>
      <point x="329" y="447" type="qcurve" smooth="yes"/>
      <point x="329" y="467"/>
      <point x="311" y="505"/>
      <point x="266" y="530"/>
      <point x="224" y="530" type="qcurve" smooth="yes"/>
      <point x="185" y="530" type="line"/>
      <point x="189" y="548" type="line"/>
      <point x="216" y="548" type="line" smooth="yes"/>
      <point x="247" y="548"/>
      <point x="309" y="569"/>
      <point x="350" y="613"/>
      <point x="350" y="648" type="qcurve" smooth="yes"/>
      <point x="350" y="714"/>
      <point x="265" y="714" type="qcurve" smooth="yes"/>
      <point x="208" y="714"/>
      <point x="133" y="661"/>
      <point x="125" y="622" type="qcurve"/>
      <point x="105" y="622" type="line"/>
      <point x="115" y="670"/>
      <point x="198" y="732"/>
      <point x="265" y="732" type="qcurve" smooth="yes"/>
      <point x="318" y="732"/>
      <point x="370" y="691"/>
      <point x="370" y="651" type="qcurve" smooth="yes"/>
      <point x="370" y="603"/>
      <point x="306" y="545"/>
      <point x="258" y="539" type="qcurve"/>
      <point x="259" y="543" type="line"/>
      <point x="349" y="536"/>
      <point x="349" y="452" type="qcurve" smooth="yes"/>
      <point x="349" y="419"/>
      <point x="320" y="372"/>
      <point x="272" y="344"/>
      <point x="214" y="331"/>
      <point x="183" y="331" type="qcurve" smooth="yes"/>
      <point x="120" y="331"/>
      <point x="56" y="381"/>
    </contour>
    <contour>
      <point x="114" y="-14" type="line"/>
      <point x="686" y="736" type="line"/>
      <point x="710" y="736" type="line"/>
      <point x="138" y="-14" type="line"/>
    </contour>
    <contour>
      <point x="389" y="113" type="line"/>
      <point x="393" y="133" type="line"/>
      <point x="628" y="390" type="line"/>
      <point x="645" y="390" type="line"/>
      <point x="569" y="0" type="line"/>
      <point x="549" y="0" type="line"/>
      <point x="622" y="373" type="line"/>
      <point x="626" y="362" type="line"/>
      <point x="406" y="122" type="line"/>
      <point x="409" y="131" type="line"/>
      <point x="678" y="131" type="line"/>
      <point x="674" y="113" type="line"/>
    </contour>
  </outline>
</glyph>
<glyph name="AE" format="2">
  <advance width="918.0"/>
  <unicode hex="00C6"/>
  <outline>
    <contour>
      <point x="41" y="0" type="line"/>
      <point x="564" y="722" type="line"/>
      <point x="570" y="722" type="line"/>
      <point x="563" y="687" type="line"/>
      <point x="66" y="0" type="line"/>
    </contour>
    <contour>
      <point x="218" y="227" type="line"/>
      <point x="235" y="247" type="line"/>
      <point x="493" y="247" type="line"/>
      <point x="489" y="227" type="line"/>
    </contour>
    <contour>
      <point x="440" y="0" type="line"/>
      <point x="443" y="18" type="line"/>
      <point x="791" y="18" type="line"/>
      <point x="788" y="0" type="line"/>
    </contour>
    <contour>
      <point x="510" y="359" type="line"/>
      <point x="513" y="379" type="line"/>
      <point x="841" y="379" type="line"/>
      <point x="838" y="359" type="line"/>
    </contour>
    <contour>
      <point x="577" y="704" type="line"/>
      <point x="580" y="722" type="line"/>
      <point x="918" y="722" type="line"/>
      <point x="915" y="704" type="line"/>
    </contour>
    <contour>
      <point x="430" y="0" type="line"/>
      <point x="570" y="722" type="line"/>
      <point x="592" y="722" type="line"/>
      <point x="452" y="0" type="line"/>
    </contour>
  </outline>
</glyph>
<glyph name="Eth" format="2">
  <advance width="719.0"/>
  <unicode hex="00D0"/>
  <outline>
    <contour>
      <point x="-2" y="352" type="line"/>
      <point x="2" y="372" type="line"/>
      <point x="353" y="372" type="line"/>
      <point x="349" y="352" type="line"/>
    </contour>
    <contour>
      <point x="81" y="0" type="line"/>
      <point x="221" y="722" type="line"/>
      <point x="243" y="722" type="line"/>
      <point x="103" y="0" type="line"/>
    </contour>
    <contour>
      <point x="91" y="0" type="line"/>
      <point x="95" y="20" type="line"/>
      <point x="315" y="20" type="line" smooth="yes"/>
      <point x="377" y="20"/>
      <point x="480" y="76"/>
      <point x="561" y="170"/>
      <point x="616" y="287"/>
      <point x="645" y="410"/>
      <point x="645" y="465" type="qcurve" smooth="yes"/>
      <point x="645" y="573"/>
      <point x="538" y="702"/>
      <point x="437" y="702" type="qcurve" smooth="yes"/>
      <point x="227" y="702" type="line"/>
      <point x="231" y="722" type="line"/>
      <point x="449" y="722" type="line" smooth="yes"/>
      <point x="517" y="722"/>
      <point x="615" y="664"/>
      <point x="668" y="550"/>
      <point x="668" y="467" type="qcurve" smooth="yes"/>
      <point x="668" y="405"/>
      <point x="638" y="275"/>
      <point x="578" y="153"/>
      <point x="488" y="57"/>
      <point x="371" y="0"/>
      <point x="299" y="0" type="qcurve" smooth="yes"/>
    </contour>
  </outline>
</glyph>
<glyph name="multiply" format="2">
  <advance width="640.0"/>
  <unicode hex="00D7"/>
  <outline>
    <contour>
      <point x="19" y="57" type="line"/>
      <point x="617" y="558" type="line"/>
      <point x="629" y="543" type="line"/>
      <point x="31" y="42" type="line"/>
    </contour>
    <contour>
      <point x="113" y="543" type="line"/>
      <point x="131" y="558" type="line"/>
      <point x="535" y="57" type="line"/>
      <point x="517" y="42" type="line"/>
    </contour>
  </outline>
</glyph>
<glyph name="Oslash" format="2">
  <advance width="788.0"/>
  <unicode hex="00D8"/>
  <outline>
    <contour>
      <point x="60" y="-10" type="line"/>
      <point x="701" y="732" type="line"/>
      <point x="727" y="732" type="line"/>
      <point x="86" y="-10" type="line"/>
    </contour>
    <contour>
      <point x="85" y="233" type="qcurve" smooth="yes"/>
      <point x="85" y="344"/>
      <point x="141" y="527"/>
      <point x="245" y="660"/>
      <point x="387" y="732"/>
      <point x="473" y="732" type="qcurve" smooth="yes"/>
      <point x="589" y="732"/>
      <point x="707" y="609"/>
      <point x="707" y="489" type="qcurve" smooth="yes"/>
      <point x="707" y="379"/>
      <point x="651" y="196"/>
      <point x="549" y="63"/>
      <point x="409" y="-10"/>
      <point x="324" y="-10" type="qcurve" smooth="yes"/>
      <point x="252" y="-10"/>
      <point x="145" y="51"/>
      <point x="85" y="160"/>
    </contour>
    <contour>
      <point x="107" y="242" type="qcurve" smooth="yes"/>
      <point x="107" y="172"/>
      <point x="162" y="68"/>
      <point x="262" y="10"/>
      <point x="328" y="10" type="qcurve" smooth="yes"/>
      <point x="405" y="10"/>
      <point x="536" y="80"/>
      <point x="632" y="206"/>
      <point x="685" y="378"/>
      <point x="685" y="479" type="qcurve" smooth="yes"/>
      <point x="685" y="593"/>
      <point x="574" y="712"/>
      <point x="468" y="712" type="qcurve" smooth="yes"/>
      <point x="390" y="712"/>
      <point x="258" y="642"/>
      <point x="160" y="515"/>
      <point x="107" y="344"/>
    </contour>
  </outline>
</glyph>
<glyph name="Thorn" format="2">
  <advance width="606.0"/>
  <unicode hex="00DE"/>
  <outline>
    <contour>
      <point x="101" y="172" type="line"/>
      <point x="105" y="192" type="line"/>
      <point x="226" y="192" type="line" smooth="yes"/>
      <point x="313" y="192"/>
      <point x="447" y="234"/>
      <point x="522" y="340"/>
      <point x="522" y="435" type="qcurve" smooth="yes"/>
      <point x="522" y="507"/>
      <point x="416" y="568"/>
      <point x="299" y="568" type="qcurve" smooth="yes"/>
      <point x="178" y="568" type="line"/>
      <point x="182" y="588" type="line"/>
      <point x="300" y="588" type="line" smooth="yes"/>
      <point x="386" y="588"/>
      <point x="495" y="559"/>
      <point x="545" y="495"/>
      <point x="545" y="443" type="qcurve" smooth="yes"/>
      <point x="545" y="364"/>
      <point x="498" y="260"/>
      <point x="411" y="198"/>
      <point x="291" y="172"/>
      <point x="219" y="172" type="qcurve" smooth="yes"/>
    </contour>
    <contour>
      <point x="61" y="0" type="line"/>
      <point x="201" y="723" type="line"/>
      <point x="223" y="723" type="line"/>
      <point x="83" y="0" type="line"/>
    </contour>
  </outline>
</glyph>
<glyph name="germandbls" format="2">
  <advance width="578.0"/>
  <unicode hex="00DF"/>
  <outline>
    <contour>
      <point x="61" y="0" type="line"/>
      <point x="165" y="538" type="line" smooth="yes"/>
      <point x="178" y="602"/>
      <point x="236" y="689"/>
      <point x="327" y="732"/>
      <point x="388" y="732" type="qcurve" smooth="yes"/>
      <point x="434" y="732"/>
      <point x="499" y="704"/>
      <point x="532" y="652"/>
      <point x="532" y="615" type="qcurve" smooth="yes"/>
      <point x="532" y="597"/>
      <point x="529" y="578" type="qcurve" smooth="yes"/>
      <point x="521" y="537"/>
      <point x="485" y="483"/>
      <point x="440" y="447"/>
      <point x="397" y="423"/>
      <point x="368" y="402"/>
      <point x="365" y="389" type="qcurve"/>
      <point x="362" y="372"/>
      <point x="394" y="348"/>
      <point x="445" y="323"/>
      <point x="497" y="287"/>
      <point x="533" y="232"/>
      <point x="533" y="188" type="qcurve" smooth="yes"/>
      <point x="533" y="128"/>
      <point x="483" y="39"/>
      <point x="393" y="-10"/>
      <point x="332" y="-10" type="qcurve" smooth="yes"/>
      <point x="269" y="-10"/>
      <point x="194" y="45"/>
      <point x="194" y="103" type="qcurve" smooth="yes"/>
      <point x="194" y="122"/>
      <point x="198" y="143" type="qcurve"/>
      <point x="220" y="143" type="line"/>
      <point x="217" y="125"/>
      <point x="217" y="108" type="qcurve" smooth="yes"/>
      <point x="217" y="10"/>
      <point x="339" y="10" type="qcurve" smooth="yes"/>
      <point x="392" y="10"/>
      <point x="468" y="52"/>
      <point x="509" y="128"/>
      <point x="509" y="179" type="qcurve" smooth="yes"/>
      <point x="509" y="224"/>
      <point x="473" y="279"/>
      <point x="420" y="312"/>
      <point x="369" y="337"/>
      <point x="338" y="364"/>
      <point x="342" y="386" type="qcurve" smooth="yes"/>
      <point x="346" y="405"/>
      <point x="377" y="431"/>
      <point x="420" y="455"/>
      <point x="464" y="488"/>
      <point x="500" y="540"/>
      <point x="508" y="581" type="qcurve"/>
      <point x="509" y="584"/>
      <point x="510" y="591"/>
      <point x="511" y="597"/>
      <point x="511" y="603"/>
      <point x="511" y="609"/>
      <point x="511" y="612" type="qcurve" smooth="yes"/>
      <point x="511" y="660"/>
      <point x="446" y="712"/>
      <point x="385" y="712" type="qcurve" smooth="yes"/>
      <point x="300" y="712"/>
      <point x="203" y="620"/>
      <point x="186" y="532" type="qcurve" smooth="yes"/>
      <point x="83" y="0" type="line"/>
    </contour>
  </outline>
</glyph>
<glyph name="ae" format="2">
  <advance width="905.0"/>
  <unicode hex="00E6"/>
  <outline>
    <contour>
      <point x="32" y="113" type="qcurve" smooth="yes"/>
      <point x="32" y="167"/>
      <point x="69" y="236"/>
      <point x="140" y="274"/>
      <point x="243" y="289"/>
      <point x="307" y="289" type="qcurve" smooth="yes"/>
      <point x="329" y="289"/>
      <point x="404" y="285"/>
      <point x="432" y="283" type="qcurve"/>
      <point x="435" y="299"/>
      <point x="437" y="329"/>
      <point x="437" y="343" type="qcurve" smooth="yes"/>
      <point x="437" y="415"/>
      <point x="367" y="492"/>
      <point x="296" y="492" type="qcurve" smooth="yes"/>
      <point x="250" y="492"/>
      <point x="178" y="458"/>
      <point x="134" y="404"/>
      <point x="129" y="376" type="qcurve"/>
      <point x="109" y="376" type="line"/>
      <point x="121" y="438"/>
      <point x="225" y="512"/>
      <point x="300" y="512" type="qcurve" smooth="yes"/>
      <point x="381" y="512"/>
      <point x="458" y="423"/>
      <point x="457" y="344" type="qcurve"/>
      <point x="478" y="401"/>
      <point x="549" y="476"/>
      <point x="632" y="512"/>
      <point x="671" y="512" type="qcurve" smooth="yes"/>
      <point x="750" y="512"/>
      <point x="827" y="426"/>
      <point x="827" y="351" type="qcurve" smooth="yes"/>
      <point x="827" y="318"/>
      <point x="819" y="280" type="qcurve" smooth="yes"/>
      <point x="816" y="263" type="line"/>
      <point x="448" y="263" type="line"/>
      <point x="444" y="241"/>
      <point x="440" y="199"/>
      <point x="440" y="180" type="qcurve" smooth="yes"/>
      <point x="440" y="126"/>
      <point x="475" y="50"/>
      <point x="542" y="10"/>
      <point x="590" y="10" type="qcurve" smooth="yes"/>
      <point x="656" y="10"/>
      <point x="746" y="84"/>
      <point x="768" y="157" type="qcurve"/>
      <point x="788" y="157" type="line"/>
      <point x="763" y="76"/>
      <point x="659" y="-10"/>
      <point x="586" y="-10" type="qcurve" smooth="yes"/>
      <point x="503" y="-10"/>
      <point x="423" y="83"/>
      <point x="422" y="181" type="qcurve"/>
      <point x="407" y="138"/>
      <point x="355" y="68"/>
      <point x="289" y="17"/>
      <point x="217" y="-10"/>
      <point x="181" y="-10" type="qcurve" smooth="yes"/>
      <point x="133" y="-10"/>
      <point x="66" y="19"/>
      <point x="32" y="74"/>
    </contour>
    <contour>
      <point x="52" y="119" type="qcurve" smooth="yes"/>
      <point x="52" y="65"/>
      <point x="122" y="10"/>
      <point x="189" y="10" type="qcurve" smooth="yes"/>
      <point x="227" y="10"/>
      <point x="303" y="49"/>
      <point x="369" y="116"/>
      <point x="417" y="202"/>
      <point x="426" y="250" type="qcurve" smooth="yes"/>
      <point x="428" y="263" type="line"/>
      <point x="414" y="264"/>
      <point x="364" y="267"/>
      <point x="318" y="269"/>
      <point x="308" y="269" type="qcurve" smooth="yes"/>
      <point x="261" y="269"/>
      <point x="170" y="260"/>
      <point x="96" y="231"/>
      <point x="52" y="170"/>
    </contour>
    <contour>
      <point x="452" y="283" type="qcurve"/>
      <point x="798" y="283" type="line"/>
      <point x="805" y="319"/>
      <point x="805" y="350" type="qcurve" smooth="yes"/>
      <point x="805" y="424"/>
      <point x="728" y="492"/>
      <point x="662" y="492" type="qcurve" smooth="yes"/>
      <point x="620" y="492"/>
      <point x="541" y="446"/>
      <point x="475" y="353"/>
    </contour>
  </outline>
</glyph>
<glyph name="eth" format="2">
  <advance width="587.0"/>
  <unicode hex="00F0"/>
  <outline>
    <contour>
      <point x="38" y="177" type="qcurve" smooth="yes"/>
      <point x="38" y="239"/>
      <point x="74" y="359"/>
      <point x="146" y="456"/>
      <point x="254" y="513"/>
      <point x="326" y="513" type="qcurve" smooth="yes"/>
      <point x="361" y="513"/>
      <point x="418" y="496"/>
      <point x="464" y="459"/>
      <point x="486" y="429" type="qcurve"/>
      <point x="485" y="402" type="line"/>
      <point x="471" y="457"/>
      <point x="426" y="550"/>
      <point x="357" y="628"/>
      <point x="259" y="695"/>
      <point x="193" y="725" type="qcurve"/>
      <point x="210" y="734" type="line"/>
      <point x="310" y="693"/>
      <point x="441" y="576"/>
      <point x="505" y="430"/>
      <point x="505" y="344" type="qcurve" smooth="yes"/>
      <point x="505" y="281"/>
      <point x="470" y="155"/>
      <point x="398" y="52"/>
      <point x="291" y="-10"/>
      <point x="219" y="-10" type="qcurve" smooth="yes"/>
      <point x="131" y="-10"/>
      <point x="38" y="88"/>
    </contour>
    <contour>
      <point x="58" y="186" type="qcurve" smooth="yes"/>
      <point x="58" y="107"/>
      <point x="148" y="8"/>
      <point x="226" y="8" type="qcurve" smooth="yes"/>
      <point x="285" y="8"/>
      <point x="380" y="63"/>
      <point x="447" y="155"/>
      <point x="483" y="264"/>
      <point x="483" y="317" type="qcurve" smooth="yes"/>
      <point x="483" y="403"/>
      <point x="394" y="495"/>
      <point x="316" y="495" type="qcurve" smooth="yes"/>
      <point x="256" y="495"/>
      <point x="160" y="442"/>
      <point x="93" y="354"/>
      <point x="58" y="244"/>
    </contour>
    <contour>
      <point x="131" y="545" type="line"/>
      <point x="127" y="558" type="line"/>
      <point x="494" y="711" type="line"/>
      <point x="498" y="697" type="line"/>
    </contour>
  </outline>
</glyph>
<glyph name="divide" format="2">
  <advance width="1000.0"/>
  <unicode hex="00F7"/>
  <outline>
    <contour>
      <point x="206" y="290" type="line"/>
      <point x="210" y="310" type="line"/>
      <point x="810" y="310" type="line"/>
      <point x="806" y="290" type="line"/>
    </contour>
    <contour>
      <point x="453" y="78" type="line"/>
      <point x="477" y="201" type="line"/>
      <point x="499" y="201" type="line"/>
      <point x="475" y="78" type="line"/>
    </contour>
    <contour>
      <point x="516" y="399" type="line"/>
      <point x="540" y="522" type="line"/>
      <point x="562" y="522" type="line"/>
      <point x="538" y="399" type="line"/>
    </contour>
  </outline>
</glyph>
<glyph name="oslash" format="2">
  <advance width="591.0"/>
  <unicode hex="00F8"/>
  <outline>
    <contour>
      <point x="30" y="-10" type="line"/>
      <point x="514" y="510" type="line"/>
      <point x="542" y="510" type="line"/>
      <point x="58" y="-10" type="line"/>
    </contour>
    <contour>
      <point x="59" y="177" type="qcurve" smooth="yes"/>
      <point x="59" y="240"/>
      <point x="97" y="359"/>
      <point x="171" y="454"/>
      <point x="279" y="510"/>
      <point x="348" y="510" type="qcurve" smooth="yes"/>
      <point x="438" y="510"/>
      <point x="534" y="412"/>
      <point x="534" y="324" type="qcurve" smooth="yes"/>
      <point x="534" y="261"/>
      <point x="496" y="142"/>
      <point x="422" y="46"/>
      <point x="315" y="-10"/>
      <point x="246" y="-10" type="qcurve" smooth="yes"/>
      <point x="155" y="-10"/>
      <point x="59" y="89"/>
    </contour>
    <contour>
      <point x="81" y="184" type="qcurve" smooth="yes"/>
      <point x="81" y="103"/>
      <point x="170" y="10"/>
      <point x="249" y="10" type="qcurve" smooth="yes"/>
      <point x="311" y="10"/>
      <point x="408" y="62"/>
      <point x="475" y="151"/>
      <point x="511" y="259"/>
      <point x="511" y="316" type="qcurve" smooth="yes"/>
      <point x="511" y="397"/>
      <point x="423" y="490"/>
      <point x="343" y="490" type="qcurve" smooth="yes"/>
      <point x="281" y="490"/>
      <point x="184" y="438"/>
      <point x="117" y="349"/>
      <point x="81" y="241"/>
    </contour>
  </outline>
</glyph>
<glyph name="thorn" format="2">
  <advance width="621.0"/>
  <unicode hex="00FE"/>
  <outline>
    <contour>
      <point x="41" y="-200" type="line"/>
      <point x="220" y="722" type="line"/>
      <point x="240" y="722" type="line"/>
      <point x="61" y="-200" type="line"/>
    </contour>
    <contour>
      <point x="123" y="171" type="qcurve"/>
      <point x="155" y="338" type="line"/>
      <point x="176" y="391"/>
      <point x="250" y="469"/>
      <point x="342" y="512"/>
      <point x="389" y="512" type="qcurve" smooth="yes"/>
      <point x="472" y="512"/>
      <point x="570" y="419"/>
      <point x="570" y="323" type="qcurve" smooth="yes"/>
      <point x="570" y="266"/>
      <point x="534" y="148"/>
      <point x="463" y="50"/>
      <point x="361" y="-10"/>
      <point x="295" y="-10" type="qcurve" smooth="yes"/>
      <point x="214" y="-10"/>
      <point x="126" y="88"/>
    </contour>
    <contour>
      <point x="142" y="182" type="qcurve" smooth="yes"/>
      <point x="142" y="100"/>
      <point x="222" y="10"/>
      <point x="296" y="10" type="qcurve" smooth="yes"/>
      <point x="358" y="10"/>
      <point x="452" y="67"/>
      <point x="517" y="159"/>
      <point x="550" y="268"/>
      <point x="550" y="321" type="qcurve" smooth="yes"/>
      <point x="550" y="409"/>
      <point x="460" y="492"/>
      <point x="383" y="492" type="qcurve" smooth="yes"/>
      <point x="325" y="492"/>
      <point x="235" y="435"/>
      <point x="174" y="342"/>
      <point x="142" y="233"/>
    </contour>
  </outline>
</glyph>
<glyph name="dcroat" format="2">
  <advance width="561.0"/>
  <unicode hex="0111"/>
  <outline>
    <contour>
      <point x="345" y="602" type="line"/>
      <point x="349" y="622" type="line"/>
      <point x="611" y="622" type="line"/>
      <point x="607" y="602" type="line"/>
    </contour>
    <contour>
      <point x="-32" y="170" type="qcurve" smooth="yes"/>
      <point x="-32" y="233"/>
      <point x="3" y="355"/>
      <point x="73" y="453"/>
      <point x="179" y="512"/>
      <point x="249" y="512" type="qcurve" smooth="yes"/>
      <point x="307" y="512"/>
      <point x="383" y="459"/>
      <point x="421" y="373"/>
      <point x="421" y="325" type="qcurve"/>
      <point x="391" y="170" type="line"/>
      <point x="370" y="115"/>
      <point x="293" y="34"/>
      <point x="199" y="-10"/>
      <point x="152" y="-10" type="qcurve" smooth="yes"/>
      <point x="61" y="-10"/>
      <point x="-32" y="84"/>
    </contour>
    <contour>
      <point x="-12" y="174" type="qcurve" smooth="yes"/>
      <point x="-12" y="91"/>
      <point x="76" y="10"/>
      <point x="158" y="10" type="qcurve" smooth="yes"/>
      <point x="214" y="10"/>
      <point x="304" y="65"/>
      <point x="368" y="154"/>
      <point x="403" y="260"/>
      <point x="402" y="311" type="qcurve" smooth="yes"/>
      <point x="402" y="365"/>
      <point x="365" y="446"/>
      <point x="295" y="492"/>
      <point x="247" y="492" type="qcurve" smooth="yes"/>
      <point x="180" y="492"/>
      <point x="83" y="438"/>
      <point x="19" y="346"/>
      <point x="-12" y="233"/>
    </contour>
    <contour>
      <point x="349" y="0" type="line"/>
      <point x="489" y="722" type="line"/>
      <point x="509" y="722" type="line"/>
      <point x="369" y="0" type="line"/>
    </contour>
  </outline>
</glyph>
<glyph name="Hbar" format="2">
  <advance width="669.0"/>
  <unicode hex="0126"/>
  <outline>
    <contour>
      <point x="165" y="539" type="line"/>
      <point x="168" y="559" type="line"/>
      <point x="748" y="559" type="line"/>
      <point x="745" y="539" type="line"/>
    </contour>
    <contour>
      <point x="191" y="361" type="line"/>
      <point x="195" y="379" type="line"/>
      <point x="652" y="379" type="line"/>
      <point x="648" y="361" type="line"/>
    </contour>
    <contour>
      <point x="108" y="0" type="line"/>
      <point x="248" y="722" type="line"/>
      <point x="270" y="722" type="line"/>
      <point x="130" y="0" type="line"/>
    </contour>
    <contour>
      <point x="568" y="0" type="line"/>
      <point x="708" y="722" type="line"/>
      <point x="730" y="722" type="line"/>
      <point x="590" y="0" type="line"/>
    </contour>
  </outline>
</glyph>
<glyph name="hbar" format="2">
  <advance width="583.0"/>
  <unicode hex="0127"/>
  <outline>
    <contour>
      <point x="94" y="590" type="line"/>
      <point x="97" y="610" type="line"/>
      <point x="462" y="610" type="line"/>
      <point x="459" y="590" type="line"/>
    </contour>
    <contour>
      <point x="152" y="376" type="line"/>
      <point x="157" y="402" type="line"/>
      <point x="170" y="420" type="line" smooth="yes"/>
      <point x="191" y="447"/>
      <point x="256" y="488"/>
      <point x="329" y="510"/>
      <point x="361" y="510" type="qcurve" smooth="yes"/>
      <point x="437" y="510"/>
      <point x="520" y="437"/>
      <point x="520" y="367" type="qcurve" smooth="yes"/>
      <point x="520" y="341"/>
      <point x="514" y="312" type="qcurve" smooth="yes"/>
      <point x="454" y="0" type="line"/>
      <point x="434" y="0" type="line"/>
      <point x="495" y="316" type="line" smooth="yes"/>
      <point x="500" y="342"/>
      <point x="500" y="364" type="qcurve" smooth="yes"/>
      <point x="500" y="427"/>
      <point x="424" y="490"/>
      <point x="354" y="490" type="qcurve" smooth="yes"/>
      <point x="317" y="490"/>
      <point x="236" y="460"/>
      <point x="173" y="409"/>
      <point x="162" y="376" type="qcurve"/>
    </contour>
    <contour>
      <point x="70" y="0" type="line"/>
      <point x="210" y="722" type="line"/>
      <point x="230" y="722" type="line"/>
      <point x="90" y="0" type="line"/>
    </contour>
  </outline>
</glyph>
<glyph name="kgreenlandic" format="2">
  <advance width="371.0"/>
  <unicode hex="0138"/>
  <outline>
    <contour>
      <point x="20" y="0" type="line"/>
      <point x="116" y="493" type="line"/>
      <point x="138" y="500" type="line"/>
      <point x="40" y="0" type="line"/>
    </contour>
    <contour>
      <point x="116" y="272" type="line"/>
      <point x="119" y="288" type="line"/>
      <point x="339" y="0" type="line"/>
      <point x="310" y="0" type="line"/>
      <point x="95" y="281" type="line"/>
      <point x="378" y="500" type="line"/>
      <point x="411" y="500" type="line"/>
    </contour>
  </outline>
</glyph>
<glyph name="Lslash" format="2">
  <advance width="483.0"/>
  <unicode hex="0141"/>
  <outline>
    <contour>
      <point x="137" y="274" type="line"/>
      <point x="142" y="302" type="line"/>
      <point x="292" y="426" type="line"/>
      <point x="286" y="396" type="line"/>
    </contour>
    <contour>
      <point x="7" y="166" type="line"/>
      <point x="12" y="193" type="line"/>
      <point x="138" y="298" type="line"/>
      <point x="133" y="270" type="line"/>
    </contour>
    <contour>
      <point x="71" y="0" type="line"/>
      <point x="74" y="18" type="line"/>
      <point x="432" y="18" type="line"/>
      <point x="429" y="0" type="line"/>
    </contour>
    <contour>
      <point x="69" y="0" type="line"/>
      <point x="209" y="722" type="line"/>
      <point x="231" y="722" type="line"/>
      <point x="91" y="0" type="line"/>
    </contour>
  </outline>
</glyph>
<glyph name="lslash" format="2">
  <advance width="343.0"/>
  <unicode hex="0142"/>
  <outline>
    <contour>
      <point x="20" y="255" type="line"/>
      <point x="26" y="285" type="line"/>
      <point x="352" y="553" type="line"/>
      <point x="346" y="523" type="line"/>
    </contour>
    <contour>
      <point x="90" y="0" type="line"/>
      <point x="230" y="722" type="line"/>
      <point x="252" y="722" type="line"/>
      <point x="112" y="0" type="line"/>
    </contour>
  </outline>
</glyph>
<glyph name="Eng" format="2">
  <advance width="782.0"/>
  <unicode hex="014A"/>
  <outline>
    <contour>
      <point x="213" y="722" type="line"/>
      <point x="235" y="722" type="line"/>
      <point x="568" y="0" type="line"/>
      <point x="546" y="0" type="line"/>
    </contour>
    <contour>
      <point x="61" y="0" type="line"/>
      <point x="201" y="722" type="line"/>
      <point x="223" y="722" type="line"/>
      <point x="83" y="0" type="line"/>
    </contour>
    <contour>
      <point x="559" y="0" type="line"/>
      <point x="699" y="722" type="line"/>
      <point x="721" y="722" type="line"/>
      <point x="581" y="0" type="line"/>
    </contour>
    <contour>
      <point x="313" y="-143" type="qcurve"/>
      <point x="331" y="-128" type="line"/>
      <point x="343" y="-152"/>
      <point x="393" y="-180"/>
      <point x="425" y="-180" type="qcurve" smooth="yes"/>
      <point x="474" y="-180"/>
      <point x="537" y="-115"/>
      <point x="547" y="-62" type="qcurve" smooth="yes"/>
      <point x="563" y="20" type="line"/>
      <point x="585" y="20" type="line"/>
      <point x="569" y="-62" type="line" smooth="yes"/>
      <point x="561" y="-102"/>
      <point x="520" y="-165"/>
      <point x="464" y="-200"/>
      <point x="431" y="-200" type="qcurve" smooth="yes"/>
      <point x="386" y="-200"/>
      <point x="330" y="-173"/>
    </contour>
  </outline>
</glyph>
<glyph name="eng" format="2">
  <advance width="531.0"/>
  <unicode hex="014B"/>
  <outline>
    <contour>
      <point x="40" y="0" type="line"/>
      <point x="138" y="500" type="line"/>
      <point x="158" y="500" type="line"/>
      <point x="60" y="0" type="line"/>
    </contour>
    <contour>
      <point x="123" y="376" type="line"/>
      <point x="128" y="402" type="line"/>
      <point x="141" y="420" type="line" smooth="yes"/>
      <point x="162" y="447"/>
      <point x="227" y="488"/>
      <point x="300" y="510"/>
      <point x="332" y="510" type="qcurve" smooth="yes"/>
      <point x="407" y="510"/>
      <point x="491" y="437"/>
      <point x="491" y="367" type="qcurve" smooth="yes"/>
      <point x="491" y="341"/>
      <point x="485" y="312" type="qcurve" smooth="yes"/>
      <point x="424" y="0" type="line"/>
      <point x="404" y="0" type="line"/>
      <point x="466" y="316" type="line" smooth="yes"/>
      <point x="471" y="342"/>
      <point x="471" y="364" type="qcurve" smooth="yes"/>
      <point x="471" y="427"/>
      <point x="394" y="490"/>
      <point x="324" y="490" type="qcurve" smooth="yes"/>
      <point x="287" y="490"/>
      <point x="207" y="460"/>
      <point x="144" y="409"/>
      <point x="133" y="376" type="qcurve"/>
    </contour>
    <contour>
      <point x="163" y="-143" type="qcurve"/>
      <point x="180" y="-129" type="line"/>
      <point x="195" y="-156"/>
      <point x="233" y="-180"/>
      <point x="260" y="-180" type="qcurve" smooth="yes"/>
      <point x="314" y="-180"/>
      <point x="381" y="-121"/>
      <point x="392" y="-62" type="qcurve" smooth="yes"/>
      <point x="414" y="50" type="line"/>
      <point x="434" y="50" type="line"/>
      <point x="412" y="-62" type="line" smooth="yes"/>
      <point x="404" y="-106"/>
      <point x="362" y="-168"/>
      <point x="299" y="-200"/>
      <point x="257" y="-200" type="qcurve" smooth="yes"/>
      <point x="236" y="-200"/>
      <point x="199" y="-186"/>
      <point x="171" y="-161"/>
    </contour>
  </outline>
</glyph>
<glyph name="OE" format="2">
  <advance width="919.0"/>
  <unicode hex="0152"/>
  <outline>
    <contour>
      <point x="60" y="233" type="qcurve" smooth="yes"/>
      <point x="60" y="303"/>
      <point x="88" y="445"/>
      <point x="146" y="574"/>
      <point x="237" y="674"/>
      <point x="363" y="732"/>
      <point x="444" y="732" type="qcurve"/>
      <point x="440" y="712" type="line"/>
      <point x="366" y="712"/>
      <point x="250" y="657"/>
      <point x="165" y="561"/>
      <point x="110" y="440"/>
      <point x="83" y="307"/>
      <point x="83" y="242" type="qcurve" smooth="yes"/>
      <point x="83" y="173"/>
      <point x="128" y="68"/>
      <point x="225" y="10"/>
      <point x="304" y="10" type="qcurve"/>
      <point x="300" y="-10" type="line"/>
      <point x="214" y="-10"/>
      <point x="108" y="50"/>
      <point x="60" y="159"/>
    </contour>
    <contour>
      <point x="440" y="712" type="qcurve"/>
      <point x="444" y="732" type="line"/>
      <point x="467" y="732"/>
      <point x="519" y="730"/>
      <point x="570" y="725"/>
      <point x="589" y="721" type="qcurve"/>
      <point x="585" y="701" type="line"/>
      <point x="555" y="707"/>
      <point x="483" y="712"/>
    </contour>
    <contour>
      <point x="300" y="-10" type="qcurve"/>
      <point x="304" y="10" type="line"/>
      <point x="357" y="10"/>
      <point x="422" y="16"/>
      <point x="452" y="25" type="qcurve"/>
      <point x="448" y="1" type="line"/>
      <point x="429" y="-3"/>
      <point x="391" y="-8"/>
      <point x="339" y="-10"/>
    </contour>
    <contour>
      <point x="431" y="-1" type="line"/>
      <point x="434" y="17" type="line"/>
      <point x="792" y="17" type="line"/>
      <point x="789" y="-1" type="line"/>
    </contour>
    <contour>
      <point x="430" y="-1" type="line"/>
      <point x="570" y="721" type="line"/>
      <point x="592" y="721" type="line"/>
      <point x="452" y="-1" type="line"/>
    </contour>
    <contour>
      <point x="500" y="357" type="line"/>
      <point x="504" y="377" type="line"/>
      <point x="842" y="377" type="line"/>
      <point x="838" y="357" type="line"/>
    </contour>
    <contour>
      <point x="568" y="703" type="line"/>
      <point x="571" y="721" type="line"/>
      <point x="919" y="721" type="line"/>
      <point x="916" y="703" type="line"/>
    </contour>
  </outline>
</glyph>
<glyph name="oe" format="2">
  <advance width="1014.0"/>
  <unicode hex="0153"/>
  <outline>
    <contour>
      <point x="50" y="177" type="qcurve" smooth="yes"/>
      <point x="50" y="240"/>
      <point x="89" y="359"/>
      <point x="163" y="454"/>
      <point x="271" y="510"/>
      <point x="339" y="510" type="qcurve" smooth="yes"/>
      <point x="430" y="510"/>
      <point x="525" y="412"/>
      <point x="525" y="324" type="qcurve" smooth="yes"/>
      <point x="525" y="261"/>
      <point x="488" y="142"/>
      <point x="414" y="46"/>
      <point x="307" y="-10"/>
      <point x="238" y="-10" type="qcurve" smooth="yes"/>
      <point x="147" y="-10"/>
      <point x="50" y="89"/>
    </contour>
    <contour>
      <point x="73" y="185" type="qcurve" smooth="yes"/>
      <point x="73" y="103"/>
      <point x="162" y="10"/>
      <point x="241" y="10" type="qcurve" smooth="yes"/>
      <point x="303" y="10"/>
      <point x="399" y="62"/>
      <point x="467" y="151"/>
      <point x="503" y="259"/>
      <point x="503" y="316" type="qcurve" smooth="yes"/>
      <point x="503" y="397"/>
      <point x="414" y="490"/>
      <point x="334" y="490" type="qcurve" smooth="yes"/>
      <point x="273" y="490"/>
      <point x="176" y="438"/>
      <point x="108" y="349"/>
      <point x="73" y="241"/>
    </contour>
    <contour>
      <point x="489" y="179" type="qcurve" smooth="yes"/>
      <point x="489" y="242"/>
      <point x="527" y="362"/>
      <point x="602" y="456"/>
      <point x="710" y="512"/>
      <point x="779" y="512" type="qcurve" smooth="yes"/>
      <point x="867" y="512"/>
      <point x="963" y="420"/>
      <point x="963" y="340" type="qcurve" smooth="yes"/>
      <point x="963" y="313"/>
      <point x="957" y="282" type="qcurve" smooth="yes"/>
      <point x="950" y="246" type="line"/>
      <point x="517" y="246" type="line"/>
      <point x="514" y="229"/>
      <point x="510" y="196"/>
      <point x="510" y="181" type="qcurve" smooth="yes"/>
      <point x="510" y="100"/>
      <point x="605" y="10"/>
      <point x="693" y="10" type="qcurve" smooth="yes"/>
      <point x="771" y="10"/>
      <point x="881" y="84"/>
      <point x="914" y="160" type="qcurve"/>
      <point x="934" y="160" type="line"/>
      <point x="902" y="78"/>
      <point x="772" y="-10"/>
      <point x="684" y="-10" type="qcurve" smooth="yes"/>
      <point x="589" y="-10"/>
      <point x="489" y="90"/>
    </contour>
    <contour>
      <point x="521" y="266" type="qcurve"/>
      <point x="934" y="266" type="line"/>
      <point x="941" y="304"/>
      <point x="941" y="336" type="qcurve" smooth="yes"/>
      <point x="941" y="386"/>
      <point x="904" y="456"/>
      <point x="832" y="492"/>
      <point x="780" y="492" type="qcurve" smooth="yes"/>
      <point x="714" y="492"/>
      <point x="606" y="436"/>
      <point x="534" y="335"/>
    </contour>
  </outline>
</glyph>
<glyph name="Tbar" format="2">
  <advance width="622.0"/>
  <unicode hex="0166"/>
  <outline>
    <contour>
      <point x="92" y="343" type="line"/>
      <point x="96" y="363" type="line"/>
      <point x="396" y="363" type="line"/>
      <point x="392" y="343" type="line"/>
    </contour>
    <contour>
      <point x="158" y="0" type="line"/>
      <point x="295" y="702" type="line"/>
      <point x="20" y="702" type="line"/>
      <point x="24" y="722" type="line"/>
      <point x="596" y="722" type="line"/>
      <point x="592" y="702" type="line"/>
      <point x="317" y="702" type="line"/>
      <point x="180" y="0" type="line"/>
    </contour>
  </outline>
</glyph>
<glyph name="tbar" format="2">
  <advance width="349.0"/>
  <unicode hex="0167"/>
  <outline>
    <contour>
      <point x="61" y="271" type="line"/>
      <point x="65" y="291" type="line"/>
      <point x="305" y="291" type="line"/>
      <point x="301" y="271" type="line"/>
    </contour>
    <contour>
      <point x="122" y="44" type="qcurve" smooth="yes"/>
      <point x="122" y="57"/>
      <point x="126" y="74" type="qcurve" smooth="yes"/>
      <point x="233" y="628" type="line"/>
      <point x="255" y="636" type="line"/>
      <point x="145" y="71" type="line" smooth="yes"/>
      <point x="142" y="58"/>
      <point x="142" y="48" type="qcurve" smooth="yes"/>
      <point x="142" y="28"/>
      <point x="163" y="10"/>
      <point x="185" y="10" type="qcurve" smooth="yes"/>
      <point x="198" y="10"/>
      <point x="229" y="16"/>
      <point x="245" y="20" type="qcurve"/>
      <point x="241" y="0" type="line"/>
      <point x="228" y="-5"/>
      <point x="190" y="-10"/>
      <point x="177" y="-10" type="qcurve" smooth="yes"/>
      <point x="149" y="-10"/>
      <point x="122" y="17"/>
    </contour>
    <contour>
      <point x="210" y="480" type="line"/>
      <point x="213" y="500" type="line"/>
      <point x="338" y="500" type="line"/>
      <point x="335" y="480" type="line"/>
    </contour>
    <contour>
      <point x="114" y="480" type="line"/>
      <point x="118" y="500" type="line"/>
      <point x="223" y="500" type="line"/>
      <point x="219" y="480" type="line"/>
    </contour>
  </outline>
</glyph>
<glyph name="longs" format="2">
  <advance width="301.0"/>
  <unicode hex="017F"/>
  <outline>
    <contour>
      <point x="52" y="0" type="line"/>
      <point x="173" y="623" type="line" smooth="yes"/>
      <point x="183" y="675"/>
      <point x="235" y="732"/>
      <point x="276" y="732" type="qcurve" smooth="yes"/>
      <point x="299" y="732"/>
      <point x="328" y="728"/>
      <point x="343" y="722" type="qcurve"/>
      <point x="339" y="702" type="line"/>
      <point x="326" y="707"/>
      <point x="295" y="712"/>
      <point x="282" y="712" type="qcurve" smooth="yes"/>
      <point x="242" y="712"/>
      <point x="202" y="667"/>
      <point x="193" y="621" type="qcurve" smooth="yes"/>
      <point x="72" y="0" type="line"/>
    </contour>
    <contour>
      <point x="45" y="480" type="line"/>
      <point x="49" y="500" type="line"/>
      <point x="159" y="500" type="line"/>
      <point x="155" y="480" type="line"/>
    </contour>
  </outline>
</glyph>
<glyph name="florin" format="2">
  <advance width="503.0"/>
  <unicode hex="0192"/>
  <outline>
    <contour>
      <point x="-183" y="-199" type="qcurve"/>
      <point x="-172" y="-176" type="line"/>
      <point x="-167" y="-183"/>
      <point x="-134" y="-194"/>
      <point x="-117" y="-194" type="qcurve" smooth="yes"/>
      <point x="-83" y="-194"/>
      <point x="-31" y="-173"/>
      <point x="9" y="-128"/>
      <point x="26" y="-92" type="qcurve" smooth="yes"/>
      <point x="318" y="538" type="line" smooth="yes"/>
      <point x="343" y="592"/>
      <point x="392" y="667"/>
      <point x="441" y="712"/>
      <point x="495" y="732"/>
      <point x="525" y="732" type="qcurve" smooth="yes"/>
      <point x="543" y="732"/>
      <point x="576" y="726"/>
      <point x="590" y="718" type="qcurve"/>
      <point x="582" y="702" type="line"/>
      <point x="574" y="707"/>
      <point x="532" y="714"/>
      <point x="515" y="714" type="qcurve" smooth="yes"/>
      <point x="491" y="714"/>
      <point x="446" y="691"/>
      <point x="400" y="644"/>
      <point x="354" y="568"/>
      <point x="329" y="515" type="qcurve" smooth="yes"/>
      <point x="52" y="-84" type="line" smooth="yes"/>
      <point x="34" y="-122"/>
      <point x="-2" y="-172"/>
      <point x="-43" y="-200"/>
      <point x="-93" y="-212"/>
      <point x="-124" y="-212" type="qcurve" smooth="yes"/>
      <point x="-138" y="-212"/>
      <point x="-172" y="-206"/>
    </contour>
    <contour>
      <point x="161" y="480" type="line"/>
      <point x="170" y="500" type="line"/>
      <point x="479" y="500" type="line"/>
      <point x="470" y="480" type="line"/>
    </contour>
  </outline>
</glyph>
<glyph name="uni019E" format="2">
  <advance width="608.0"/>
  <unicode hex="019E"/>
  <outline>
    <contour>
      <point x="50" y="0" type="line"/>
      <point x="148" y="500" type="line"/>
      <point x="168" y="500" type="line"/>
      <point x="70" y="0" type="line"/>
    </contour>
    <contour>
      <point x="134" y="376" type="line"/>
      <point x="139" y="402" type="line"/>
      <point x="152" y="420" type="line" smooth="yes"/>
      <point x="173" y="447"/>
      <point x="238" y="488"/>
      <point x="311" y="510"/>
      <point x="343" y="510" type="qcurve" smooth="yes"/>
      <point x="418" y="510"/>
      <point x="502" y="437"/>
      <point x="502" y="367" type="qcurve" smooth="yes"/>
      <point x="502" y="341"/>
      <point x="496" y="312" type="qcurve" smooth="yes"/>
      <point x="435" y="0" type="line"/>
      <point x="415" y="0" type="line"/>
      <point x="477" y="316" type="line" smooth="yes"/>
      <point x="482" y="342"/>
      <point x="482" y="364" type="qcurve" smooth="yes"/>
      <point x="482" y="427"/>
      <point x="405" y="490"/>
      <point x="335" y="490" type="qcurve" smooth="yes"/>
      <point x="298" y="490"/>
      <point x="218" y="460"/>
      <point x="155" y="409"/>
      <point x="144" y="376" type="qcurve"/>
    </contour>
    <contour>
      <point x="377" y="-200" type="line"/>
      <point x="435" y="100" type="line"/>
      <point x="455" y="100" type="line"/>
      <point x="397" y="-200" type="line"/>
    </contour>
  </outline>
</glyph>
<glyph name="uni01C0" format="2">
  <advance width="344.0"/>
  <unicode hex="01C0"/>
  <outline>
    <contour>
      <point x="34" y="-258" type="line"/>
      <point x="239" y="796" type="line"/>
      <point x="261" y="796" type="line"/>
      <point x="56" y="-258" type="line"/>
    </contour>
  </outline>
</glyph>
<glyph name="uni01C1" format="2">
  <advance width="688.0"/>
  <unicode hex="01C1"/>
  <outline>
    <contour>
      <point x="34" y="-258" type="line"/>
      <point x="239" y="796" type="line"/>
      <point x="261" y="796" type="line"/>
      <point x="56" y="-258" type="line"/>
    </contour>
    <contour>
      <point x="378" y="-258" type="line"/>
      <point x="583" y="796" type="line"/>
      <point x="605" y="796" type="line"/>
      <point x="400" y="-258" type="line"/>
    </contour>
  </outline>
</glyph>
<glyph name="uni01C2" format="2">
  <advance width="405.0"/>
  <unicode hex="01C2"/>
  <outline>
    <contour>
      <point x="120" y="0" type="line"/>
      <point x="263" y="736" type="line"/>
      <point x="285" y="736" type="line"/>
      <point x="142" y="0" type="line"/>
    </contour>
    <contour>
      <point x="31" y="429" type="line"/>
      <point x="35" y="449" type="line"/>
      <point x="401" y="449" type="line"/>
      <point x="397" y="429" type="line"/>
    </contour>
    <contour>
      <point x="3" y="288" type="line"/>
      <point x="7" y="308" type="line"/>
      <point x="373" y="308" type="line"/>
      <point x="369" y="288" type="line"/>
    </contour>
  </outline>
</glyph>
<glyph name="uni01DD" format="2">
  <advance width="576.0"/>
  <unicode hex="01DD"/>
  <outline>
    <contour>
      <point x="51" y="158" type="qcurve" smooth="yes"/>
      <point x="51" y="185"/>
      <point x="57" y="216" type="qcurve" smooth="yes"/>
      <point x="64" y="252" type="line"/>
      <point x="497" y="252" type="line"/>
      <point x="500" y="269"/>
      <point x="503" y="302"/>
      <point x="503" y="317" type="qcurve" smooth="yes"/>
      <point x="503" y="398"/>
      <point x="409" y="488"/>
      <point x="321" y="488" type="qcurve" smooth="yes"/>
      <point x="243" y="488"/>
      <point x="133" y="414"/>
      <point x="99" y="338" type="qcurve"/>
      <point x="79" y="338" type="line"/>
      <point x="111" y="420"/>
      <point x="242" y="508"/>
      <point x="330" y="508" type="qcurve" smooth="yes"/>
      <point x="425" y="508"/>
      <point x="525" y="408"/>
      <point x="525" y="319" type="qcurve" smooth="yes"/>
      <point x="525" y="256"/>
      <point x="486" y="136"/>
      <point x="412" y="42"/>
      <point x="304" y="-14"/>
      <point x="235" y="-14" type="qcurve" smooth="yes"/>
      <point x="147" y="-14"/>
      <point x="51" y="78"/>
    </contour>
    <contour>
      <point x="73" y="162" type="qcurve" smooth="yes"/>
      <point x="73" y="112"/>
      <point x="109" y="42"/>
      <point x="181" y="6"/>
      <point x="233" y="6" type="qcurve" smooth="yes"/>
      <point x="300" y="6"/>
      <point x="407" y="62"/>
      <point x="479" y="163"/>
      <point x="493" y="232" type="qcurve"/>
      <point x="80" y="232" type="line"/>
      <point x="73" y="194"/>
    </contour>
  </outline>
</glyph>
<glyph name="dotlessj" format="2">
  <advance width="205.0"/>
  <unicode hex="0237"/>
  <outline>
    <contour>
      <point x="-47" y="-200" type="line"/>
      <point x="-44" y="-180" type="line"/>
      <point x="-25" y="-180" type="line" smooth="yes"/>
      <point x="-5" y="-180"/>
      <point x="19" y="-148"/>
      <point x="26" y="-108" type="qcurve" smooth="yes"/>
      <point x="145" y="500" type="line"/>
      <point x="165" y="500" type="line"/>
      <point x="45" y="-114" type="line" smooth="yes"/>
      <point x="36" y="-159"/>
      <point x="4" y="-200"/>
      <point x="-22" y="-200" type="qcurve" smooth="yes"/>
    </contour>
  </outline>
</glyph>
<glyph name="uni0251" format="2">
  <advance width="612.0"/>
  <unicode hex="0251"/>
  <outline>
    <contour>
      <point x="72" y="195" type="qcurve" smooth="yes"/>
      <point x="72" y="247"/>
      <point x="108" y="351"/>
      <point x="175" y="438"/>
      <point x="268" y="490"/>
      <point x="325" y="490" type="qcurve" smooth="yes"/>
      <point x="411" y="490"/>
      <point x="502" y="398"/>
      <point x="502" y="312" type="qcurve" smooth="yes"/>
      <point x="502" y="257"/>
      <point x="465" y="150"/>
      <point x="398" y="63"/>
      <point x="302" y="10"/>
      <point x="244" y="10" type="qcurve" smooth="yes"/>
      <point x="163" y="10"/>
      <point x="72" y="111"/>
    </contour>
    <contour>
      <point x="51" y="195" type="qcurve" smooth="yes"/>
      <point x="51" y="133"/>
      <point x="97" y="40"/>
      <point x="183" y="-10"/>
      <point x="243" y="-10" type="qcurve" smooth="yes"/>
      <point x="317" y="-10"/>
      <point x="446" y="76"/>
      <point x="487" y="165" type="qcurve"/>
      <point x="455" y="0" type="line"/>
      <point x="475" y="0" type="line"/>
      <point x="572" y="500" type="line"/>
      <point x="552" y="500" type="line"/>
      <point x="521" y="341" type="line"/>
      <point x="519" y="385"/>
      <point x="480" y="463"/>
      <point x="400" y="510"/>
      <point x="338" y="510" type="qcurve" smooth="yes"/>
      <point x="271" y="510"/>
      <point x="165" y="456"/>
      <point x="90" y="365"/>
      <point x="51" y="253"/>
    </contour>
  </outline>
</glyph>
<glyph name="uni0253" format="2">
  <advance width="615.0"/>
  <unicode hex="0253"/>
  <outline>
    <contour>
      <point x="71" y="380" type="line"/>
      <point x="103" y="545" type="line" smooth="yes"/>
      <point x="114" y="603"/>
      <point x="179" y="687"/>
      <point x="279" y="732"/>
      <point x="344" y="732" type="qcurve" smooth="yes"/>
      <point x="374" y="732"/>
      <point x="425" y="721"/>
      <point x="466" y="700"/>
      <point x="481" y="683" type="qcurve"/>
      <point x="463" y="668" type="line"/>
      <point x="443" y="691"/>
      <point x="381" y="712"/>
      <point x="338" y="712" type="qcurve" smooth="yes"/>
      <point x="279" y="712"/>
      <point x="189" y="672"/>
      <point x="132" y="595"/>
      <point x="122" y="540" type="qcurve" smooth="yes"/>
      <point x="91" y="380" type="line"/>
    </contour>
    <contour>
      <point x="519" y="195" type="qcurve" smooth="yes"/>
      <point x="486" y="111"/>
      <point x="355" y="10"/>
      <point x="275" y="10" type="qcurve" smooth="yes"/>
      <point x="216" y="10"/>
      <point x="142" y="63"/>
      <point x="108" y="150"/>
      <point x="113" y="257"/>
      <point x="134" y="312" type="qcurve" smooth="yes"/>
      <point x="156" y="369"/>
      <point x="228" y="449"/>
      <point x="323" y="490"/>
      <point x="380" y="490" type="qcurve" smooth="yes"/>
      <point x="437" y="490"/>
      <point x="510" y="438"/>
      <point x="543" y="351"/>
      <point x="539" y="247"/>
    </contour>
    <contour>
      <point x="540" y="195" type="qcurve" smooth="yes"/>
      <point x="563" y="253"/>
      <point x="566" y="365"/>
      <point x="527" y="456"/>
      <point x="442" y="510"/>
      <point x="375" y="510" type="qcurve" smooth="yes"/>
      <point x="313" y="510"/>
      <point x="215" y="463"/>
      <point x="145" y="385"/>
      <point x="127" y="341" type="qcurve"/>
      <point x="158" y="500" type="line"/>
      <point x="138" y="500" type="line"/>
      <point x="41" y="0" type="line"/>
      <point x="61" y="0" type="line"/>
      <point x="93" y="165" type="line"/>
      <point x="99" y="76"/>
      <point x="194" y="-10"/>
      <point x="268" y="-10" type="qcurve" smooth="yes"/>
      <point x="328" y="-10"/>
      <point x="433" y="40"/>
      <point x="516" y="133"/>
    </contour>
  </outline>
</glyph>
<glyph name="uni0255" format="2">
  <advance width="555.0"/>
  <unicode hex="0255"/>
  <outline>
    <contour>
      <point x="-14" y="-133" type="line"/>
      <point x="22" y="-53"/>
      <point x="115" y="81"/>
      <point x="220" y="180"/>
      <point x="328" y="234"/>
      <point x="378" y="234" type="qcurve" smooth="yes"/>
      <point x="424" y="234"/>
      <point x="482" y="185"/>
      <point x="482" y="141" type="qcurve" smooth="yes"/>
      <point x="482" y="101"/>
      <point x="435" y="44"/>
      <point x="361" y="7"/>
      <point x="276" y="-10"/>
      <point x="237" y="-10" type="qcurve" smooth="yes"/>
      <point x="144" y="-10"/>
      <point x="49" y="82"/>
      <point x="49" y="167" type="qcurve" smooth="yes"/>
      <point x="49" y="229"/>
      <point x="88" y="351"/>
      <point x="161" y="451"/>
      <point x="269" y="510"/>
      <point x="338" y="510" type="qcurve" smooth="yes"/>
      <point x="412" y="510"/>
      <point x="502" y="437"/>
      <point x="502" y="367" type="qcurve" smooth="yes"/>
      <point x="502" y="355"/>
      <point x="501" y="341" type="qcurve"/>
      <point x="481" y="341" type="line"/>
      <point x="481" y="346"/>
      <point x="482" y="355"/>
      <point x="482" y="360" type="qcurve" smooth="yes"/>
      <point x="482" y="421"/>
      <point x="404" y="490"/>
      <point x="334" y="490" type="qcurve" smooth="yes"/>
      <point x="271" y="490"/>
      <point x="172" y="434"/>
      <point x="104" y="340"/>
      <point x="69" y="226"/>
      <point x="69" y="169" type="qcurve" smooth="yes"/>
      <point x="69" y="89"/>
      <point x="166" y="10"/>
      <point x="264" y="10" type="qcurve" smooth="yes"/>
      <point x="293" y="10"/>
      <point x="361" y="25"/>
      <point x="422" y="56"/>
      <point x="461" y="105"/>
      <point x="461" y="139" type="qcurve" smooth="yes"/>
      <point x="461" y="173"/>
      <point x="417" y="214"/>
      <point x="375" y="214" type="qcurve" smooth="yes"/>
      <point x="325" y="214"/>
      <point x="221" y="158"/>
      <point x="122" y="60"/>
      <point x="36" y="-68"/>
      <point x="4" y="-140" type="qcurve"/>
    </contour>
  </outline>
</glyph>
<glyph name="uni0256" format="2">
  <advance width="654.0"/>
  <unicode hex="0256"/>
  <outline>
    <contour>
      <point x="445" y="-117" type="qcurve" smooth="yes"/>
      <point x="445" y="-98"/>
      <point x="449" y="-75" type="qcurve" smooth="yes"/>
      <point x="490" y="134" type="line"/>
      <point x="510" y="134" type="line"/>
      <point x="469" y="-76" type="line" smooth="yes"/>
      <point x="467" y="-86"/>
      <point x="465" y="-105"/>
      <point x="465" y="-113" type="qcurve" smooth="yes"/>
      <point x="465" y="-146"/>
      <point x="498" y="-179"/>
      <point x="532" y="-179" type="qcurve" smooth="yes"/>
      <point x="560" y="-179"/>
      <point x="610" y="-157"/>
      <point x="630" y="-136" type="qcurve"/>
      <point x="641" y="-150" type="line"/>
      <point x="587" y="-199"/>
      <point x="528" y="-199" type="qcurve" smooth="yes"/>
      <point x="486" y="-199"/>
      <point x="445" y="-157"/>
    </contour>
    <contour>
      <point x="51" y="170" type="qcurve" smooth="yes"/>
      <point x="51" y="233"/>
      <point x="86" y="355"/>
      <point x="156" y="453"/>
      <point x="262" y="512"/>
      <point x="332" y="512" type="qcurve" smooth="yes"/>
      <point x="390" y="512"/>
      <point x="466" y="459"/>
      <point x="504" y="373"/>
      <point x="504" y="325" type="qcurve"/>
      <point x="474" y="170" type="line"/>
      <point x="453" y="115"/>
      <point x="376" y="34"/>
      <point x="282" y="-10"/>
      <point x="235" y="-10" type="qcurve" smooth="yes"/>
      <point x="144" y="-10"/>
      <point x="51" y="84"/>
    </contour>
    <contour>
      <point x="71" y="174" type="qcurve" smooth="yes"/>
      <point x="71" y="91"/>
      <point x="159" y="10"/>
      <point x="241" y="10" type="qcurve" smooth="yes"/>
      <point x="297" y="10"/>
      <point x="387" y="65"/>
      <point x="451" y="154"/>
      <point x="486" y="260"/>
      <point x="485" y="311" type="qcurve" smooth="yes"/>
      <point x="485" y="365"/>
      <point x="448" y="446"/>
      <point x="378" y="492"/>
      <point x="330" y="492" type="qcurve" smooth="yes"/>
      <point x="263" y="492"/>
      <point x="166" y="438"/>
      <point x="102" y="346"/>
      <point x="71" y="233"/>
    </contour>
    <contour>
      <point x="432" y="0" type="line"/>
      <point x="572" y="722" type="line"/>
      <point x="592" y="722" type="line"/>
      <point x="452" y="0" type="line"/>
    </contour>
  </outline>
</glyph>
<glyph name="uni0257" format="2">
  <advance width="611.0"/>
  <unicode hex="0257"/>
  <outline>
    <contour>
      <point x="72" y="195" type="qcurve" smooth="yes"/>
      <point x="72" y="111"/>
      <point x="164" y="10"/>
      <point x="244" y="10" type="qcurve" smooth="yes"/>
      <point x="303" y="10"/>
      <point x="398" y="63"/>
      <point x="466" y="150"/>
      <point x="502" y="257"/>
      <point x="502" y="312" type="qcurve" smooth="yes"/>
      <point x="502" y="398"/>
      <point x="411" y="490"/>
      <point x="326" y="490" type="qcurve" smooth="yes"/>
      <point x="268" y="490"/>
      <point x="175" y="438"/>
      <point x="108" y="351"/>
      <point x="72" y="247"/>
    </contour>
    <contour>
      <point x="51" y="195" type="qcurve" smooth="yes"/>
      <point x="51" y="253"/>
      <point x="91" y="365"/>
      <point x="165" y="456"/>
      <point x="270" y="510"/>
      <point x="335" y="510" type="qcurve" smooth="yes"/>
      <point x="396" y="510"/>
      <point x="476" y="462"/>
      <point x="518" y="385"/>
      <point x="521" y="341" type="qcurve"/>
      <point x="552" y="500" type="line"/>
      <point x="572" y="500" type="line"/>
      <point x="475" y="0" type="line"/>
      <point x="455" y="0" type="line"/>
      <point x="487" y="165" type="line"/>
      <point x="446" y="76"/>
      <point x="318" y="-10"/>
      <point x="243" y="-10" type="qcurve" smooth="yes"/>
      <point x="184" y="-10"/>
      <point x="98" y="40"/>
      <point x="51" y="133"/>
    </contour>
    <contour>
      <point x="529" y="380" type="line"/>
      <point x="561" y="545" type="line" smooth="yes"/>
      <point x="572" y="603"/>
      <point x="637" y="687"/>
      <point x="737" y="732"/>
      <point x="802" y="732" type="qcurve" smooth="yes"/>
      <point x="832" y="732"/>
      <point x="883" y="721"/>
      <point x="924" y="700"/>
      <point x="939" y="683" type="qcurve"/>
      <point x="921" y="668" type="line"/>
      <point x="901" y="691"/>
      <point x="839" y="712"/>
      <point x="796" y="712" type="qcurve" smooth="yes"/>
      <point x="737" y="712"/>
      <point x="647" y="672"/>
      <point x="590" y="595"/>
      <point x="580" y="540" type="qcurve" smooth="yes"/>
      <point x="549" y="380" type="line"/>
    </contour>
  </outline>
</glyph>
<glyph name="uni025A" format="2">
  <advance width="766.0"/>
  <unicode hex="025A"/>
  <outline>
    <contour>
      <point x="37" y="137" type="qcurve" smooth="yes"/>
      <point x="37" y="138"/>
      <point x="37" y="148"/>
      <point x="38" y="153" type="qcurve"/>
      <point x="60" y="162" type="line"/>
      <point x="58" y="155"/>
      <point x="57" y="141"/>
      <point x="57" y="134" type="qcurve" smooth="yes"/>
      <point x="57" y="74"/>
      <point x="144" y="6"/>
      <point x="219" y="6" type="qcurve" smooth="yes"/>
      <point x="271" y="6"/>
      <point x="357" y="39"/>
      <point x="423" y="97"/>
      <point x="467" y="173"/>
      <point x="490" y="259"/>
      <point x="490" y="304" type="qcurve" smooth="yes"/>
      <point x="490" y="365"/>
      <point x="448" y="447"/>
      <point x="367" y="488"/>
      <point x="308" y="488" type="qcurve" smooth="yes"/>
      <point x="229" y="488"/>
      <point x="119" y="414"/>
      <point x="86" y="338" type="qcurve"/>
      <point x="66" y="338" type="line"/>
      <point x="98" y="420"/>
      <point x="228" y="508"/>
      <point x="317" y="508" type="qcurve" smooth="yes"/>
      <point x="411" y="508"/>
      <point x="512" y="407"/>
      <point x="512" y="309" type="qcurve" smooth="yes"/>
      <point x="512" y="250"/>
      <point x="473" y="134"/>
      <point x="398" y="41"/>
      <point x="289" y="-14"/>
      <point x="219" y="-14" type="qcurve" smooth="yes"/>
      <point x="164" y="-14"/>
      <point x="82" y="22"/>
      <point x="37" y="89"/>
    </contour>
    <contour>
      <point x="47" y="137" type="line"/>
      <point x="43" y="155" type="line"/>
      <point x="627" y="415" type="line"/>
      <point x="605" y="303" type="line" smooth="yes"/>
      <point x="603" y="290"/>
      <point x="603" y="279" type="qcurve" smooth="yes"/>
      <point x="603" y="231"/>
      <point x="654" y="231" type="qcurve" smooth="yes"/>
      <point x="691" y="231"/>
      <point x="738" y="278"/>
      <point x="745" y="319" type="qcurve"/>
      <point x="765" y="319" type="line"/>
      <point x="759" y="286"/>
      <point x="728" y="238"/>
      <point x="681" y="213"/>
      <point x="650" y="213" type="qcurve" smooth="yes"/>
      <point x="629" y="213"/>
      <point x="598" y="226"/>
      <point x="581" y="254"/>
      <point x="581" y="274" type="qcurve" smooth="yes"/>
      <point x="581" y="286"/>
      <point x="584" y="301" type="qcurve" smooth="yes"/>
      <point x="604" y="400" type="line"/>
      <point x="618" y="391" type="line"/>
    </contour>
  </outline>
</glyph>
<glyph name="uni025F" format="2">
  <advance width="317.0"/>
  <unicode hex="025F"/>
  <outline>
    <contour>
      <point x="-105" y="-147" type="qcurve"/>
      <point x="-87" y="-132" type="line"/>
      <point x="-70" y="-159"/>
      <point x="-24" y="-182"/>
      <point x="2" y="-182" type="qcurve" smooth="yes"/>
      <point x="40" y="-182"/>
      <point x="86" y="-141"/>
      <point x="93" y="-106" type="qcurve" smooth="yes"/>
      <point x="211" y="500" type="line"/>
      <point x="231" y="500" type="line"/>
      <point x="111" y="-116" type="line" smooth="yes"/>
      <point x="103" y="-154"/>
      <point x="43" y="-200"/>
      <point x="-1" y="-200" type="qcurve" smooth="yes"/>
      <point x="-32" y="-200"/>
      <point x="-84" y="-175"/>
    </contour>
    <contour>
      <point x="35" y="241" type="line"/>
      <point x="39" y="259" type="line"/>
      <point x="309" y="259" type="line"/>
      <point x="305" y="241" type="line"/>
    </contour>
  </outline>
</glyph>
<glyph name="uni0260" format="2">
  <advance width="621.0"/>
  <unicode hex="0260"/>
  <outline>
    <contour>
      <point x="564" y="400" type="line"/>
      <point x="590" y="537" type="line" smooth="yes"/>
      <point x="600" y="584"/>
      <point x="641" y="638"/>
      <point x="687" y="638" type="qcurve" smooth="yes"/>
      <point x="704" y="638"/>
      <point x="728" y="631"/>
      <point x="738" y="623" type="qcurve"/>
      <point x="735" y="607" type="line"/>
      <point x="716" y="620"/>
      <point x="687" y="620" type="qcurve" smooth="yes"/>
      <point x="657" y="620"/>
      <point x="620" y="587"/>
      <point x="612" y="545" type="qcurve" smooth="yes"/>
      <point x="584" y="400" type="line"/>
    </contour>
    <contour>
      <point x="94" y="-69" type="qcurve" smooth="yes"/>
      <point x="94" y="-55"/>
      <point x="97" y="-39" type="qcurve"/>
      <point x="117" y="-39" type="line"/>
      <point x="114" y="-52"/>
      <point x="114" y="-64" type="qcurve" smooth="yes"/>
      <point x="114" y="-116"/>
      <point x="198" y="-178"/>
      <point x="272" y="-178" type="qcurve" smooth="yes"/>
      <point x="334" y="-178"/>
      <point x="429" y="-132"/>
      <point x="491" y="-43"/>
      <point x="503" y="21" type="qcurve" smooth="yes"/>
      <point x="533" y="175" type="line"/>
      <point x="504" y="122"/>
      <point x="431" y="51"/>
      <point x="342" y="14"/>
      <point x="291" y="14" type="qcurve" smooth="yes"/>
      <point x="209" y="14"/>
      <point x="121" y="108"/>
      <point x="121" y="197" type="qcurve" smooth="yes"/>
      <point x="121" y="254"/>
      <point x="158" y="366"/>
      <point x="228" y="457"/>
      <point x="329" y="512"/>
      <point x="394" y="512" type="qcurve" smooth="yes"/>
      <point x="466" y="512"/>
      <point x="555" y="437"/>
      <point x="570" y="364" type="qcurve"/>
      <point x="597" y="500" type="line"/>
      <point x="617" y="500" type="line"/>
      <point x="525" y="29" type="line" smooth="yes"/>
      <point x="511" y="-41"/>
      <point x="446" y="-143"/>
      <point x="341" y="-198"/>
      <point x="268" y="-198" type="qcurve" smooth="yes"/>
      <point x="227" y="-198"/>
      <point x="162" y="-180"/>
      <point x="117" y="-146"/>
      <point x="94" y="-99"/>
    </contour>
    <contour>
      <point x="141" y="204" type="qcurve" smooth="yes"/>
      <point x="141" y="119"/>
      <point x="228" y="34"/>
      <point x="312" y="34" type="qcurve" smooth="yes"/>
      <point x="360" y="34"/>
      <point x="447" y="85"/>
      <point x="516" y="169"/>
      <point x="555" y="268"/>
      <point x="555" y="316" type="qcurve" smooth="yes"/>
      <point x="555" y="363"/>
      <point x="516" y="443"/>
      <point x="445" y="492"/>
      <point x="396" y="492" type="qcurve" smooth="yes"/>
      <point x="334" y="492"/>
      <point x="240" y="443"/>
      <point x="175" y="359"/>
      <point x="141" y="257"/>
    </contour>
  </outline>
</glyph>
